SplineFontDB: 3.2
FontName: AmiriLatin-Italic
FullName: Amiri Latin Italic
FamilyName: Amiri Latin
Weight: Italic
Copyright: Copyright (c) 2010, Sebastian Kosch (sebastian@aldusleaf.org).\nCopyright (c) 2012-2014 Khaled Hosny (khaledhosny@eglug.org).\n\nThis Font Software is licensed under the Open Font License, Version 1.1.
Version: 0.8
ItalicAngle: -11
UnderlinePosition: -102
UnderlineWidth: 51
Ascent: 800
Descent: 200
InvalidEm: 0
LayerCount: 2
Layer: 0 0 "Back" 1
Layer: 1 0 "Fore" 0
FSType: 0
OS2Version: 0
OS2_WeightWidthSlopeOnly: 0
OS2_UseTypoMetrics: 1
CreationTime: 1273443993
ModificationTime: 1589745668
PfmFamily: 17
TTFWeight: 400
TTFWidth: 5
LineGap: 90
VLineGap: 0
OS2TypoAscent: 700
OS2TypoAOffset: 0
OS2TypoDescent: -300
OS2TypoDOffset: 0
OS2TypoLinegap: 90
OS2WinAscent: 0
OS2WinAOffset: 1
OS2WinDescent: 0
OS2WinDOffset: 1
HheadAscent: 700
HheadAOffset: 0
HheadDescent: -300
HheadDOffset: 0
OS2SubXSize: 649
OS2SubYSize: 699
OS2SubXOff: 26
OS2SubYOff: 140
OS2SupXSize: 649
OS2SupYSize: 699
OS2SupXOff: -91
OS2SupYOff: 479
OS2StrikeYSize: 50
OS2StrikeYPos: 259
OS2Vendor: 'PfEd'
Lookup: 1 0 0 "'ccmp' Turkish i" { "'ccmp' Turkish i-1"  } ['ccmp' ('latn' <'TRK ' > ) ]
Lookup: 1 0 0 "'onum' Oldstyle Figures in Latin lookup 5" { "'onum' Oldstyle Figures in Latin lookup 5-1" ("onum") } ['onum' ('DFLT' <'dflt' > 'latn' <'TRK ' 'dflt' > ) ]
Lookup: 1 0 0 "'pnum' Proportional Numbers lookup 12" { "'pnum' Proportional Numbers lookup 12-1" ("prop") } ['pnum' ('DFLT' <'dflt' > 'latn' <'TRK ' 'dflt' > ) ]
Lookup: 1 0 0 "'smcp' Lowercase to Small Capitals in Latin lookup 3" { "'smcp' Lowercase to Small Capitals in Latin lookup 3-1" ("sc") } ['smcp' ('DFLT' <'dflt' > 'latn' <'TRK ' 'dflt' > ) ]
Lookup: 4 0 1 "'liga' Standard Ligatures lookup 0" { "'liga' Standard Ligatures lookup 0-1"  } ['liga' ('DFLT' <'dflt' > 'latn' <'TRK ' 'dflt' > ) ]

StartChar: exclam
Encoding: 33 33 0
Width: 228
VWidth: 0
Flags: W
HStem: -14 113<36 109>
VStem: 20 106<3 83> 130 88<481 600>
LayerCount: 2
Fore
SplineSet
20 35 m 27
 20 71 48 100 84 100 c 27
 107 100 126 78 126 55 c 27
 126 18 99 -14 62 -14 c 27
 37 -14 20 10 20 35 c 27
188 616 m 3
 209 616 218 595 218 574 c 3
 218 548 156 344 111 166 c 0
 108 152 88 145 84 145 c 3
 79 145 78 155 78 162 c 3
 78 166 109 418 130 563 c 0
 133 582 157 616 188 616 c 3
EndSplineSet
Substitution2: "'smcp' Lowercase to Small Capitals in Latin lookup 3-1" exclam.sc
EndChar

StartChar: quotedbl
Encoding: 34 34 1
Width: 323
VWidth: 0
Flags: W
HStem: 424 258<135 141 281 288>
VStem: 105 93<544 658> 251 93<544 658>
LayerCount: 2
Fore
SplineSet
316 682 m 27
 343 682 355 676 344 618 c 0
 333 563 305 503 286 438 c 0
 283 428 273 424 266 424 c 0
 259 424 250 429 251 437 c 0
 260 525 251 576 251 621 c 1
 254 639 281 682 316 682 c 27
170 682 m 27
 197 682 208 676 197 618 c 0
 186 563 159 503 140 438 c 0
 137 428 126 424 119 424 c 0
 112 424 104 429 105 437 c 0
 114 525 105 576 105 621 c 1
 108 639 135 682 170 682 c 27
EndSplineSet
EndChar

StartChar: numbersign
Encoding: 35 35 2
Width: 436
VWidth: 0
Flags: W
HStem: 174 49<19 96 159 232 296 372> 312 49<66 142 205 278 342 418>
LayerCount: 2
Fore
SplineSet
342 361 m 1
 420 361 l 0
 425 361 425 361 425 359 c 0
 425 343 410 312 402 312 c 0
 325 312 l 1
 296 223 l 1
 373 223 l 0
 377 223 378 223 378 220 c 0
 378 204 363 174 355 174 c 0
 278 174 l 1
 229 24 l 0
 229 23 225 18 198 18 c 0
 190 18 182 20 180 21 c 1
 182 30 230 169 230 170 c 0
 232 174 l 1
 142 174 l 1
 92 24 l 0
 92 23 89 18 62 18 c 0
 54 18 45 20 43 21 c 1
 45 30 94 169 94 170 c 0
 96 174 l 1
 18 174 l 0
 14 174 13 174 13 177 c 0
 13 193 27 223 35 223 c 0
 112 223 l 1
 142 312 l 1
 64 312 l 0
 60 312 60 312 60 315 c 0
 60 331 74 361 82 361 c 0
 159 361 l 1
 209 511 l 0
 209 512 212 518 239 518 c 0
 247 518 256 515 258 514 c 1
 256 507 207 366 207 365 c 0
 205 361 l 1
 296 361 l 1
 346 511 l 0
 346 512 349 518 376 518 c 0
 384 518 393 515 395 514 c 1
 393 507 344 366 344 365 c 0
 342 361 l 1
278 312 m 1
 188 312 l 1
 159 223 l 1
 249 223 l 1
 278 312 l 1
EndSplineSet
EndChar

StartChar: dollar
Encoding: 36 36 3
Width: 424
UnlinkRmOvrlpSave: 1
Flags: W
HStem: -8 33<138 242> 593 33<204 312>
VStem: 18 33<104 178> 82 73<418 525> 298 84<101 208> 360 29<462 556>
LayerCount: 2
Fore
SplineSet
280 626 m 0xf8
 335 626 363 614 409 603 c 1
 406 571 395 496 389 468 c 0
 388 461 382 461 379 461 c 0
 375 461 366 462 360 468 c 1xf4
 365 543 345 593 266 593 c 0
 189 593 156 536 156 488 c 0
 156 411 214 381 264 342 c 0
 314 303 382 268 382 181 c 0
 382 64 262 -8 168 -8 c 0
 115 -8 68 14 30 32 c 1
 18 83 16 162 18 173 c 1
 21 177 35 178 42 178 c 0
 47 178 49 177 51 173 c 1
 51 121 86 25 182 25 c 0
 237 25 298 63 298 138 c 0
 298 206 256 232 209 270 c 0
 152 315 82 350 82 447 c 0
 82 555 193 626 280 626 c 0xf8
117 -51 m 17
 109 -51 86 -49 87 -42 c 9
 334 667 l 17
 341 667 365 667 364 660 c 9
 117 -51 l 17
EndSplineSet
EndChar

StartChar: percent
Encoding: 37 37 4
Width: 615
VWidth: 0
Flags: W
HStem: -8 27<372 441> 293 26<409 477> 330 27<165 234> 628 20G<601 611> 631 26<202 270>
VStem: 72 62<381 546> 279 62<43 208> 297 63<441 609> 504 63<103 272>
LayerCount: 2
Fore
SplineSet
447 293 m 3xe680
 385 293 341 205 341 129 c 27
 341 79 357 20 404 20 c 3
 466 20 504 113 504 190 c 27
 504 236 491 293 447 293 c 3xe680
457 319 m 3
 532 319 567 256 567 190 c 3
 567 96 489 -8 393 -8 c 3
 319 -8 279 54 279 120 c 3
 279 216 357 319 457 319 c 3
240 631 m 3xed80
 178 631 134 543 134 467 c 27
 134 417 150 357 197 357 c 3
 259 357 297 451 297 528 c 27
 297 574 284 631 240 631 c 3xed80
250 657 m 3
 325 657 360 594 360 528 c 3
 360 434 282 330 186 330 c 3
 112 330 72 392 72 458 c 3
 72 554 150 657 250 657 c 3
632 635 m 9
 50 0 l 2
 46 -4 31 -12 17 -12 c 27
 10 -12 4 -9 2 -1 c 9
 584 637 l 2
 588 641 595 647 605 647 c 27xf480
 617 647 628 645 632 635 c 9
EndSplineSet
EndChar

StartChar: ampersand
Encoding: 38 38 5
Width: 762
UnlinkRmOvrlpSave: 1
Flags: W
HStem: -5 31<320 462> 482 41<316 431>
VStem: -7 49<97 176> 399 91<373 475> 421 36<127 203> 583 62<143 232> 720 41<425 519>
LayerCount: 2
Fore
SplineSet
408 523 m 27xee
 453 523 490 486 490 441 c 27
 490 293 242 236 181 222 c 0
 113 207 42 191 42 150 c 3
 42 132 54 127 62 120 c 0
 71 112 80 104 80 88 c 3
 80 60 60 46 37 46 c 27
 27 46 20 47 13 51 c 1
 0 62 -7 88 -7 104 c 0
 -7 165 31 212 100 232 c 0
 176 253 399 306 399 425 c 3xf6
 399 459 387 482 350 482 c 3
 283 482 216 385 216 249 c 3
 216 100 283 26 400 26 c 3
 490 26 583 97 583 188 c 0
 583 205 574 226 568 232 c 1
 519 216 457 185 457 142 c 3
 457 133 458 125 461 120 c 1
 457 118 446 119 441 125 c 1
 430 134 421 157 421 181 c 3
 421 225 461 255 533 286 c 0
 622 324 729 392 720 529 c 1
 729 530 736 524 739 521 c 1
 751 498 761 471 761 430 c 3
 761 352 707 291 639 258 c 1
 643 250 645 238 645 223 c 0
 645 106 513 -5 369 -5 c 0
 241 -5 136 55 136 219 c 3
 136 362 249 523 408 523 c 27xee
EndSplineSet
EndChar

StartChar: quotesingle
Encoding: 39 39 6
Width: 176
VWidth: 0
Flags: W
HStem: 424 258<135 141>
VStem: 105 93<544 658>
LayerCount: 2
Fore
SplineSet
170 682 m 27
 197 682 208 676 197 618 c 0
 186 563 159 503 140 438 c 0
 137 428 126 424 119 424 c 0
 112 424 104 429 105 437 c 0
 114 525 105 576 105 621 c 1
 108 639 135 682 170 682 c 27
EndSplineSet
EndChar

StartChar: parenleft
Encoding: 40 40 7
Width: 253
VWidth: 0
Flags: W
VStem: 47 229
LayerCount: 2
Fore
SplineSet
270 730 m 1
 275 728 277 722 277 718 c 1
 216 649 84 408 105 160 c 0
 117 22 148 -52 198 -106 c 1
 198 -109 198 -116 193 -118 c 1
 135 -97 62 4 47 173 c 0
 22 463 192 660 270 730 c 1
EndSplineSet
Substitution2: "'smcp' Lowercase to Small Capitals in Latin lookup 3-1" parenleft.sc
EndChar

StartChar: parenright
Encoding: 41 41 8
Width: 253
VWidth: 0
Flags: W
VStem: -5 229
LayerCount: 2
Fore
SplineSet
2 -118 m 1
 -3 -116 -6 -109 -5 -105 c 1
 56 -36 188 204 167 452 c 0
 155 590 124 665 74 719 c 1
 74 722 74 728 79 730 c 1
 137 709 210 608 225 439 c 0
 250 149 80 -48 2 -118 c 1
EndSplineSet
Substitution2: "'smcp' Lowercase to Small Capitals in Latin lookup 3-1" parenright.sc
EndChar

StartChar: asterisk
Encoding: 42 42 9
Width: 390
Flags: W
HStem: 422 66<69 162> 455 47<240 262> 462 20<182 221> 629 20G<198 221>
VStem: 157 62<298 373> 221 163<400 460> 223 40<482 503>
LayerCount: 2
Fore
SplineSet
250 502 m 0x5a
 274 502 320 618 370 618 c 0
 384 618 393 609 393 595 c 0
 393 539 263 510 263 479 c 0x5a
 263 453 384 462 384 409 c 0
 384 390 368 374 348 374 c 0
 306 374 273 455 249 455 c 0x5c
 227 455 238 389 220 333 c 0
 211 304 194 291 180 291 c 0
 167 291 157 301 157 318 c 0
 157 357 221 428 221 453 c 0
 221 458 219 462 212 462 c 0x3c
 191 462 129 422 92 422 c 0
 75 422 62 429 62 445 c 0
 62 458 69 488 122 488 c 0x9c
 150 488 178 481 198 481 c 0x3c
 219 481 223 491 223 498 c 0
 223 521 173 566 173 608 c 0
 173 632 189 648 206 648 c 0
 236 648 238 605 238 566 c 0
 238 560 236 502 250 502 c 0x5a
EndSplineSet
EndChar

StartChar: plus
Encoding: 43 43 10
Width: 443
Flags: W
HStem: 212 42<19 190 245 414>
LayerCount: 2
Fore
SplineSet
22 212 m 2
 19 212 18 215 18 220 c 0
 18 233 20 241 30 254 c 1
 198 254 l 1
 230 425 l 2
 233 438 267 440 271 440 c 0
 279 440 280 437 279 433 c 2
 245 254 l 1
 412 254 l 2
 414 254 415 251 415 246 c 0
 415 233 414 224 403 212 c 1
 237 212 l 1
 203 38 l 2
 201 28 185 22 169 22 c 0
 159 22 155 26 155 30 c 2
 190 212 l 1
 22 212 l 2
EndSplineSet
EndChar

StartChar: comma
Encoding: 44 44 11
Width: 195
VWidth: 0
Flags: W
HStem: -106 232
VStem: 22 84<0 117>
LayerCount: 2
Fore
SplineSet
-27 -87 m 1
 -14 -81 39 -47 39 -2 c 0
 39 46 22 45 22 77 c 0
 22 107 48 126 76 126 c 0
 88 126 100 121 104 116 c 1
 106 111 106 96 106 93 c 0
 106 50 95 13 71 -27 c 0
 44 -72 4 -99 -14 -106 c 1
 -18 -106 -27 -95 -27 -87 c 1
EndSplineSet
EndChar

StartChar: hyphen
Encoding: 45 45 12
Width: 362
VWidth: 0
Flags: W
VStem: 52 248<205 255>
LayerCount: 2
Fore
SplineSet
72 255 m 2
 294 267 l 2
 299 267 300 260 300 255 c 0
 300 242 287 206 277 205 c 10
 57 194 l 2
 54 194 52 201 52 209 c 0
 52 220 61 254 72 255 c 2
EndSplineSet
EndChar

StartChar: period
Encoding: 46 46 13
Width: 203
VWidth: 0
Flags: W
HStem: -14 113<27 95>
VStem: 8 107<6 81>
LayerCount: 2
Fore
SplineSet
8 32 m 0
 8 68 41 100 73 100 c 0
 98 100 115 81 115 56 c 0
 115 20 83 -14 51 -14 c 0
 26 -14 8 6 8 32 c 0
EndSplineSet
Substitution2: "'smcp' Lowercase to Small Capitals in Latin lookup 3-1" period.sc
EndChar

StartChar: slash
Encoding: 47 47 14
Width: 373
VWidth: 0
Flags: HW
LayerCount: 2
Fore
SplineSet
440 737 m 1
 26 -12 l 2
 23 -17 2 -33 -20 -33 c 0
 -24 -33 -30 -29 -31 -27 c 9
 384 722 l 2
 389 730 411 743 429 743 c 0
 435 743 438 740 440 737 c 1
EndSplineSet
Substitution2: "'smcp' Lowercase to Small Capitals in Latin lookup 3-1" slash.sc
EndChar

StartChar: zero
Encoding: 48 48 15
Width: 487
Flags: W
HStem: -3 34<150 233> 592 34<256 339>
LayerCount: 2
Fore
SplineSet
126 312 m 0
 96 159 119 31 186 31 c 0
 267 31 333 164 363 317 c 0
 393 470 370 592 303 592 c 0
 227 592 156 465 126 312 c 0
46 312 m 0
 79 482 180 626 305 626 c 0
 432 626 474 482 441 312 c 0
 408 142 308 -3 183 -3 c 0
 60 -3 13 142 46 312 c 0
EndSplineSet
Substitution2: "'pnum' Proportional Numbers lookup 12-1" zero.prop
Substitution2: "'onum' Oldstyle Figures in Latin lookup 5-1" zero.onum
EndChar

StartChar: one
Encoding: 49 49 16
Width: 487
Flags: W
HStem: -3 28<110 175 273 323> 607 20G<368 374>
VStem: 108 271
LayerCount: 2
Fore
SplineSet
201 521 m 1
 194 525 191 534 192 541 c 0
 192 543 192 546 195 547 c 0
 286 590 366 627 369 627 c 2
 371 627 l 2
 377 627 379 613 379 608 c 1
 379 608 364 577 352 517 c 2
 277 132 l 2
 271 100 267 71 268 45 c 0
 269 34 317 25 324 25 c 0
 327 25 325 15 324 8 c 0
 323 3 322 -1 321 -3 c 1
 285 -1 250 2 214 2 c 0
 178 2 145 -1 108 -3 c 1
 104 2 109 25 114 25 c 0
 125 25 177 34 182 45 c 0
 191 65 193 82 197 101 c 2
 266 452 l 2
 278 511 283 541 264 541 c 0
 257 541 219 530 201 521 c 1
EndSplineSet
Substitution2: "'pnum' Proportional Numbers lookup 12-1" one.prop
Substitution2: "'onum' Oldstyle Figures in Latin lookup 5-1" one.onum
EndChar

StartChar: two
Encoding: 50 50 17
Width: 487
Flags: W
HStem: 0 71<127 358> 563 63<249 349>
VStem: 374 87<402 537>
LayerCount: 2
Fore
SplineSet
461 500 m 0
 461 411 415 349 346 279 c 0
 264 195 125 71 127 71 c 9
 293 71 l 2
 346 71 377 103 396 144 c 0
 398 149 402 152 408 152 c 0
 412 152 424 148 425 146 c 1
 400 98 358 18 350 0 c 9
 350 0 39 0 32 0 c 1
 30 2 26 9 26 15 c 1
 80 64 219 207 277 272 c 0
 343 347 374 409 374 475 c 0
 374 530 342 563 294 563 c 0
 222 563 163 499 148 479 c 1
 141 479 134 491 135 495 c 1
 146 519 231 627 326 627 c 0
 397 627 461 576 461 500 c 0
EndSplineSet
Substitution2: "'pnum' Proportional Numbers lookup 12-1" two.prop
Substitution2: "'onum' Oldstyle Figures in Latin lookup 5-1" two.onum
EndChar

StartChar: three
Encoding: 51 51 18
Width: 487
Flags: W
HStem: -5 39<145 243> 310 30<186 238> 574 53<256 348>
VStem: 342 83<153 286> 366 71<455 557>
LayerCount: 2
Fore
SplineSet
339 627 m 0xe8
 385 627 438 593 438 521 c 0xe8
 438 457 375 398 324 370 c 1
 379 363 425 297 425 238 c 0
 425 88 246 -5 160 -5 c 0
 113 -5 80 4 58 20 c 1
 54 25 49 36 49 47 c 0
 49 76 69 104 90 104 c 0
 122 104 127 75 141 58 c 0
 158 37 179 34 203 34 c 0
 259 34 342 104 342 214 c 0xf0
 342 279 307 319 247 319 c 0
 227 319 201 313 189 310 c 1
 186 315 186 318 186 323 c 0
 186 327 186 337 188 340 c 1
 266 354 366 415 366 501 c 0
 366 555 332 574 291 574 c 0
 233 574 193 523 183 516 c 1
 177 516 176 530 178 539 c 1
 215 584 268 627 339 627 c 0xe8
EndSplineSet
Substitution2: "'pnum' Proportional Numbers lookup 12-1" three.prop
Substitution2: "'onum' Oldstyle Figures in Latin lookup 5-1" three.onum
EndChar

StartChar: four
Encoding: 52 52 19
Width: 487
Flags: W
HStem: -6 21G<281 310> 170 56<102 293 378 438> 609 20G<437 445>
LayerCount: 2
Fore
SplineSet
440 629 m 0
 449 629 455 619 453 611 c 2
 378 226 l 25
 433 226 l 18
 439 226 442 207 438 186 c 0
 436 177 433 173 431 170 c 1
 367 170 l 25
 334 -1 l 1
 334 -1 327 -6 292 -6 c 0
 271 -6 259 -5 260 2 c 2
 293 170 l 25
 37 170 l 1
 31 174 31 182 32 188 c 1
 408 604 l 2
 415 612 433 629 440 629 c 0
359 512 m 25
 102 226 l 25
 304 226 l 25
 359 512 l 25
EndSplineSet
Substitution2: "'pnum' Proportional Numbers lookup 12-1" four.prop
Substitution2: "'onum' Oldstyle Figures in Latin lookup 5-1" four.onum
EndChar

StartChar: five
Encoding: 53 53 20
Width: 487
Flags: W
HStem: -5 39<132 230> 324 62<174 288> 538 78<220 416> 609 20G<423 443>
VStem: 329 83<156 285>
LayerCount: 2
Fore
SplineSet
412 241 m 0xe8
 412 91 234 -5 147 -5 c 0
 100 -5 67 4 45 20 c 1
 41 25 36 36 36 47 c 0
 36 76 56 104 77 104 c 0
 109 104 114 75 128 58 c 0
 145 37 166 34 190 34 c 0
 246 34 329 104 329 214 c 0
 329 249 316 324 211 324 c 3
 191 324 157 318 138 312 c 1
 135 314 128 320 124 325 c 1
 168 454 197 575 212 616 c 1xe8
 276 618 406 621 440 629 c 1xd8
 446 626 450 620 450 616 c 0
 450 599 428 562 418 548 c 1
 374 538 242 541 227 538 c 1
 223 531 193 420 174 368 c 1
 194 376 245 386 269 386 c 0
 367 386 412 306 412 241 c 0xe8
EndSplineSet
Substitution2: "'pnum' Proportional Numbers lookup 12-1" five.prop
Substitution2: "'onum' Oldstyle Figures in Latin lookup 5-1" five.onum
EndChar

StartChar: six
Encoding: 54 54 21
Width: 487
VWidth: 0
Flags: W
HStem: -6 32<156 240> 325 46<215 296> 608 20G<382 441>
VStem: 40 80<69 285> 327 78<140 294>
LayerCount: 2
Fore
SplineSet
278 371 m 0
 353 371 405 304 405 225 c 0
 405 112 290 -6 184 -6 c 0
 98 -6 40 60 40 169 c 0
 40 245 76 356 161 453 c 0
 218 517 325 589 438 628 c 1
 444 628 446 610 445 604 c 1
 333 556 220 480 161 342 c 0
 128 264 120 210 120 156 c 0
 120 96 138 26 195 26 c 0
 248 26 327 104 327 219 c 0
 327 280 300 325 233 325 c 0
 210 325 196 317 187 312 c 1
 184 314 181 317 181 321 c 3
 181 333 245 371 278 371 c 0
EndSplineSet
Substitution2: "'pnum' Proportional Numbers lookup 12-1" six.prop
Substitution2: "'onum' Oldstyle Figures in Latin lookup 5-1" six.onum
EndChar

StartChar: seven
Encoding: 55 55 22
Width: 487
Flags: W
HStem: -6 21G<58 67> 544 74<114 384>
LayerCount: 2
Fore
SplineSet
27 14 m 1
 156 176 384 544 384 544 c 1
 157 544 l 2
 121 544 95 500 77 469 c 0
 76 467 73 466 70 466 c 0
 63 466 55 468 50 471 c 1
 66 508 104 584 114 618 c 9
 394 618 l 2
 417 618 449 621 455 621 c 0
 461 621 460 617 459 612 c 0
 456 599 438 574 420 547 c 2
 74 -3 l 1
 72 -5 69 -6 64 -6 c 0
 50 -6 25 5 27 14 c 1
EndSplineSet
Substitution2: "'pnum' Proportional Numbers lookup 12-1" seven.prop
Substitution2: "'onum' Oldstyle Figures in Latin lookup 5-1" seven.onum
EndChar

StartChar: eight
Encoding: 56 56 23
Width: 487
Flags: W
HStem: -9 35<151 256> 594 34<262 348>
LayerCount: 2
Fore
SplineSet
318 628 m 0
 399 628 456 572 438 479 c 0
 425 414 356 364 309 336 c 1
 305 335 306 332 308 330 c 0
 356 297 409 233 395 163 c 0
 376 65 279 -9 188 -9 c 0
 88 -9 31 55 50 150 c 0
 67 236 158 287 198 311 c 0
 201 313 202 315 200 316 c 0
 167 340 123 397 137 469 c 0
 154 552 238 628 318 628 c 0
307 594 m 0
 263 594 220 548 206 480 c 0
 194 419 246 376 276 355 c 0
 278 354 279 354 281 354 c 0
 283 354 284 353 287 355 c 0
 329 381 361 421 372 475 c 0
 383 532 362 594 307 594 c 0
196 26 m 0
 256 26 302 69 315 135 c 0
 331 216 240 280 229 288 c 0
 227 289 227 290 224 290 c 0
 223 290 221 290 220 289 c 0
 163 255 134 215 122 153 c 0
 106 73 148 26 196 26 c 0
EndSplineSet
Substitution2: "'pnum' Proportional Numbers lookup 12-1" eight.prop
Substitution2: "'onum' Oldstyle Figures in Latin lookup 5-1" eight.onum
EndChar

StartChar: nine
Encoding: 57 57 24
Width: 487
VWidth: 0
Flags: W
HStem: -6 21G<44 104> 251 46<190 270> 596 32<246 329>
VStem: 80 78<328 482> 365 80<337 553>
LayerCount: 2
Fore
SplineSet
207 251 m 0
 132 251 80 318 80 397 c 0
 80 510 196 628 302 628 c 0
 388 628 445 562 445 453 c 0
 445 377 409 266 324 169 c 0
 267 105 160 33 47 -6 c 1
 41 -6 39 13 40 19 c 1
 152 67 265 142 324 280 c 0
 357 358 365 412 365 466 c 0
 365 526 347 596 290 596 c 0
 237 596 158 518 158 403 c 0
 158 342 185 297 252 297 c 0
 275 297 290 306 299 311 c 1
 302 309 305 305 305 301 c 3
 305 289 240 251 207 251 c 0
EndSplineSet
Substitution2: "'pnum' Proportional Numbers lookup 12-1" nine.prop
Substitution2: "'onum' Oldstyle Figures in Latin lookup 5-1" nine.onum
EndChar

StartChar: colon
Encoding: 58 58 25
Width: 230
VWidth: 0
Flags: W
HStem: -14 117<39 108> 311 117<101 171>
VStem: 19 110<7 83> 81 111<331 407>
LayerCount: 2
Fore
SplineSet
81 358 m 0xd0
 81 395 115 428 148 428 c 0
 174 428 192 408 192 382 c 0
 192 345 159 311 126 311 c 0
 100 311 81 331 81 358 c 0xd0
19 33 m 0xe0
 19 70 52 104 85 104 c 0
 111 104 129 83 129 57 c 0
 129 20 95 -14 62 -14 c 0
 36 -14 19 7 19 33 c 0xe0
EndSplineSet
Substitution2: "'smcp' Lowercase to Small Capitals in Latin lookup 3-1" colon.sc
EndChar

StartChar: semicolon
Encoding: 59 59 26
Width: 246
VWidth: 0
Flags: W
HStem: -106 232 311 117<117 187>
VStem: 33 84<0 117> 97 111<331 407>
LayerCount: 2
Fore
SplineSet
97 358 m 0xd0
 97 395 131 428 164 428 c 0
 190 428 208 408 208 382 c 0
 208 345 175 311 142 311 c 0
 116 311 97 331 97 358 c 0xd0
EndSplineSet
Refer: 11 44 N 1 0 0 1 11 0 2
Substitution2: "'smcp' Lowercase to Small Capitals in Latin lookup 3-1" semicolon.sc
EndChar

StartChar: less
Encoding: 60 60 27
Width: 436
VWidth: 0
Flags: HW
LayerCount: 2
Fore
SplineSet
85 204 m 1
 353 40 l 1
 353 40 354 39 354 35 c 0
 354 22 335 -14 330 -14 c 0
 329 -14 328 -14 326 -13 c 2
 21 173 l 2
 15 177 12 186 12 198 c 0
 12 212 17 226 34 235 c 2
 406 418 l 2
 408 419 409 419 410 419 c 0
 413 419 417 399 417 385 c 0
 417 382 416 367 412 365 c 2
 85 204 l 1
EndSplineSet
Substitution2: "'smcp' Lowercase to Small Capitals in Latin lookup 3-1" less.sc
EndChar

StartChar: equal
Encoding: 61 61 28
Width: 546
VWidth: 0
Flags: W
HStem: 114 55<42 450> 253 55<70 477>
LayerCount: 2
Fore
SplineSet
38 114 m 1
 38 114 33 114 33 120 c 0
 33 123 47 169 56 169 c 2
 462 169 l 18
 467 169 468 166 468 164 c 0
 468 159 458 139 450 120 c 1
 446 114 443 114 443 114 c 1
 38 114 l 1
65 253 m 1
 65 253 62 253 62 259 c 0
 62 260 74 308 83 308 c 2
 488 308 l 2
 493 308 494 305 494 303 c 0
 494 298 486 278 478 259 c 0
 475 253 470 253 470 253 c 1
 65 253 l 1
EndSplineSet
Substitution2: "'smcp' Lowercase to Small Capitals in Latin lookup 3-1" equal.sc
EndChar

StartChar: greater
Encoding: 62 62 29
Width: 437
VWidth: 0
Flags: HW
LayerCount: 2
Fore
SplineSet
331 204 m 1
 65 365 l 1
 65 365 63 366 63 369 c 0
 63 376 84 420 89 420 c 0
 90 420 91 419 93 418 c 2
 393 235 l 2
 400 231 404 225 404 216 c 0
 404 213 402 184 381 173 c 2
 5 -13 l 2
 3 -14 1 -15 -1 -15 c 0
 -6 -15 -7 4 -7 32 c 0
 -7 37 -2 40 -2 40 c 1
 331 204 l 1
EndSplineSet
Substitution2: "'smcp' Lowercase to Small Capitals in Latin lookup 3-1" greater.sc
EndChar

StartChar: question
Encoding: 63 63 30
Width: 312
VWidth: 0
Flags: W
HStem: -14 113<58 126> 568 48<178 260>
VStem: 39 107<7 81> 64 68<225 306> 271 50<456 557>
LayerCount: 2
Fore
SplineSet
39 31 m 0xe8
 39 68 71 100 103 100 c 0
 128 100 146 80 146 55 c 0
 146 19 112 -14 80 -14 c 0
 55 -14 39 6 39 31 c 0xe8
171 192 m 1
 171 188 166 180 161 177 c 1
 138 177 64 221 64 276 c 3
 64 317 87 339 112 357 c 0
 158 388 182 405 226 436 c 16
 246 450 271 473 271 510 c 3
 271 548 249 568 220 568 c 0
 177 568 177 523 140 523 c 0
 112 523 106 556 106 574 c 1
 111 589 153 616 190 616 c 0
 263 616 320 551 320 490 c 0
 320 449 309 418 277 389 c 0
 253 367 216 348 165 313 c 0
 141 296 133 281 133 255 c 27xd8
 133 227 160 200 171 192 c 1
EndSplineSet
Substitution2: "'smcp' Lowercase to Small Capitals in Latin lookup 3-1" question.sc
EndChar

StartChar: at
Encoding: 64 64 31
Width: 741
VWidth: 0
Flags: W
HStem: -6 35<433 526> -5 57<227 306> 386 39<368 467> 529 34<310 498>
VStem: 28 37<45 259> 168 72<64 214> 641 41<167 382>
LayerCount: 2
Fore
SplineSet
411 563 m 3xbe
 592 563 682 432 682 275 c 0
 682 74 537 -6 457 -6 c 0xbe
 409 -6 389 28 389 57 c 0
 389 65 390 75 394 96 c 0
 398 115 397 120 398 127 c 1
 377 89 311 -5 254 -5 c 3x7e
 200 -5 168 44 168 112 c 3
 168 268 316 425 450 425 c 0
 484 425 502 419 521 412 c 9
 459 103 l 2
 449 56 462 29 485 29 c 3
 558 29 641 159 641 261 c 0
 641 423 558 529 403 529 c 3
 238 529 65 371 65 137 c 0
 65 59 104 -16 156 -57 c 0
 173 -71 192 -81 201 -85 c 1
 195 -90 189 -92 170 -92 c 0
 146 -92 111 -64 98 -48 c 0
 46 14 28 75 28 138 c 0
 28 384 208 563 411 563 c 3xbe
403 386 m 3
 328 386 240 258 240 146 c 0
 240 85 256 52 290 52 c 3x7e
 339 52 408 173 427 267 c 2
 447 371 l 17
 438 381 416 386 403 386 c 3
EndSplineSet
Substitution2: "'smcp' Lowercase to Small Capitals in Latin lookup 3-1" at.sc
EndChar

StartChar: A
Encoding: 65 65 32
Width: 572
Flags: W
HStem: -3 28<-51 2 77 131 329 382 489 537> 250 32<188 359> 628 20G<373 378>
LayerCount: 2
Fore
SplineSet
333 25 m 1
 368 25 389 36 389 56 c 0
 389 66 389 85 386 104 c 2
 364 250 l 1
 170 250 l 1
 137 190 109 139 100 122 c 0
 82 88 72 64 72 49 c 0
 72 28 125 25 132 25 c 1
 134 22 131 3 128 -3 c 1
 92 -1 82 2 42 2 c 0
 0 2 -12 -1 -54 -3 c 1
 -56 0 -52 18 -48 25 c 1
 -37 25 -5 31 7 44 c 0
 31 69 48 101 68 136 c 2
 337 619 l 2
 346 635 368 647 376 647 c 0
 379 647 380 646 381 645 c 1
 465 123 l 2
 471 86 476 61 477 57 c 0
 483 29 531 25 538 25 c 1
 541 18 537 0 535 -3 c 1
 499 -1 468 2 428 2 c 0
 386 2 369 -1 327 -3 c 1
 323 2 327 20 333 25 c 1
188 282 m 1
 359 282 l 1
 321 522 l 1
 188 282 l 1
EndSplineSet
EndChar

StartChar: B
Encoding: 66 66 33
Width: 552
Flags: W
HStem: -3 28<-3 66 160 299> 331 30<213 342> 615 28<118 176 247 375>
VStem: 399 93<130 290> 423 86<444 579>
LayerCount: 2
Fore
SplineSet
213 361 m 1xe8
 305 361 l 2
 370 361 423 427 423 510 c 0
 423 565 396 615 312 615 c 0
 301 615 269 614 264 605 c 0
 257 593 251 561 246 532 c 2
 213 361 l 1xe8
206 331 m 1
 163 111 l 2
 160 97 153 49 158 42 c 0
 169 26 193 25 226 25 c 0
 326 25 399 94 399 215 c 0xf0
 399 244 402 331 262 331 c 2
 206 331 l 1
228 642 m 0
 263 642 303 644 357 644 c 0
 440 644 509 608 509 524 c 0xe8
 509 426 431 378 392 357 c 1
 436 353 492 301 492 221 c 0
 492 88 370 -3 205 -3 c 0
 -4 -3 l 1
 -8 2 -4 20 1 25 c 1
 12 25 62 30 67 41 c 0
 75 57 79 84 85 113 c 2
 166 530 l 2
 172 559 177 588 176 603 c 0
 176 615 128 618 117 618 c 1
 114 623 116 641 122 646 c 1
 159 644 193 642 228 642 c 0
EndSplineSet
EndChar

StartChar: C
Encoding: 67 67 34
Width: 629
Flags: W
HStem: -8 28<278 423> 620 30<344 493>
VStem: 58 93<154 387> 571 30<478 548>
LayerCount: 2
Fore
SplineSet
556 169 m 1
 569 169 583 161 583 161 c 1
 579 141 528 39 513 27 c 1
 460 0 406 -8 322 -8 c 0
 164 -8 58 114 58 259 c 0
 58 505 251 654 454 650 c 0
 511 649 563 637 611 625 c 1
 609 590 605 509 602 482 c 0
 602 479 598 478 594 478 c 1
 588 478 579 478 571 482 c 1
 576 560 508 620 426 620 c 0
 274 620 149 487 150 275 c 0
 150 159 204 21 350 21 c 0
 450 21 514 89 556 169 c 1
EndSplineSet
EndChar

StartChar: D
Encoding: 68 68 35
Width: 667
Flags: W
HStem: -3 28<-3 66 156 315> 616 25<118 176 264 414>
LayerCount: 2
Fore
SplineSet
246 533 m 2
 163 109 l 2
 160 95 152 45 155 39 c 0
 160 28 194 25 227 25 c 0
 367 25 500 116 537 306 c 0
 580 527 479 616 330 616 c 0
 319 616 269 615 264 605 c 0
 256 589 251 561 246 533 c 2
360 643 m 0
 570 643 665 507 630 326 c 0
 598 160 488 -2 223 -3 c 1
 -4 -3 l 1
 -8 2 -4 20 1 25 c 1
 12 25 62 30 67 41 c 0
 75 57 79 84 85 113 c 2
 166 530 l 2
 172 559 178 587 176 603 c 0
 175 614 128 618 117 618 c 1
 114 623 116 641 122 646 c 1
 159 644 193 642 228 642 c 0
 263 642 320 643 360 643 c 0
EndSplineSet
EndChar

StartChar: E
Encoding: 69 69 36
Width: 541
Flags: W
HStem: 0 29<-2 67 155 349> 309 32<210 361> 615 26<118 175 264 457>
VStem: 374 28<225 265> 493 28<511 577>
LayerCount: 2
Back
SplineSet
407.2265625 615.234375 m 1
 329.1015625 615.234375 l 2
 289.713867188 615.234375 268.229492188 611.653320312 264.6484375 604.4921875 c 0
 257.8125 590.8203125 251.301757812 567.3828125 245.1171875 534.1796875 c 1024
EndSplineSet
Fore
SplineSet
228 642 m 0
 313 642 422 648 521 648 c 1
 518 599 521 560 521 516 c 1
 518 513 511 511 504 511 c 0
 497 511 493 513 493 518 c 0
 488 596 455 615 407 615 c 2
 329 615 l 2
 318 615 270 614 265 604 c 0
 257 588 250 560 245 534 c 2
 209 347 l 2
 208 342 227 341 247 341 c 2
 295 341 l 2
 382 341 380 347 408 411 c 0
 410 416 417 418 424 418 c 0
 431 418 436 416 438 413 c 1
 402 229 l 1
 400 227 394 225 387 225 c 0
 380 225 375 227 374 232 c 0
 371 288 368 295 361 301 c 0
 352 308 301 309 267 309 c 0
 242 309 201 309 199 300 c 2
 161 106 l 2
 158 91 149 44 154 39 c 0
 164 29 179 29 217 29 c 2
 260 29 l 2
 310 29 350 39 381 60 c 0
 407 78 433 106 457 158 c 0
 459 162 465 164 472 164 c 0
 481 164 491 161 493 158 c 1
 466 105 427 39 412 -4 c 1
 313 -4 225 0 104 0 c 0
 61 0 30 -3 -5 -3 c 1
 -9 2 -5 20 0 25 c 1
 11 25 61 30 66 41 c 0
 74 57 79 84 85 113 c 2
 166 530 l 2
 172 559 177 587 175 603 c 0
 174 614 126 618 115 618 c 1
 112 623 115 641 121 646 c 1
 158 644 193 642 228 642 c 0
EndSplineSet
EndChar

StartChar: F
Encoding: 70 70 37
Width: 496
Flags: W
HStem: -3 28<-4 65 155 221> 309 32<210 361> 615 26<118 175 264 457>
VStem: 374 28<225 265> 493 28<511 577>
LayerCount: 2
Fore
SplineSet
228 642 m 0
 313 642 422 648 521 648 c 1
 518 599 521 560 521 516 c 1
 518 513 511 511 504 511 c 0
 497 511 493 513 493 518 c 0
 488 596 455 615 407 615 c 2
 329 615 l 2
 318 615 270 614 265 604 c 0
 257 588 250 560 245 534 c 2
 209 347 l 2
 208 342 227 341 247 341 c 2
 295 341 l 2
 382 341 380 347 408 411 c 0
 410 416 417 418 424 418 c 0
 431 418 436 416 438 413 c 1
 402 229 l 1
 400 227 394 225 387 225 c 0
 380 225 375 227 374 232 c 0
 371 288 368 295 361 301 c 0
 352 308 301 309 267 309 c 0
 242 309 201 309 199 300 c 2
 163 113 l 2
 157 84 152 57 154 41 c 0
 155 30 212 25 223 25 c 1
 226 20 223 2 217 -3 c 1
 180 -1 138 2 103 2 c 0
 60 2 30 -3 -5 -3 c 1
 -9 2 -5 20 0 25 c 1
 11 25 61 30 66 41 c 0
 74 57 79 84 85 113 c 2
 166 530 l 2
 172 559 177 587 175 603 c 0
 174 614 126 618 115 618 c 1
 112 623 115 641 121 646 c 1
 158 644 193 642 228 642 c 0
EndSplineSet
EndChar

StartChar: G
Encoding: 71 71 38
Width: 680
Flags: W
HStem: -8 28<276 418> 259 28<432 495 583 648> 620 30<344 493>
VStem: 58 93<156 387> 495 57<110 131> 571 30<478 549>
LayerCount: 2
Fore
SplineSet
571 482 m 1
 576 560 508 620 426 620 c 0
 274 620 149 487 150 275 c 0
 150 159 205 21 347 21 c 0
 394 21 435 40 456 54 c 0
 461 58 465 63 466 70 c 0
 471 96 485 171 485 171 c 2
 491 200 497 227 495 243 c 0
 494 254 442 259 431 259 c 1
 428 264 430 282 436 287 c 1
 473 285 506 282 541 282 c 0
 576 282 610 285 648 287 c 1
 652 282 650 264 645 259 c 1
 634 259 587 254 582 243 c 0
 574 227 569 200 563 171 c 2
 550 102 l 2
 546 81 552 76 552 66 c 0
 552 60 547 54 530 45 c 0
 485 22 436 -8 316 -8 c 0
 166 -8 58 114 58 259 c 0
 58 505 251 654 454 650 c 0
 511 649 563 637 611 625 c 1
 609 590 604 511 602 482 c 0
 602 479 598 478 594 478 c 1
 588 478 579 478 571 482 c 1
EndSplineSet
EndChar

StartChar: H
Encoding: 72 72 39
Width: 669
Flags: W
HStem: -3 28<-4 65 154 212 360 429 519 576> 309 39<209 487> 618 28<117 174 264 333 481 538 629 697>
LayerCount: 2
Fore
SplineSet
164 113 m 2
 158 84 152 57 154 41 c 0
 155 30 203 25 214 25 c 1
 217 20 214 2 208 -3 c 1
 171 -1 138 2 103 2 c 0
 68 2 33 -1 -5 -3 c 1
 -9 2 -5 20 -0 25 c 1
 11 25 61 30 66 41 c 0
 74 57 79 84 85 113 c 2
 166 530 l 2
 172 559 176 587 174 603 c 0
 173 614 126 618 115 618 c 1
 112 623 115 641 121 646 c 1
 158 644 192 642 227 642 c 0
 262 642 297 644 335 646 c 1
 339 641 334 623 329 618 c 1
 318 618 268 614 263 603 c 0
 255 587 250 559 245 530 c 2
 209 348 l 1
 494 348 l 1
 530 530 l 2
 535 559 541 587 539 603 c 0
 538 614 490 618 479 618 c 1
 476 623 479 641 485 646 c 1
 522 644 556 642 591 642 c 0
 626 642 661 644 699 646 c 1
 703 641 698 623 693 618 c 1
 682 618 633 614 628 603 c 0
 620 587 615 559 609 530 c 2
 528 113 l 2
 522 84 516 57 518 41 c 0
 519 30 567 25 578 25 c 1
 581 20 578 2 572 -3 c 1
 535 -1 501 2 466 2 c 0
 431 2 397 -1 359 -3 c 1
 355 2 359 20 364 25 c 1
 375 25 425 30 430 41 c 0
 438 57 443 84 449 113 c 2
 487 309 l 1
 202 309 l 1
 164 113 l 2
EndSplineSet
EndChar

StartChar: I
Encoding: 73 73 40
Width: 305
Flags: W
HStem: -3 28<-4 65 154 212> 618 28<117 174 264 333>
LayerCount: 2
Fore
SplineSet
227 642 m 0
 262 642 297 644 335 646 c 1
 339 641 334 623 329 618 c 1
 318 618 268 614 263 603 c 0
 255 587 251 559 245 530 c 2
 164 113 l 2
 158 84 152 57 154 41 c 0
 155 30 203 25 214 25 c 1
 217 20 214 2 208 -3 c 1
 171 -1 138 2 103 2 c 0
 68 2 33 -1 -5 -3 c 1
 -9 2 -5 20 -0 25 c 1
 11 25 61 30 66 41 c 0
 74 57 79 84 85 113 c 2
 166 530 l 2
 172 559 176 587 174 603 c 0
 173 614 126 618 115 618 c 1
 112 623 115 641 121 646 c 1
 158 644 192 642 227 642 c 0
EndSplineSet
EndChar

StartChar: J
Encoding: 74 74 41
Width: 305
Flags: W
HStem: -228 19<-105 -83> 618 28<111 168 258 327>
LayerCount: 2
Fore
SplineSet
160 530 m 2
 165 559 171 587 169 603 c 0
 168 614 120 618 109 618 c 1
 106 623 109 641 115 646 c 1
 152 644 186 642 221 642 c 0
 256 642 291 644 329 646 c 1
 333 641 328 623 323 618 c 1
 312 618 262 614 257 603 c 0
 249 587 244 559 239 530 c 2
 160 113 l 2
 111 -145 -25 -228 -103 -228 c 1
 -105 -225 -105 -220 -105 -215 c 0
 -105 -213 -104 -209 -104 -209 c 1
 5 -175 48 -82 82 106 c 2
 160 530 l 2
EndSplineSet
EndChar

StartChar: K
Encoding: 75 75 42
Width: 599
Flags: W
HStem: -3 28<-3 65 155 213 508 556> 618 28<118 175 264 333 445 486 581 647>
LayerCount: 2
Fore
SplineSet
469 70 m 0
 488 48 510 29 559 25 c 1
 563 20 554 -1 553 -3 c 1
 492 -3 443 1 426 8 c 0
 414 13 394 23 373 50 c 0
 358 71 294 171 216 297 c 0
 215 300 213 300 209 300 c 0
 206 300 202 299 200 298 c 1
 164 113 l 2
 158 84 153 57 155 41 c 0
 156 30 203 25 214 25 c 1
 217 20 215 2 209 -3 c 1
 172 -1 138 2 103 2 c 0
 68 2 34 -1 -4 -3 c 1
 -8 2 -4 20 1 25 c 1
 12 25 61 30 66 41 c 0
 74 57 79 84 85 113 c 2
 166 530 l 2
 172 559 177 587 175 603 c 0
 174 614 127 618 116 618 c 1
 113 623 116 641 122 646 c 1
 159 644 193 642 228 642 c 0
 263 642 297 644 335 646 c 1
 339 641 335 623 330 618 c 1
 319 618 268 614 263 603 c 0
 255 587 251 559 245 530 c 2
 207 332 l 1
 228 345 283 390 328 429 c 0
 414 504 414 502 469 562 c 0
 476 570 486 583 488 593 c 0
 493 617 450 617 442 617 c 1
 440 623 443 637 448 646 c 1
 481 644 517 641 550 641 c 0
 590 641 613 644 650 646 c 1
 651 640 647 617 642 617 c 0
 633 616 584 617 546 581 c 0
 450 489 390 439 295 357 c 0
 288 351 290 347 293 342 c 0
 359 233 413 141 469 70 c 0
EndSplineSet
EndChar

StartChar: L
Encoding: 76 76 43
Width: 517
Flags: W
HStem: 0 29<-1 68 155 348> 618 28<118 176 265 333>
LayerCount: 2
Fore
SplineSet
162 109 m 2
 159 94 149 44 154 39 c 0
 164 29 179 29 217 29 c 2
 269 29 l 2
 303 29 344 39 374 56 c 0
 403 73 433 106 457 158 c 0
 459 162 465 164 472 164 c 0
 481 164 492 161 494 158 c 1
 467 105 428 39 413 -4 c 1
 314 -4 225 0 104 0 c 0
 61 0 31 -3 -4 -3 c 1
 -8 2 -4 20 1 25 c 1
 12 25 62 30 67 41 c 0
 75 57 79 84 85 113 c 2
 166 530 l 2
 172 559 178 587 176 603 c 0
 175 614 128 618 117 618 c 1
 114 623 116 641 122 646 c 1
 159 644 193 642 228 642 c 0
 263 642 297 644 335 646 c 1
 339 641 335 623 330 618 c 1
 319 618 269 614 264 603 c 0
 256 587 251 559 246 530 c 2
 162 109 l 2
EndSplineSet
EndChar

StartChar: M
Encoding: 77 77 44
Width: 818
Flags: W
HStem: -3 28<-20 54 117 181 517 581 676 734> 618 28<129 181 772 837>
LayerCount: 2
Fore
SplineSet
388 48 m 2
 383 39 355 0 344 -2 c 0
 341 -3 339 -1 336 0 c 1
 225 570 l 1
 180 357 118 83 116 73 c 0
 114 64 114 51 115 43 c 0
 118 28 176 25 183 25 c 1
 186 19 181 0 179 -3 c 1
 143 -1 124 2 84 2 c 0
 42 2 19 -1 -23 -3 c 1
 -24 -1 -22 17 -17 25 c 1
 -6 25 48 30 59 43 c 0
 70 56 74 71 79 92 c 0
 133 326 180 541 183 559 c 0
 186 573 189 587 187 598 c 1
 186 610 138 618 127 618 c 1
 125 624 129 643 133 646 c 1
 161 644 185 643 221 643 c 0
 248 643 279 644 300 646 c 1
 306 584 398 136 397 136 c 1
 396 136 617 529 617 529 c 2
 642 574 680 646 680 646 c 1
 708 644 730 643 748 643 c 0
 780 643 815 644 838 646 c 1
 838 643 836 618 836 618 c 1
 823 618 775 611 768 601 c 1
 763 592 758 575 756 563 c 2
 682 137 l 2
 675 99 671 65 675 42 c 0
 677 28 728 25 735 25 c 1
 738 16 734 0 732 -3 c 1
 696 -1 664 2 624 2 c 0
 582 2 556 -1 514 -3 c 1
 513 -1 515 17 520 25 c 1
 531 25 568 29 581 36 c 0
 588 40 594 63 597 77 c 0
 600 91 644 367 674 553 c 17
 661 532 388 48 388 48 c 2
EndSplineSet
EndChar

StartChar: N
Encoding: 78 78 45
Width: 714
Flags: W
HStem: -3 28<-9 60 135 192> 618 28<112 175 551 611 684 754>
LayerCount: 2
Fore
SplineSet
613 528 m 2
 620 563 622 583 616 599 c 0
 611 613 566 618 551 618 c 1
 548 625 551 641 554 646 c 1
 590 644 613 643 653 643 c 0
 695 643 713 644 755 646 c 1
 757 641 758 629 751 618 c 1
 740 618 687 612 678 600 c 0
 667 585 663 570 656 533 c 2
 579 136 l 2
 568 79 563 50 555 -1 c 1
 552 -4 541 -5 538 -5 c 0
 530 -5 519 4 512 18 c 2
 219 556 l 1
 133 112 l 2
 126 77 123 61 129 45 c 0
 133 35 179 25 194 25 c 1
 197 18 193 3 190 -3 c 1
 154 -1 129 2 89 2 c 0
 47 2 30 -1 -12 -3 c 1
 -14 2 -13 14 -6 25 c 1
 5 25 59 33 68 45 c 0
 79 60 84 74 91 111 c 2
 173 535 l 2
 180 572 182 587 177 602 c 0
 173 614 121 618 110 618 c 1
 107 629 111 641 115 646 c 1
 156 644 168 643 198 643 c 0
 225 643 265 645 278 646 c 1
 309 568 470 309 541 158 c 1
 613 528 l 2
EndSplineSet
EndChar

StartChar: O
Encoding: 79 79 46
Width: 693
Flags: W
HStem: -11 28<255 383> 620 29<332 462>
VStem: 60 92<146 395> 564 92<240 489>
LayerCount: 2
Fore
SplineSet
396 620 m 0
 273 620 151 467 151 262 c 0
 151 150 186 18 320 18 c 0
 469 18 564 209 564 384 c 0
 564 478 534 620 396 620 c 0
405 649 m 0
 559 649 656 529 656 373 c 0
 656 144 500 -11 312 -11 c 0
 154 -11 60 113 60 267 c 0
 60 492 227 649 405 649 c 0
EndSplineSet
EndChar

StartChar: P
Encoding: 80 80 47
Width: 499
Flags: W
HStem: -3 28<-4 65 154 212> 275 25<238 320> 615 28<117 175 247 371>
VStem: 423 87<404 571>
LayerCount: 2
Fore
SplineSet
510 496 m 0
 510 371 402 275 283 275 c 0
 262 275 244 281 239 285 c 0
 237 287 231 296 231 301 c 0
 231 303 233 304 235 305 c 1
 243 301 259 301 268 301 c 0
 340 301 423 373 423 482 c 0
 423 537 411 615 310 615 c 0
 299 615 268 614 263 605 c 0
 256 593 251 561 245 532 c 2
 163 113 l 2
 157 84 152 57 154 41 c 0
 155 30 203 25 214 25 c 1
 217 20 214 2 208 -3 c 1
 171 -1 137 2 102 2 c 0
 67 2 33 -1 -5 -3 c 1
 -9 2 -5 20 -0 25 c 1
 11 25 61 30 66 41 c 0
 74 57 79 84 85 113 c 2
 166 530 l 2
 172 559 176 587 174 603 c 0
 173 614 126 618 115 618 c 1
 112 623 115 641 121 646 c 1
 158 644 194 642 229 642 c 0
 264 642 280 644 334 644 c 0
 438 644 510 585 510 496 c 0
EndSplineSet
EndChar

StartChar: Q
Encoding: 81 81 48
Width: 693
Flags: W
HStem: -133 54<463 597> 620 29<332 462>
VStem: 60 92<147 395> 564 92<239 489>
LayerCount: 2
Fore
SplineSet
405 649 m 0
 559 649 656 529 656 373 c 0
 656 172 534 28 377 -4 c 1
 449 -46 472 -79 561 -79 c 0
 597 -79 643 -68 650 -66 c 1
 657 -66 669 -75 669 -79 c 1
 613 -107 553 -133 497 -133 c 0
 402 -133 334 -36 222 4 c 16
 118 41 60 144 60 267 c 0
 60 492 227 649 405 649 c 0
396 620 m 0
 273 620 151 467 151 262 c 0
 151 150 186 18 320 18 c 0
 469 18 564 209 564 384 c 0
 564 478 534 620 396 620 c 0
EndSplineSet
EndChar

StartChar: R
Encoding: 82 82 49
Width: 565
Flags: W
HStem: -3 28<-4 65 154 212 494 542> 296 29<205 272> 615 28<117 175 248 374>
VStem: 425 87<428 575>
LayerCount: 2
Fore
SplineSet
540 -3 m 1
 460 -3 398 1 375 46 c 0
 346 104 304 199 272 284 c 0
 269 293 260 296 247 296 c 2
 199 296 l 1
 164 113 l 2
 158 84 152 57 154 41 c 0
 155 30 203 25 214 25 c 1
 217 20 214 2 208 -3 c 1
 171 -1 138 2 103 2 c 0
 68 2 33 -1 -5 -3 c 1
 -9 2 -5 20 -0 25 c 1
 11 25 61 30 66 41 c 0
 74 57 79 84 85 113 c 2
 166 530 l 2
 172 559 176 587 174 603 c 0
 173 614 126 618 115 618 c 1
 112 623 115 641 121 646 c 1
 158 644 195 642 230 642 c 0
 265 642 305 644 359 644 c 0
 442 644 512 597 512 506 c 0
 512 412 427 339 352 312 c 1
 384 224 431 126 455 84 c 0
 478 44 497 29 546 25 c 1
 550 20 541 -1 540 -3 c 1
205 325 m 1
 254 325 l 2
 331 325 425 381 425 500 c 0
 425 540 412 615 311 615 c 0
 300 615 268 614 263 605 c 0
 256 593 251 561 245 532 c 2
 205 325 l 1
EndSplineSet
EndChar

StartChar: S
Encoding: 83 83 50
Width: 460
Flags: W
HStem: -8 29<144 259> 620 30<237 348>
VStem: 33 34<106 185> 99 76<437 545> 324 87<105 217> 387 30<480 578>
LayerCount: 2
Fore
SplineSet
304 650 m 0xf8
 361 650 390 639 438 627 c 1
 435 594 424 515 418 486 c 0
 417 479 411 479 408 479 c 0
 404 479 393 480 387 486 c 1xf4
 392 564 367 620 297 620 c 0
 217 620 176 558 176 508 c 0
 176 428 236 396 288 355 c 0
 340 314 411 279 411 188 c 0
 411 67 294 -8 188 -8 c 0
 133 -8 82 12 45 33 c 1
 32 86 31 168 33 180 c 1
 36 184 50 186 57 186 c 0
 62 186 65 184 67 180 c 1
 67 126 104 21 200 21 c 0
 265 21 324 66 324 144 c 0
 324 214 280 248 231 287 c 0
 172 334 99 364 99 465 c 0
 99 577 213 650 304 650 c 0xf8
EndSplineSet
EndChar

StartChar: T
Encoding: 84 84 51
Width: 573
Flags: W
HStem: -3 28<131 199 289 347> 605 34<154 315 394 547>
VStem: 572 31<483 573>
LayerCount: 2
Fore
SplineSet
537 640 m 2
 552 640 583 648 595 654 c 0
 605 659 607 659 612 656 c 1
 607 596 603 540 603 488 c 1
 600 485 592 480 584 481 c 0
 579 481 573 483 572 486 c 1
 573 554 555 605 510 605 c 2
 394 605 l 1
 298 113 l 2
 292 84 286 57 288 41 c 0
 289 30 337 25 348 25 c 1
 351 20 349 2 343 -3 c 1
 306 -1 272 2 237 2 c 0
 202 2 167 -1 129 -3 c 1
 125 2 130 20 135 25 c 1
 146 25 195 30 200 41 c 0
 208 57 213 84 219 113 c 2
 315 605 l 1
 198 605 l 2
 153 605 114 554 88 486 c 0
 86 483 79 481 74 481 c 0
 65 480 59 485 57 488 c 1
 78 540 96 596 114 656 c 1
 120 659 129 656 134 653 c 0
 144 647 168 640 182 640 c 2
 537 640 l 2
EndSplineSet
EndChar

StartChar: U
Encoding: 85 85 52
Width: 645
Flags: W
HStem: -4 57<225 388> 618 28<103 160 250 318 502 558 628 700>
LayerCount: 2
Fore
SplineSet
213 642 m 0
 248 642 282 644 320 646 c 1
 324 641 319 623 314 618 c 1
 303 618 254 614 249 603 c 0
 241 587 236 559 230 530 c 2
 183 289 l 2
 168 213 170 155 189 117 c 0
 210 74 248 53 306 53 c 0
 400 53 472 100 507 268 c 0
 559 532 l 2
 566 567 568 584 562 600 c 0
 558 610 516 619 501 619 c 1
 498 626 502 641 505 647 c 1
 541 645 563 643 603 643 c 0
 645 643 660 645 702 647 c 1
 704 642 704 630 697 619 c 1
 686 619 631 612 622 600 c 0
 611 585 608 570 601 533 c 2
 549 270 l 2
 511 75 418 -4 276 -4 c 0
 207 -4 154 21 122 66 c 0
 92 109 80 170 95 245 c 2
 151 530 l 2
 157 559 163 587 161 603 c 0
 160 614 112 618 101 618 c 1
 98 623 101 641 107 646 c 1
 144 644 178 642 213 642 c 0
EndSplineSet
EndChar

StartChar: V
Encoding: 86 86 53
Width: 582
Flags: W
HStem: -2 21G<220 228> 618 28<64 108 230 282 475 517 610 661>
LayerCount: 2
Fore
SplineSet
171 642 m 0
 211 642 248 644 285 646 c 1
 286 640 282 619 278 618 c 1
 271 618 222 613 217 586 c 0
 215 576 215 552 220 517 c 0
 232 430 278 128 279 125 c 1
 283 130 499 512 499 512 c 2
 512 534 523 562 526 580 c 0
 532 611 485 618 474 618 c 1
 470 620 473 641 479 646 c 1
 512 644 542 642 575 642 c 0
 617 642 627 644 664 646 c 1
 666 641 661 618 658 618 c 0
 651 618 614 613 594 593 c 0
 580 579 551 531 530 494 c 2
 263 31 l 2
 248 5 234 -2 222 -2 c 0
 218 -2 217 10 216 14 c 0
 188 188 170 314 139 502 c 0
 133 540 127 571 116 596 c 0
 109 612 72 618 61 618 c 0
 59 618 65 644 67 646 c 1
 108 644 129 642 171 642 c 0
EndSplineSet
EndChar

StartChar: W
Encoding: 87 87 54
Width: 821
Flags: W
HStem: -2 21G<182 190 510 518> 618 28<67 108 223 275 707 750 847 895>
LayerCount: 2
Back
SplineSet
246.486328125 159.1796875 m 9
 462.306640625 614.2578125 l 2
 466.436523438 622.9765625 472.643554688 630.52734375 480.927734375 636.91015625 c 0
 489.211914062 643.29296875 496.025390625 646.484375 501.369140625 646.484375 c 0
 503.135742188 646.484375 504.432617188 645.521484375 505.2578125 643.595703125 c 0
 506.083007812 641.668945312 507.391601562 637.423828125 509.181640625 630.859375 c 1
 514.149414062 576.211914062 532.37890625 418.333984375 563.869140625 157.2265625 c 1
 563.869140625 152.359375 565.91796875 151.483398438 570.016601562 154.596679688 c 0
 571.7265625 155.895507812 572.931640625 157.422851562 573.634765625 159.1796875 c 2
 732.814453125 511.71875 l 1
 747.282226562 546.44140625 755.419921875 569.227539062 757.228515625 580.078125 c 0
 758.584960938 587.315429688 757.137695312 593.645507812 752.885742188 599.068359375 c 0
 748.633789062 604.4921875 742.96875 608.463867188 735.890625 610.983398438 c 0
 728.8125 613.50390625 722.40234375 615.330078125 716.661132812 616.463867188 c 0
 710.919921875 617.59765625 706.213867188 618.1640625 702.541015625 618.1640625 c 1
 700.526367188 619.08984375 700.282226562 623.443359375 701.80859375 631.225585938 c 0
 703.333984375 639.0078125 705.53125 644.09375 708.400390625 646.484375 c 1
 763.739257812 643.229492188 795.965820312 641.6015625 805.080078125 641.6015625 c 0
 817.491210938 641.6015625 828.184570312 641.849609375 837.16015625 642.346679688 c 0
 846.135742188 642.84375 855.782226562 643.540039062 866.098632812 644.436523438 c 0
 876.416015625 645.333984375 886.024414062 646.015625 894.923828125 646.484375 c 1
 895.888671875 644.071289062 895.361328125 638.748046875 893.341796875 630.514648438 c 0
 891.322265625 622.28125 889.571289062 618.1640625 888.087890625 618.1640625 c 0
 883.037109375 618.1640625 873.548828125 615.750976562 859.623046875 610.924804688 c 0
 845.697265625 606.099609375 834.026367188 600.048828125 824.611328125 592.7734375 c 0
 811.388671875 582.1953125 795.763671875 557.456054688 777.736328125 518.5546875 c 2
 550.197265625 31.25 l 2
 546.422851562 22.7568359375 540.169921875 15.099609375 531.438476562 8.2783203125 c 0
 522.70703125 1.45703125 515.288085938 -1.953125 509.181640625 -1.953125 c 0
 507.4609375 -1.953125 506.053710938 -0.041015625 504.9609375 3.7841796875 c 0
 503.868164062 7.609375 503.322265625 10.9052734375 503.322265625 13.671875 c 0
 495.040039062 84.443359375 484.340820312 171.674804688 471.224609375 275.368164062 c 0
 458.107421875 379.061523438 449.275390625 449.381835938 444.728515625 486.328125 c 0
 444.728515625 487.84765625 444.118164062 488.7421875 442.897460938 489.013671875 c 0
 441.676757812 489.28515625 440.333984375 488.71484375 438.869140625 487.3046875 c 1
 221.095703125 31.25 l 2
 217.294921875 22.6982421875 211.18359375 15.0263671875 202.76171875 8.234375 c 0
 194.33984375 1.4423828125 187.104492188 -1.953125 181.056640625 -1.953125 c 0
 179.3125 -1.953125 177.737304688 0.0166015625 176.331054688 3.955078125 c 0
 174.923828125 7.8935546875 174.220703125 11.1328125 174.220703125 13.671875 c 2
 127.345703125 519.53125 l 2
 127.133789062 522.359375 126.806640625 526.91796875 126.366210938 533.20703125 c 0
 125.924804688 539.497070312 125.611328125 543.799804688 125.423828125 546.115234375 c 0
 125.237304688 548.431640625 124.904296875 552.017578125 124.423828125 556.874023438 c 0
 123.944335938 561.73046875 123.489257812 565.223632812 123.05859375 567.35546875 c 0
 122.62890625 569.487304688 122.024414062 572.356445312 121.24609375 575.962890625 c 0
 120.46875 579.568359375 119.61328125 582.4375 118.6796875 584.567382812 c 0
 117.74609375 586.698242188 116.612304688 589.033203125 115.276367188 591.572265625 c 0
 113.94140625 594.111328125 112.4296875 596.46484375 110.744140625 598.6328125 c 0
 106.366210938 604.32421875 98.6796875 609.001953125 87.685546875 612.666992188 c 0
 76.69140625 616.33203125 67.775390625 618.1640625 60.939453125 618.1640625 c 0
 60.3310546875 618.1640625 60.3876953125 620.385742188 61.109375 624.828125 c 0
 61.83203125 629.271484375 62.8037109375 633.834960938 64.025390625 638.517578125 c 0
 65.2470703125 643.201171875 66.171875 645.856445312 66.798828125 646.484375 c 1
 75.5849609375 646.06640625 87.3359375 645.389648438 102.052734375 644.456054688 c 0
 116.76953125 643.521484375 129.833984375 642.8125 141.245117188 642.328125 c 0
 152.657226562 641.84375 164.625 641.6015625 177.150390625 641.6015625 c 0
 189.075195312 641.6015625 200.129882812 641.844726562 210.313476562 642.33203125 c 0
 220.49609375 642.819335938 231.916015625 643.525390625 244.573242188 644.452148438 c 0
 257.23046875 645.377929688 267.633789062 646.055664062 275.783203125 646.484375 c 1
 276.310546875 643.3203125 275.602539062 637.924804688 273.658203125 630.296875 c 0
 271.713867188 622.669921875 269.818359375 618.625976562 267.970703125 618.1640625 c 1
 265.233398438 618.1640625 261.25390625 617.723632812 256.032226562 616.842773438 c 0
 250.810546875 615.961914062 244.548828125 614.493164062 237.245117188 612.435546875 c 0
 229.942382812 610.37890625 223.427734375 607.026367188 217.702148438 602.376953125 c 0
 211.9765625 597.728515625 208.55078125 592.248046875 207.423828125 585.9375 c 0
 205.10546875 573.189453125 213.140625 451.951171875 231.52734375 222.22265625 c 0
 233.844726562 193.27734375 235.575195312 171.612304688 236.720703125 157.2265625 c 1024
EndSplineSet
Fore
SplineSet
168 642 m 0
 208 642 242 644 279 646 c 1
 280 640 275 619 271 618 c 1
 264 618 215 613 210 586 c 0
 209 580 209 561 211 532 c 0
 216 449 229 286 241 141 c 1
 465 614 l 2
 474 633 494 646 504 646 c 0
 508 646 509 642 512 631 c 1
 514 610 546 335 569 141 c 1
 737 512 l 2
 747 535 757 562 760 580 c 0
 766 611 716 618 705 618 c 1
 701 620 705 641 711 646 c 1
 744 644 775 642 808 642 c 0
 850 642 861 644 898 646 c 1
 900 641 894 618 891 618 c 0
 884 618 849 610 828 593 c 0
 813 581 800 559 781 519 c 2
 553 31 l 2
 545 13 524 -2 512 -2 c 0
 508 -2 506 10 506 14 c 0
 485 197 469 309 446 499 c 1
 224 31 l 2
 216 13 196 -2 184 -2 c 0
 180 -2 177 10 177 14 c 2
 130 520 l 2
 127 559 128 581 114 599 c 0
 104 612 75 618 64 618 c 0
 62 618 68 644 70 646 c 1
 111 644 126 642 168 642 c 0
EndSplineSet
EndChar

StartChar: X
Encoding: 88 88 55
Width: 605
Flags: W
HStem: -3 28<-53 13 102 159 331 383 504 558> 618 28<103 146 281 334 464 516 604 660>
LayerCount: 2
Fore
SplineSet
219 642 m 0
 264 642 299 644 336 646 c 1
 337 640 334 618 329 618 c 0
 316 618 274 612 269 587 c 0
 267 579 269 570 274 558 c 2
 346 383 l 1
 415 461 495 551 514 578 c 0
 516 581 521 588 522 594 c 0
 523 600 513 617 462 617 c 1
 458 618 462 639 466 646 c 1
 502 643 530 641 563 641 c 0
 610 641 641 644 663 646 c 1
 665 641 663 623 656 617 c 1
 649 617 600 613 568 578 c 2
 360 353 l 1
 480 64 l 2
 492 36 531 25 561 25 c 1
 564 20 557 -1 556 -3 c 1
 520 -1 501 2 464 2 c 0
 413 2 381 -1 330 -3 c 1
 326 2 330 25 335 25 c 0
 345 25 390 34 394 53 c 0
 395 56 393 61 392 64 c 2
 298 293 l 1
 229 215 125 90 104 64 c 0
 102 61 97 55 96 49 c 0
 95 43 110 25 161 25 c 1
 164 19 159 0 157 -3 c 1
 124 -1 88 2 55 2 c 0
 8 2 -20 -1 -57 -3 c 1
 -59 3 -52 22 -50 25 c 1
 -43 25 19 29 51 64 c 2
 283 324 l 1
 196 535 l 2
 182 570 171 587 149 603 c 0
 135 613 112 618 101 618 c 0
 96 618 101 641 107 646 c 1
 151 644 174 642 219 642 c 0
EndSplineSet
EndChar

StartChar: Y
Encoding: 89 89 56
Width: 542
Flags: W
HStem: -3 28<118 187 276 334> 618 28<59 103 237 290 426 480 557 616>
LayerCount: 2
Fore
SplineSet
206 113 m 2
 234 261 l 2
 235 268 236 278 233 288 c 2
 152 535 l 2
 140 571 128 587 106 603 c 0
 92 613 69 618 58 618 c 0
 53 618 58 641 64 646 c 1
 108 644 131 642 176 642 c 0
 221 642 256 644 293 646 c 1
 294 640 291 618 286 618 c 0
 273 618 231 612 226 587 c 0
 224 579 227 571 231 558 c 2
 309 323 l 1
 371 409 465 548 481 578 c 0
 483 581 485 587 486 593 c 0
 487 599 476 617 425 617 c 1
 422 620 426 642 429 646 c 1
 462 644 487 641 520 641 c 0
 567 641 583 644 620 646 c 1
 620 643 615 617 612 617 c 0
 605 617 553 617 525 578 c 2
 325 294 l 2
 317 283 317 273 315 264 c 2
 285 113 l 2
 279 84 273 57 275 41 c 0
 276 30 324 25 335 25 c 1
 338 20 336 2 330 -3 c 1
 293 -1 260 2 225 2 c 0
 190 2 154 -1 116 -3 c 1
 112 2 117 20 122 25 c 1
 133 25 183 30 188 41 c 0
 196 57 200 84 206 113 c 2
EndSplineSet
EndChar

StartChar: Z
Encoding: 90 90 57
Width: 587
Flags: W
HStem: 0 31<100 399> 614 31<218 495> 634 20G<143 161>
LayerCount: 2
Fore
SplineSet
273 614 m 2xc0
 211 614 157 560 122 480 c 0
 120 477 117 477 112 477 c 0
 104 477 91 481 89 484 c 1
 113 529 133 587 152 653 c 1xa0
 171 650 201 646 225 646 c 2
 402 646 l 2xc0
 478 646 517 649 594 655 c 1
 598 654 608 642 606 634 c 0xa0
 603 626 304 264 100 31 c 1
 339 31 l 2
 384 31 421 56 446 83 c 0
 471 110 488 143 501 168 c 0
 502 170 509 171 514 171 c 0
 523 171 532 166 535 162 c 1
 498 85 482 49 463 0 c 1
 4 0 l 2
 -6 0 -14 8 -9 14 c 2
 497 615 l 1
 273 614 l 2xc0
EndSplineSet
EndChar

StartChar: bracketleft
Encoding: 91 91 58
Width: 253
Flags: W
HStem: 679 44<204 308>
VStem: 7 324
LayerCount: 2
Fore
SplineSet
157 700 m 2
 157 701 163 723 180 723 c 0
 253 723 311 731 326 731 c 0
 328 731 331 732 331 726 c 0
 331 705 309 690 308 689 c 2
 308 689 263 679 214 679 c 0
 208 679 206 671 206 671 c 1
 66 -48 l 1
 66 -48 65 -55 71 -56 c 0
 106 -60 149 -73 161 -80 c 0
 163 -81 174 -92 174 -101 c 0
 174 -112 167 -115 167 -115 c 1
 167 -115 88 -100 14 -100 c 0
 10 -100 6 -96 7 -89 c 0
 60 182 157 700 157 700 c 2
EndSplineSet
Substitution2: "'smcp' Lowercase to Small Capitals in Latin lookup 3-1" bracketleft.sc
EndChar

StartChar: backslash
Encoding: 92 92 59
Width: 359
Flags: W
VStem: 112 171
LayerCount: 2
Fore
SplineSet
283 -4 m 2
 286 -20 268 -39 257 -39 c 0
 253 -39 249 -39 245 -36 c 1
 194 263 112 737 112 737 c 1
 114 740 120 744 126 744 c 0
 147 744 160 718 162 708 c 2
 283 -4 l 2
EndSplineSet
Substitution2: "'smcp' Lowercase to Small Capitals in Latin lookup 3-1" backslash.sc
EndChar

StartChar: bracketright
Encoding: 93 93 60
Width: 251
Flags: W
HStem: -100 44<-36 68> 679 44<110 203>
VStem: -57 320
LayerCount: 2
Back
SplineSet
30.2734375 -111.328125 m 0
 27.83984375 -109.697265625 26.623046875 -106.810546875 26.623046875 -102.668945312 c 0
 26.623046875 -92.6806640625 33.0478515625 -82.5458984375 45.8984375 -72.265625 c 1
 75.8466796875 -61.1982421875 107.096679688 -55.6640625 139.6484375 -55.6640625 c 0
 141.276367188 -55.6640625 142.822265625 -55.0126953125 144.287109375 -53.7109375 c 0
 145.751953125 -52.4091796875 146.809570312 -51.1064453125 147.4609375 -49.8046875 c 2
 148.4375 -47.8515625 l 1025
EndSplineSet
Fore
SplineSet
106 731 m 0
 108 731 176 723 251 723 c 0
 262 723 264 715 264 708 c 0
 264 704 264 703 263 700 c 2
 112 -77 l 2
 112 -78 108 -100 91 -100 c 0
 17 -100 -53 -111 -53 -111 c 1
 -53 -111 -57 -109 -57 -103 c 0
 -57 -88 -42 -77 -37 -72 c 1
 -15 -64 18 -56 57 -56 c 0
 63 -56 65 -48 65 -48 c 1
 205 671 l 1
 205 671 206 679 200 679 c 0
 151 679 110 689 110 689 c 1
 108 691 99 696 99 711 c 0
 99 720 101 731 106 731 c 0
EndSplineSet
Substitution2: "'smcp' Lowercase to Small Capitals in Latin lookup 3-1" bracketright.sc
EndChar

StartChar: asciicircum
Encoding: 94 94 61
Width: 295
Flags: W
HStem: 464 210
VStem: 13 276
LayerCount: 2
Fore
SplineSet
13 487 m 1
 22 502 102 552 170 661 c 0
 176 671 175 674 182 674 c 0
 203 674 191 654 231 574 c 0
 246 545 288 493 289 488 c 1
 287 480 279 464 272 464 c 0
 252 464 186 551 168 583 c 1
 120 527 32 464 21 464 c 0
 13 464 13 479 13 487 c 1
EndSplineSet
Substitution2: "'smcp' Lowercase to Small Capitals in Latin lookup 3-1" asciicircum.sc
EndChar

StartChar: underscore
Encoding: 95 95 62
Width: 463
Flags: W
HStem: -42 55<-29 385>
LayerCount: 2
Fore
SplineSet
-38 -36 m 0
 -38 -31 -23 13 -15 13 c 2
 390 13 l 2
 393 13 396 12 396 9 c 0
 396 5 388 -15 378 -36 c 0
 375 -42 372 -42 372 -42 c 1
 -33 -42 l 1
 -33 -42 -38 -42 -38 -36 c 0
EndSplineSet
EndChar

StartChar: a
Encoding: 97 97 64
Width: 438
Flags: W
HStem: -6 54<80 155 280 320> 386 39<217 315>
VStem: 19 72<64 217>
LayerCount: 2
Fore
SplineSet
298 425 m 0
 332 425 355 419 374 412 c 1
 314 104 l 2
 311 93 304 48 320 48 c 0
 341 48 386 101 389 104 c 1
 392 104 398 92 398 86 c 1
 387 67 317 -6 271 -6 c 0
 250 -6 237 16 237 45 c 0
 237 53 240 76 244 97 c 0
 247 115 248 120 249 127 c 1
 229 92 162 -5 105 -5 c 0
 52 -5 19 42 19 110 c 0
 19 280 179 425 298 425 c 0
253 386 m 0
 178 386 91 259 91 147 c 0
 91 86 107 52 141 52 c 0
 190 52 258 174 277 268 c 2
 298 371 l 1
 289 381 266 386 253 386 c 0
EndSplineSet
Substitution2: "'smcp' Lowercase to Small Capitals in Latin lookup 3-1" a.sc
EndChar

StartChar: b
Encoding: 98 98 65
Width: 418
Flags: W
HStem: -6 32<125 196> 371 54<253 333> 616 21<75 130> 649 20G<196 209>
VStem: 134 79<534 651> 307 72<198 366>
LayerCount: 2
Fore
SplineSet
269 371 m 0
 227 371 136 259 115 152 c 0
 99 73 114 26 160 26 c 0
 242 26 307 216 307 295 c 0
 307 331 303 371 269 371 c 0
140 278 m 1
 208 392 280 425 311 425 c 0
 356 425 379 381 379 314 c 0
 379 138 237 -6 133 -6 c 0
 78 -6 42 36 42 108 c 0
 42 118 46 142 48 154 c 2
 125 546 l 2
 129 564 134 587 134 598 c 0
 134 617 90 616 74 616 c 1
 71 620 74 633 78 637 c 1
 132 642 186 661 207 669 c 1
 212 666 213 656 213 650 c 0
 213 642 205 601 200 577 c 2
 140 278 l 1
EndSplineSet
Substitution2: "'smcp' Lowercase to Small Capitals in Latin lookup 3-1" b.sc
EndChar

StartChar: c
Encoding: 99 99 66
Width: 350
Flags: W
HStem: -6 58<122 192> 385 40<197 284>
VStem: 23 76<73 240>
LayerCount: 2
Fore
SplineSet
269 425 m 0
 300 425 316 411 329 400 c 1
 332 396 338 385 338 374 c 0
 338 352 327 330 305 330 c 0
 291 330 277 338 270 350 c 0
 260 366 247 385 219 385 c 0
 165 385 100 289 100 158 c 0
 100 124 105 52 167 52 c 0
 211 52 265 116 268 119 c 1
 271 119 279 106 279 100 c 1
 268 81 194 -6 132 -6 c 0
 63 -6 23 46 23 137 c 0
 23 293 168 425 269 425 c 0
EndSplineSet
Substitution2: "'smcp' Lowercase to Small Capitals in Latin lookup 3-1" c.sc
EndChar

StartChar: d
Encoding: 100 100 67
Width: 438
Flags: W
HStem: -5 57<75 155 280 321> 386 39<218 284> 616 21<281 336> 649 20G<402 416>
VStem: 19 72<64 214> 237 73<21 159> 340 79<532 651>
LayerCount: 2
Fore
SplineSet
289 333 m 2
 293 355 281 386 255 386 c 0
 176 386 91 258 91 146 c 0
 91 92 105 52 141 52 c 0
 191 52 258 175 277 270 c 1
 289 333 l 2
331 546 m 2
 334 564 340 587 340 598 c 0
 340 617 296 616 280 616 c 1
 277 620 280 633 284 637 c 1
 338 642 392 661 413 669 c 1
 418 666 419 656 419 650 c 0
 419 642 411 601 406 577 c 2
 314 104 l 2
 313 100 311 76 311 71 c 0
 311 62 310 48 320 48 c 0
 341 48 386 101 389 104 c 1
 392 104 398 92 398 86 c 1
 387 67 317 -6 271 -6 c 0
 250 -6 237 16 237 45 c 0
 237 53 240 76 244 97 c 0
 248 116 248 120 249 127 c 1
 234 98 163 -5 104 -5 c 0
 43 -5 19 56 19 113 c 0
 19 266 169 425 296 425 c 0
 320 425 303 425 309 425 c 1
 331 546 l 2
EndSplineSet
Substitution2: "'smcp' Lowercase to Small Capitals in Latin lookup 3-1" d.sc
EndChar

StartChar: e
Encoding: 101 101 68
Width: 354
Flags: W
HStem: -6 58<121 192> 188 24<103 144> 385 40<192 292>
VStem: 22 76<75 212 213 236> 260 72<306 380>
LayerCount: 2
Fore
SplineSet
268 425 m 0
 318 425 332 393 332 364 c 0
 332 270 162 188 101 188 c 1
 100 185 99 162 99 157 c 0
 99 97 117 52 166 52 c 0
 210 52 264 116 267 119 c 1
 270 119 278 106 278 100 c 1
 265 79 192 -6 130 -6 c 0
 61 -6 22 45 22 136 c 0
 22 281 156 425 268 425 c 0
103 213 m 1
 141 213 260 274 260 346 c 0
 260 372 238 385 219 385 c 0
 152 385 108 263 103 213 c 1
EndSplineSet
Substitution2: "'smcp' Lowercase to Small Capitals in Latin lookup 3-1" e.sc
EndChar

StartChar: f
Encoding: 102 102 69
Width: 289
Flags: W
HStem: -228 42<-83 -7> 367 36<44 120 198 300> 627 42<266 342>
LayerCount: 2
Fore
SplineSet
328 669 m 0
 356 669 374 658 381 645 c 1
 381 642 381 639 381 636 c 0
 379 614 371 590 352 590 c 0
 335 590 325 600 314 612 c 0
 307 619 300 627 286 627 c 0
 248 627 228 558 198 403 c 1
 296 403 l 2
 300 403 301 397 301 392 c 0
 301 382 297 375 292 367 c 1
 191 367 l 1
 191 367 157 165 134 42 c 0
 103 -118 10 -228 -68 -228 c 0
 -96 -228 -114 -216 -121 -203 c 1
 -121 -198 -121 -193 -120 -188 c 0
 -117 -168 -109 -148 -92 -148 c 0
 -75 -148 -66 -159 -55 -171 c 0
 -48 -178 -40 -186 -26 -186 c 0
 12 -186 32 -117 62 38 c 1
 120 367 l 1
 37 367 l 2
 36 367 35 368 35 370 c 0
 35 380 58 403 80 403 c 2
 126 403 l 1
 157 563 250 669 328 669 c 0
EndSplineSet
Substitution2: "'smcp' Lowercase to Small Capitals in Latin lookup 3-1" f.sc
EndChar

StartChar: g
Encoding: 103 103 70
Width: 402
Flags: W
HStem: -228 34<71 221> 119 28<138 149> 397 28<168 235>
VStem: -47 72<-160 -75> 39 72<170 319> 52 86<44 81> 271 62<-147 -70 208 363>
LayerCount: 2
Fore
SplineSet
271 -115 m 0xf2
 271 -53 181 -24 124 -6 c 1
 85 -23 25 -52 25 -107 c 0
 25 -172 89 -193 165 -193 c 0
 230 -193 271 -156 271 -115 c 0xf2
207 397 m 0
 145 397 111 308 111 241 c 0xfa
 111 193 131 147 172 147 c 0
 235 147 267 226 267 287 c 0
 267 335 245 397 207 397 c 0
325 372 m 1
 326 366 339 331 339 305 c 0
 339 201 270 154 250 142 c 0
 216 121 138 102 138 80 c 0
 138 48 334 38 334 -76 c 0
 334 -169 245 -228 105 -228 c 0
 17 -228 -47 -193 -47 -132 c 0
 -47 -65 36 -20 94 6 c 1
 76 18 l 2
 64 26 52 35 52 53 c 0xf6
 52 77 117 111 149 119 c 1
 118 119 39 156 39 233 c 0
 39 343 133 426 224 426 c 0
 261 426 283 416 307 404 c 0
 321 397 355 417 368 419 c 1
 381 415 408 398 408 385 c 0
 408 378 404 371 396 371 c 0
 382 371 338 373 325 372 c 1
EndSplineSet
Substitution2: "'smcp' Lowercase to Small Capitals in Latin lookup 3-1" g.sc
EndChar

StartChar: h
Encoding: 104 104 71
Width: 458
Flags: W
HStem: -6 54<282 345> 353 72<280 348> 616 21<76 132> 649 20G<198 211>
VStem: 136 79<535 651> 260 73<21 167> 308 75<217 379>
LayerCount: 2
Fore
SplineSet
202 577 m 2xfa
 152 322 l 1
 135 232 l 1
 148 256 265 425 329 425 c 0
 367 425 383 397 383 360 c 0xfa
 383 327 377 291 369 254 c 2
 337 104 l 2
 336 100 333 77 333 72 c 0
 333 63 333 48 343 48 c 0
 364 48 408 101 411 104 c 1
 414 104 421 92 421 86 c 1
 410 67 339 -6 293 -6 c 0
 272 -6 260 16 260 45 c 0xfc
 260 53 262 76 267 97 c 2
 301 258 l 2
 303 267 308 300 308 311 c 0
 308 333 306 353 289 353 c 0
 254 353 136 230 114 116 c 0
 108 86 100 45 90 0 c 1
 80 -3 65 -4 55 -4 c 0
 45 -4 33 -3 21 0 c 1
 127 546 l 2
 130 564 136 587 136 598 c 0
 136 617 92 616 76 616 c 1
 73 620 76 633 80 637 c 1
 134 642 188 661 209 669 c 1
 214 666 215 656 215 650 c 0
 215 642 207 601 202 577 c 2xfa
EndSplineSet
Substitution2: "'smcp' Lowercase to Small Capitals in Latin lookup 3-1" h.sc
EndChar

StartChar: i
Encoding: 105 105 72
Width: 255
Flags: W
HStem: -6 54<75 137> 371 54<95 158> 533 98<124 187>
VStem: 52 73<45 124> 112 73<295 374> 113 86<545 621>
LayerCount: 2
Fore
SplineSet
108 315 m 2xf0
 109 321 112 342 112 347 c 0
 112 356 113 371 103 371 c 0
 82 371 37 317 34 314 c 1
 31 314 24 327 24 333 c 1
 35 352 101 425 147 425 c 0
 168 425 186 403 186 374 c 0xe8
 186 366 183 343 179 322 c 2
 129 104 l 2
 127 94 125 77 125 72 c 0
 125 63 125 48 135 48 c 0
 156 48 200 101 203 104 c 1
 206 104 213 92 213 86 c 1
 202 67 131 -6 85 -6 c 0
 64 -6 52 16 52 45 c 0
 52 53 55 76 59 97 c 2
 108 315 l 2xf0
164 631 m 0
 185 631 199 613 199 592 c 0
 199 562 176 533 146 533 c 0
 125 533 113 554 113 575 c 0xe4
 113 604 135 631 164 631 c 0
EndSplineSet
Substitution2: "'ccmp' Turkish i-1" i.TRK
Substitution2: "'smcp' Lowercase to Small Capitals in Latin lookup 3-1" i.sc
EndChar

StartChar: j
Encoding: 106 106 73
Width: 243
Flags: W
HStem: 371 54<101 164> 533 98<141 203>
VStem: 118 73<245 397> 130 86<545 621>
LayerCount: 2
Fore
SplineSet
114 315 m 2xe0
 115 321 118 342 118 347 c 0
 118 356 118 371 108 371 c 0
 87 371 43 317 40 314 c 1
 37 314 30 327 30 333 c 1
 41 352 107 425 153 425 c 0
 174 425 191 403 191 374 c 0
 191 366 189 343 185 322 c 2
 131 44 l 2
 124 9 104 -65 62 -121 c 0
 21 -175 -40 -215 -74 -229 c 1
 -78 -226 -83 -217 -83 -210 c 1
 -18 -173 35 -87 56 21 c 2
 114 315 l 2xe0
181 631 m 0
 202 631 216 613 216 592 c 0
 216 562 193 533 163 533 c 0
 142 533 130 554 130 575 c 0xd0
 130 604 152 631 181 631 c 0
EndSplineSet
Substitution2: "'smcp' Lowercase to Small Capitals in Latin lookup 3-1" j.sc
EndChar

StartChar: k
Encoding: 107 107 74
Width: 449
Flags: W
HStem: -4 54<287 345> 379 46<249 336> 616 21<77 133> 649 20G<199 212>
VStem: 137 79<535 651> 314 76<293 378>
LayerCount: 2
Fore
SplineSet
317 425 m 0
 355 425 391 396 391 358 c 0
 391 269 293 225 185 206 c 1
 271 77 298 50 338 50 c 0
 355 50 393 90 404 104 c 1
 407 104 414 91 414 86 c 1
 406 72 338 -4 295 -4 c 0
 218 -4 169 117 127 187 c 1
 91 0 l 1
 80 -3 68 -5 57 -5 c 0
 46 -5 33 -3 21 0 c 1
 128 546 l 2
 132 564 137 587 137 598 c 0
 137 617 93 616 77 616 c 1
 74 620 77 633 81 637 c 1
 135 642 189 661 210 669 c 1
 215 666 216 656 216 650 c 0
 216 642 208 601 203 577 c 2
 152 314 l 1
 157 318 233 425 317 425 c 0
282 379 m 0
 225 379 147 285 135 225 c 1
 200 225 314 265 314 346 c 0
 314 364 309 379 282 379 c 0
EndSplineSet
Substitution2: "'smcp' Lowercase to Small Capitals in Latin lookup 3-1" k.sc
EndChar

StartChar: l
Encoding: 108 108 75
Width: 237
Flags: W
HStem: -6 54<59 121> 616 21<80 135> 649 20G<202 215>
VStem: 36 73<21 172> 140 79<532 651>
LayerCount: 2
Fore
SplineSet
131 546 m 2
 135 564 140 587 140 598 c 0
 140 617 96 616 80 616 c 1
 77 620 80 633 84 637 c 1
 138 642 192 661 213 669 c 1
 218 666 219 656 219 650 c 0
 219 642 211 601 206 577 c 2
 113 104 l 2
 112 100 109 77 109 72 c 0
 109 63 109 48 119 48 c 0
 140 48 185 101 188 104 c 1
 191 104 197 92 197 86 c 1
 186 67 115 -6 69 -6 c 0
 48 -6 36 16 36 45 c 0
 36 53 39 76 43 97 c 2
 131 546 l 2
EndSplineSet
Substitution2: "'smcp' Lowercase to Small Capitals in Latin lookup 3-1" l.sc
EndChar

StartChar: m
Encoding: 109 109 76
Width: 697
Flags: W
HStem: -6 54<541 581> 353 72<285 353 514 575> 371 54<93 137>
VStem: 109 73<256 397> 321 73<216 352> 498 73<21 167> 546 75<217 380>
LayerCount: 2
Fore
SplineSet
505 97 m 2xdc
 539 258 l 2
 541 267 546 300 546 311 c 0
 546 336 545 353 527 353 c 0
 488 353 376 228 357 129 c 2
 333 0 l 1
 319 -2 311 -3 297 -3 c 0
 283 -3 276 -2 263 0 c 1
 317 277 l 2
 320 293 321 305 321 314 c 0
 321 339 315 353 302 353 c 0xda
 258 353 155 213 135 119 c 2
 110 0 l 1
 99 -3 89 -4 75 -4 c 0
 61 -4 53 -2 41 0 c 1
 105 315 l 2
 106 321 109 342 109 347 c 0
 109 356 110 371 100 371 c 0
 79 371 34 317 31 314 c 1
 28 314 21 327 21 333 c 1
 32 352 99 425 145 425 c 0xba
 166 425 183 403 183 374 c 0
 183 366 179 343 175 322 c 0
 168 287 163 266 155 231 c 1
 190 293 278 425 329 425 c 0
 386 425 395 375 395 332 c 0
 395 309 387 262 381 245 c 1
 416 307 510 425 561 425 c 0
 606 425 621 400 621 360 c 0xda
 621 327 614 285 607 254 c 2
 575 104 l 2
 573 94 571 77 571 72 c 0
 571 63 571 48 581 48 c 0
 602 48 646 101 649 104 c 1
 652 104 659 92 659 86 c 1
 648 67 577 -6 531 -6 c 0
 510 -6 498 16 498 45 c 0
 498 53 501 76 505 97 c 2xdc
EndSplineSet
Substitution2: "'smcp' Lowercase to Small Capitals in Latin lookup 3-1" m.sc
EndChar

StartChar: n
Encoding: 110 110 77
Width: 485
Flags: W
HStem: -6 54<309 371> 353 72<299 363> 371 54<93 155>
VStem: 109 73<244 397> 286 73<21 167> 334 75<217 380>
LayerCount: 2
Fore
SplineSet
175 322 m 2xb4
 157 240 l 1
 170 264 284 425 349 425 c 0
 394 425 409 400 409 360 c 0xd4
 409 330 403 287 396 254 c 2
 363 104 l 2
 361 94 359 77 359 72 c 0
 359 63 359 48 369 48 c 0
 390 48 435 101 438 104 c 1
 441 104 447 92 447 86 c 1
 436 67 365 -6 319 -6 c 0
 298 -6 286 16 286 45 c 0xd8
 286 53 289 76 293 97 c 2
 327 258 l 2
 329 267 334 300 334 311 c 0
 334 336 333 353 315 353 c 0xd4
 279 353 158 241 135 119 c 0
 126 72 120 47 110 0 c 1
 98 -3 89 -4 75 -4 c 0
 61 -4 53 -3 41 0 c 1
 105 315 l 2
 106 321 109 342 109 347 c 0
 109 356 110 371 100 371 c 0
 79 371 34 317 31 314 c 1
 28 314 21 327 21 333 c 1
 32 352 99 425 145 425 c 0
 166 425 183 403 183 374 c 0
 183 366 180 343 175 322 c 2xb4
EndSplineSet
Substitution2: "'smcp' Lowercase to Small Capitals in Latin lookup 3-1" n.sc
EndChar

StartChar: o
Encoding: 111 111 78
Width: 404
Flags: W
HStem: -5 31<126 198> 394 31<188 260>
VStem: 23 76<48 244> 283 76<173 375>
LayerCount: 2
Fore
SplineSet
231 394 m 0
 149 394 100 252 100 154 c 0
 100 76 120 26 155 26 c 0
 236 26 283 169 283 267 c 0
 283 345 266 394 231 394 c 0
245 425 m 0
 323 425 359 365 359 281 c 0
 359 144 249 -5 137 -5 c 0
 59 -5 23 51 23 135 c 0
 23 272 133 425 245 425 c 0
EndSplineSet
Substitution2: "'smcp' Lowercase to Small Capitals in Latin lookup 3-1" o.sc
EndChar

StartChar: p
Encoding: 112 112 79
Width: 437
Flags: W
HStem: -229 28<-53 -13> -221 26<86 132> -5 34<142 220> 371 54<252 345>
VStem: 325 72<194 360>
LayerCount: 2
Fore
SplineSet
274 371 m 0x38
 242 371 184 330 158 293 c 1
 126 128 l 2
 115 70 143 29 172 29 c 0
 255 29 325 180 325 296 c 0
 325 350 305 371 274 371 c 0x38
313 425 m 0
 375 425 398 375 398 307 c 0
 398 156 271 -5 152 -5 c 0
 135 -5 113 -2 107 8 c 1
 74 -142 l 2
 72 -151 72 -159 72 -169 c 0
 72 -174 75 -188 85 -191 c 0
 102 -195 128 -194 131 -194 c 0
 135 -195 133 -220 128 -222 c 1
 115 -222 105 -221 94 -221 c 0x78
 44 -221 6 -222 -51 -229 c 1
 -56 -228 -55 -204 -50 -201 c 1xb8
 -32 -201 -19 -197 -10 -186 c 0
 -3 -177 0 -166 5 -144 c 2
 82 244 l 1
 35 197 l 1
 31 202 30 212 30 217 c 0
 30 221 32 223 33 224 c 2
 90 285 l 1
 116 423 l 1
 127 426 142 427 153 427 c 0
 164 427 174 425 184 420 c 1
 180 401 169 345 168 338 c 1
 194 362 263 425 313 425 c 0
EndSplineSet
Substitution2: "'smcp' Lowercase to Small Capitals in Latin lookup 3-1" p.sc
EndChar

StartChar: q
Encoding: 113 113 80
Width: 416
Flags: W
HStem: -222 19<288 313> -5 57<74 156> 386 39<217 313>
VStem: 19 72<64 214>
LayerCount: 2
Fore
SplineSet
310 -223 m 1
 296 -223 284 -222 271 -222 c 0
 214 -222 160 -225 124 -229 c 1
 122 -227 121 -203 127 -203 c 0
 155 -200 188 -192 193 -167 c 2
 248 127 l 1
 228 92 161 -5 104 -5 c 0
 43 -5 19 56 19 113 c 0
 19 266 169 425 296 425 c 0
 330 425 354 419 373 412 c 1
 313 104 l 2
 312 100 269 -146 269 -146 c 2
 268 -154 267 -161 267 -167 c 0
 267 -181 269 -196 312 -196 c 0
 316 -196 315 -220 310 -223 c 1
289 333 m 2
 293 355 281 386 255 386 c 0
 176 386 91 258 91 146 c 0
 91 92 105 52 141 52 c 0
 191 52 258 175 277 270 c 1
 289 333 l 2
EndSplineSet
Substitution2: "'smcp' Lowercase to Small Capitals in Latin lookup 3-1" q.sc
EndChar

StartChar: r
Encoding: 114 114 81
Width: 347
Flags: W
HStem: -3 21G<76 87> 356 68<260 332> 371 54<92 154>
VStem: 108 73<237 397>
LayerCount: 2
Fore
SplineSet
300 425 m 0xd0
 321 425 339 414 348 404 c 0
 352 399 356 387 356 377 c 0
 356 352 343 334 321 334 c 0
 312 334 300 340 292 349 c 0
 288 354 280 356 272 356 c 0xd0
 237 356 156 221 137 119 c 2
 115 0 l 1
 104 -2 93 -3 82 -3 c 0
 69 -3 58 -2 46 0 c 1
 104 315 l 2
 105 321 108 342 108 347 c 0
 108 356 109 371 99 371 c 0
 78 371 33 317 30 314 c 1
 27 314 21 327 21 333 c 1
 32 352 98 425 144 425 c 0xb0
 165 425 182 403 182 374 c 0
 182 366 178 343 174 322 c 0
 168 290 164 272 157 240 c 1
 184 305 254 425 300 425 c 0xd0
EndSplineSet
Substitution2: "'smcp' Lowercase to Small Capitals in Latin lookup 3-1" r.sc
EndChar

StartChar: s
Encoding: 115 115 82
Width: 314
Flags: W
HStem: -6 31<92 167> 395 33<129 199>
VStem: 59 57<287 368> 180 60<47 137>
LayerCount: 2
Fore
SplineSet
194 428 m 0
 233 428 257 419 278 401 c 1
 283 394 288 377 288 370 c 0
 288 348 275 330 255 330 c 0
 237 330 222 346 209 364 c 0
 198 380 191 395 163 395 c 0
 129 395 115 361 115 340 c 0
 115 301 150 270 180 236 c 0
 210 201 239 163 239 114 c 0
 239 42 180 -6 98 -6 c 0
 68 -6 37 2 12 23 c 1
 9 28 2 43 2 53 c 0
 2 81 18 98 38 98 c 0
 58 98 65 75 80 54 c 0
 91 39 106 25 132 25 c 0
 171 25 180 61 180 82 c 0
 180 116 154 143 129 172 c 0
 95 210 59 249 59 305 c 0
 59 360 112 428 194 428 c 0
EndSplineSet
Substitution2: "'smcp' Lowercase to Small Capitals in Latin lookup 3-1" s.sc
EndChar

StartChar: t
Encoding: 116 116 83
Width: 271
Flags: W
HStem: -6 54<71 133> 367 36<49 107 184 261>
VStem: 48 73<21 173>
LayerCount: 2
Fore
SplineSet
114 403 m 1
 125 461 l 1
 136 475 180 525 188 525 c 0
 194 525 201 523 205 520 c 1
 184 403 l 1
 257 403 l 2
 261 403 262 397 262 392 c 0
 262 382 258 375 253 367 c 1
 177 367 l 1
 125 104 l 2
 123 94 121 77 121 72 c 0
 121 63 121 48 131 48 c 0
 152 48 196 101 199 104 c 1
 202 104 209 92 209 86 c 1
 198 67 127 -6 81 -6 c 0
 60 -6 48 16 48 45 c 0
 48 53 51 76 55 97 c 2
 107 367 l 1
 42 367 l 2
 41 367 40 368 40 370 c 0
 40 380 63 403 85 403 c 2
 114 403 l 1
EndSplineSet
Substitution2: "'smcp' Lowercase to Small Capitals in Latin lookup 3-1" t.sc
EndChar

StartChar: u
Encoding: 117 117 84
Width: 479
Flags: W
HStem: -6 72<101 161> -6 54<301 363> 371 54<91 153>
VStem: 58 75<46 202> 107 73<252 397> 278 73<21 183>
LayerCount: 2
Fore
SplineSet
285 97 m 0x74
 291 130 296 149 303 182 c 1
 278 127 170 -6 106 -6 c 0
 68 -6 58 27 58 64 c 0xb4
 58 91 65 137 71 165 c 2
 104 315 l 2
 105 321 107 342 107 347 c 0
 107 356 108 371 98 371 c 0
 77 371 32 317 29 314 c 1
 26 314 20 327 20 333 c 1
 31 352 97 425 143 425 c 0
 164 425 181 403 181 374 c 0xac
 181 366 178 343 174 322 c 2
 140 161 l 2
 138 152 133 119 133 108 c 0
 133 86 134 66 151 66 c 0xb4
 186 66 302 190 326 312 c 0
 334 352 340 378 348 419 c 1
 358 422 368 423 378 423 c 0
 388 423 404 422 416 419 c 1
 355 104 l 2
 353 94 352 77 352 72 c 0
 352 63 351 48 361 48 c 0
 382 48 427 101 430 104 c 1
 433 104 439 92 439 86 c 1
 428 67 358 -6 312 -6 c 0
 291 -6 278 16 278 45 c 0
 278 53 281 76 285 97 c 0x74
EndSplineSet
Substitution2: "'smcp' Lowercase to Small Capitals in Latin lookup 3-1" u.sc
EndChar

StartChar: v
Encoding: 118 118 85
Width: 428
Flags: W
HStem: -6 21G<109 146> 371 54<88 150>
VStem: 104 73<64 371> 331 74<268 398>
LayerCount: 2
Fore
SplineSet
182 63 m 1
 251 123 277 160 307 221 c 0
 325 256 331 303 331 325 c 0
 331 346 323 370 306 387 c 1
 312 404 329 425 352 425 c 0
 389 425 405 392 405 347 c 0
 405 224 179 -6 112 -6 c 1
 105 2 104 116 104 145 c 2
 104 347 l 2
 104 356 105 371 95 371 c 0
 74 371 29 317 26 314 c 1
 23 314 17 327 17 333 c 1
 28 352 94 425 140 425 c 0
 161 425 178 401 178 372 c 2
 178 320 l 1
 178 172 l 2
 178 130 179 84 182 63 c 1
EndSplineSet
Substitution2: "'smcp' Lowercase to Small Capitals in Latin lookup 3-1" v.sc
EndChar

StartChar: w
Encoding: 119 119 86
Width: 614
Flags: W
HStem: -6 21G<109 133 328 365> 371 54<88 150>
VStem: 104 73<89 371> 312 70<75 209> 515 74<260 398>
LayerCount: 2
Fore
SplineSet
376 366 m 1
 377 326 379 241 382 179 c 0
 384 137 386 90 396 74 c 1
 448 119 479 162 501 224 c 0
 515 261 515 303 515 325 c 0
 515 346 506 370 489 387 c 1
 495 404 512 425 535 425 c 0
 572 425 589 392 589 347 c 0
 589 224 398 -6 331 -6 c 1
 324 2 313 117 312 146 c 0
 311 171 310 209 310 209 c 1
 245 115 153 -6 112 -6 c 1
 105 2 104 116 104 145 c 2
 104 347 l 2
 104 356 105 371 95 371 c 0
 74 371 29 317 26 314 c 1
 23 314 17 327 17 333 c 1
 28 352 94 425 140 425 c 0
 161 425 178 401 178 372 c 2
 178 320 l 1
 178 172 l 2
 178 130 179 109 182 88 c 1
 226 135 274 218 292 249 c 0
 315 292 325 318 334 339 c 1
 342 349 363 363 376 366 c 1
EndSplineSet
Substitution2: "'smcp' Lowercase to Small Capitals in Latin lookup 3-1" w.sc
EndChar

StartChar: x
Encoding: 120 120 87
Width: 470
Flags: W
HStem: -5 88<26 81> -4 55<269 334> 337 88<360 414> 371 54<119 184>
LayerCount: 2
Fore
SplineSet
288 87 m 2x20
 292 67 301 51 322 51 c 0
 339 51 383 90 394 104 c 1
 397 104 403 91 403 86 c 1
 395 72 327 -4 284 -4 c 0x60
 254 -4 228 28 217 80 c 2
 200 164 l 1
 152 69 125 -5 71 -5 c 0
 57 -5 41 -3 25 7 c 1
 19 15 15 25 15 40 c 0
 15 63 29 83 51 83 c 0
 71 83 75 57 96 55 c 0
 111 54 118 65 125 77 c 0
 151 121 168 153 192 200 c 1
 165 334 l 2
 161 355 152 371 134 371 c 0
 114 371 71 330 60 316 c 1
 57 316 50 330 50 335 c 1
 58 349 126 425 169 425 c 0x90
 199 425 226 394 236 341 c 2
 250 274 l 1
 293 360 319 425 369 425 c 0
 383 425 399 423 415 413 c 1
 421 405 426 395 426 380 c 0
 426 357 412 337 390 337 c 0
 370 337 366 363 345 365 c 0
 330 366 322 355 315 343 c 0
 292 304 277 276 257 238 c 1
 288 87 l 2x20
EndSplineSet
Substitution2: "'smcp' Lowercase to Small Capitals in Latin lookup 3-1" x.sc
EndChar

StartChar: y
Encoding: 121 121 88
Width: 436
Flags: W
HStem: -228 64<-94 17> 371 54<77 171>
VStem: 143 73<15 251> 328 67<233 398>
LayerCount: 2
Fore
SplineSet
129 425 m 0
 213 425 216 75 216 15 c 1
 251 58 328 172 328 278 c 0
 328 338 315 362 304 383 c 1
 312 408 330 425 353 425 c 0
 394 425 396 369 396 348 c 0
 396 119 82 -228 -50 -228 c 0
 -85 -228 -108 -209 -108 -188 c 0
 -108 -171 -101 -153 -86 -145 c 1
 -71 -154 -29 -163 -8 -163 c 0
 53 -163 93 -129 125 -82 c 0
 147 -49 143 19 143 61 c 0
 143 172 132 371 84 371 c 0
 63 371 19 317 16 314 c 1
 13 314 6 327 6 333 c 1
 17 352 83 425 129 425 c 0
EndSplineSet
Substitution2: "'smcp' Lowercase to Small Capitals in Latin lookup 3-1" y.sc
EndChar

StartChar: z
Encoding: 122 122 89
Width: 377
Flags: W
HStem: 0 67<184 255> 31 69<53 167> 324 70<186 303> 357 67<102 176>
VStem: 42 12<292 302>
LayerCount: 2
Fore
SplineSet
142 425 m 0x18
 170 425 193 414 217 405 c 0
 234 399 250 395 271 395 c 0x28
 307 395 351 425 359 425 c 1
 367 421 370 412 370 405 c 0
 370 391 93 94 90 90 c 1
 94 92 114 101 135 101 c 0x58
 156 101 176 93 195 84 c 0
 214 76 231 67 247 67 c 0
 272 67 298 124 304 133 c 1
 313 133 314 125 315 117 c 1
 298 80 259 0 213 0 c 0x88
 190 0 160 11 135 21 c 0
 119 27 87 31 65 31 c 0x48
 37 31 21 10 1 0 c 1
 -5 2 -9 10 -10 19 c 1
 -10 34 283 341 285 345 c 1
 282 343 256 324 224 324 c 0xa8
 203 324 183 333 164 341 c 0
 145 350 128 357 111 357 c 0
 84 357 60 300 54 291 c 1
 47 291 43 298 42 307 c 1
 48 327 97 425 142 425 c 0x18
EndSplineSet
Substitution2: "'smcp' Lowercase to Small Capitals in Latin lookup 3-1" z.sc
EndChar

StartChar: braceleft
Encoding: 123 123 90
Width: 205
Flags: HW
LayerCount: 2
Fore
SplineSet
125 393 m 0
 130 418 124 442 119 466 c 0
 113 491 108 517 114 547 c 0
 133 642 203 705 245 722 c 1
 252 722 258 712 256 703 c 1
 229 690 173 644 163 594 c 0
 156 557 162 532 168 505 c 0
 174 481 179 453 171 414 c 0
 158 351 108 310 83 300 c 1
 104 290 140 249 127 186 c 0
 119 147 104 119 88 95 c 0
 71 68 55 43 48 6 c 0
 38 -44 77 -91 99 -104 c 1
 97 -113 87 -122 80 -122 c 1
 44 -105 -1 -42 18 53 c 0
 24 83 38 109 54 134 c 0
 69 158 84 182 89 207 c 0
 99 259 70 279 37 289 c 1
 36 291 36 296 37 300 c 0
 38 304 38 309 40 311 c 1
 77 321 115 341 125 393 c 0
EndSplineSet
Substitution2: "'smcp' Lowercase to Small Capitals in Latin lookup 3-1" braceleft.sc
EndChar

StartChar: bar
Encoding: 124 124 91
Width: 202
Flags: W
VStem: 0 223
LayerCount: 2
Fore
SplineSet
165 739 m 1
 175 749 190 755 208 755 c 0
 215 755 224 752 223 748 c 2
 59 -104 l 1
 52 -112 33 -120 14 -120 c 0
 8 -120 -1 -117 0 -112 c 2
 165 739 l 1
EndSplineSet
Substitution2: "'smcp' Lowercase to Small Capitals in Latin lookup 3-1" bar.sc
EndChar

StartChar: braceright
Encoding: 125 125 92
Width: 207
Flags: HW
LayerCount: 2
Fore
SplineSet
140 722 m 1
 176 705 223 642 204 547 c 0
 198 517 183 491 167 466 c 0
 152 442 137 418 132 393 c 0
 122 341 152 321 185 311 c 1
 186 309 186 304 185 300 c 0
 184 295 183 292 181 289 c 1
 144 279 106 259 96 207 c 0
 91 182 98 158 103 134 c 0
 109 109 114 83 108 53 c 0
 89 -42 18 -105 -24 -122 c 1
 -31 -122 -37 -113 -35 -104 c 1
 -8 -91 49 -44 59 6 c 0
 66 43 59 68 53 95 c 0
 47 119 42 147 50 186 c 0
 63 249 113 290 138 300 c 1
 117 310 81 351 94 414 c 0
 102 453 117 481 133 505 c 0
 150 532 166 557 173 594 c 0
 183 644 144 690 122 703 c 1
 124 712 133 722 140 722 c 1
EndSplineSet
Substitution2: "'smcp' Lowercase to Small Capitals in Latin lookup 3-1" braceright.sc
EndChar

StartChar: asciitilde
Encoding: 126 126 93
Width: 532
Flags: W
HStem: 244 50<304 438> 296 50<115 246>
LayerCount: 2
Fore
SplineSet
192 346 m 0
 278 346 310 294 396 294 c 0
 431 294 456 315 486 337 c 1
 488 335 492 333 492 327 c 0
 492 298 429 244 360 244 c 0
 274 244 240 296 154 296 c 0
 119 296 93 275 63 253 c 1
 61 255 58 257 58 263 c 0
 58 301 138 346 192 346 c 0
EndSplineSet
Substitution2: "'smcp' Lowercase to Small Capitals in Latin lookup 3-1" asciitilde.sc
EndChar

StartChar: exclamdown
Encoding: 161 161 95
Width: 198
VWidth: 0
Flags: W
HStem: 316 113<89 156>
VStem: -36 89<-247 -121> 69 105<334 410>
LayerCount: 2
Fore
SplineSet
0 -263 m 19
 -24 -263 -36 -242 -36 -218 c 0
 -36 -194 -31 -188 80 250 c 0
 83 262 90 274 96 271 c 0
 109 264 112 261 112 251 c 1
 112 251 54 -194 53 -201 c 0
 47 -231 28 -263 0 -263 c 19
69 360 m 0
 69 396 101 430 133 430 c 0
 158 430 175 409 175 384 c 0
 175 347 143 316 111 316 c 0
 86 316 69 335 69 360 c 0
EndSplineSet
Substitution2: "'smcp' Lowercase to Small Capitals in Latin lookup 3-1" exclamdown.sc
EndChar

StartChar: cent
Encoding: 162 162 96
Width: 349
Flags: W
HStem: -6 58<116 186> 385 40<191 278>
VStem: 18 76<73 240>
LayerCount: 2
Fore
SplineSet
248 463 m 17
 255 463 279 462 278 455 c 9
 106 -44 l 17
 98 -44 75 -42 76 -35 c 9
 248 463 l 17
EndSplineSet
Refer: 66 99 N 1 0 0 1 -6 0 2
EndChar

StartChar: sterling
Encoding: 163 163 97
Width: 436
UnlinkRmOvrlpSave: 1
Flags: W
HStem: -8 67<214 311> 28 62<66 176> 273 38<59 294> 579 41<252 348>
LayerCount: 2
Fore
SplineSet
65 312 m 1x30
 91 312 291 312 304 312 c 1
 308 312 299 280 287 273 c 1
 261 273 62 273 49 273 c 1
 44 286 55 302 65 312 c 1x30
168 242 m 0
 154 169 114 115 85 86 c 1
 103 93 118 91 158 91 c 0x70
 207 91 260 60 295 60 c 0
 335 60 358 109 375 131 c 1
 379 131 384 124 384 114 c 0
 384 110 383 107 382 105 c 0
 362 69 317 -8 253 -8 c 0xb0
 194 -8 132 28 87 28 c 0x70
 59 28 31 7 12 -9 c 1
 0 -9 -3 4 -2 10 c 1
 19 39 35 55 55 80 c 1
 76 125 88 176 99 231 c 0
 107 274 104 347 116 407 c 0
 140 530 233 620 331 620 c 0
 365 620 384 607 394 584 c 1
 394 560 379 526 356 526 c 0
 319 526 324 579 287 579 c 0
 225 579 202 505 189 439 c 0
 178 381 177 289 168 242 c 0
EndSplineSet
EndChar

StartChar: currency
Encoding: 164 164 98
Width: 492
Flags: W
HStem: 117 31<190 276> 452 32<229 316>
VStem: 82 68<192 354> 354 67<247 408>
LayerCount: 2
Fore
SplineSet
231 148 m 0
 297 148 354 243 354 333 c 0
 354 401 322 452 274 452 c 0
 208 452 150 357 150 267 c 0
 150 199 183 148 231 148 c 0
383 444 m 1
 447 498 l 2
 448 499 450 499 451 499 c 3
 461 499 475 476 477 455 c 1
 411 400 l 1
 418 381 422 361 422 339 c 0
 422 276 390 222 367 194 c 1
 405 138 l 2
 405 137 406 137 406 136 c 3
 406 126 378 104 357 98 c 1
 321 151 l 1
 290 130 254 117 218 117 c 0
 179 117 145 132 122 156 c 1
 64 107 l 2
 63 106 62 106 61 106 c 3
 51 106 37 129 35 150 c 1
 94 200 l 1
 86 219 82 240 82 262 c 0
 82 323 112 379 143 413 c 1
 106 468 l 2
 106 469 105 469 105 470 c 3
 105 480 133 502 154 508 c 1
 190 454 l 1
 220 474 255 484 289 484 c 0
 328 484 360 469 383 444 c 1
EndSplineSet
EndChar

StartChar: yen
Encoding: 165 165 99
Width: 578
Flags: W
HStem: -3 27<144 210 294 350> 135 37<153 404> 211 37<168 419> 590 27<87 130 258 308 436 487 562 619>
LayerCount: 2
Fore
SplineSet
169 211 m 2
 166 211 165 215 165 219 c 0
 165 226 171 242 178 248 c 1
 418 248 l 2
 420 248 421 245 421 241 c 0
 421 236 419 220 410 211 c 1
 169 211 l 2
155 135 m 2
 152 135 151 139 151 143 c 0
 151 150 156 166 163 172 c 1
 404 172 l 2
 406 172 407 169 407 165 c 0
 407 160 404 144 395 135 c 1
 155 135 l 2
228 108 m 2
 255 249 l 2
 256 256 257 265 254 275 c 2
 176 511 l 2
 164 545 153 560 132 575 c 0
 119 585 97 590 86 590 c 0
 81 590 85 612 91 617 c 1
 133 615 156 612 199 612 c 0
 242 612 276 615 311 617 c 1
 312 611 309 590 304 590 c 0
 292 590 251 585 246 561 c 0
 244 553 247 544 251 532 c 2
 325 309 l 1
 384 391 472 524 488 552 c 0
 490 555 492 559 493 565 c 0
 494 571 484 589 435 589 c 1
 432 592 436 612 439 616 c 1
 470 614 496 611 527 611 c 0
 572 611 588 614 623 616 c 1
 623 613 618 589 615 589 c 0
 608 589 559 589 532 552 c 2
 341 280 l 2
 333 269 334 261 332 252 c 2
 303 108 l 2
 297 80 292 54 294 39 c 0
 295 28 340 24 351 24 c 1
 354 19 352 2 346 -3 c 1
 311 -1 278 2 245 2 c 0
 212 2 178 -1 142 -3 c 1
 138 2 143 19 148 24 c 1
 159 24 205 28 210 39 c 0
 218 54 222 80 228 108 c 2
EndSplineSet
EndChar

StartChar: brokenbar
Encoding: 166 166 100
Width: 206
VWidth: 0
Flags: W
VStem: 2 222
LayerCount: 2
Fore
SplineSet
166 736 m 1
 176 746 191 752 209 752 c 27
 216 752 225 749 224 745 c 2
 156 391 l 1
 149 383 131 374 112 374 c 27
 106 374 97 377 98 382 c 2
 166 736 l 1
70 242 m 1
 80 252 95 258 113 258 c 27
 120 258 129 255 128 251 c 2
 61 -104 l 1
 54 -112 35 -120 16 -120 c 27
 10 -120 1 -117 2 -112 c 2
 70 242 l 1
EndSplineSet
EndChar

StartChar: section
Encoding: 167 167 101
Width: 385
UnlinkRmOvrlpSave: 1
Flags: W
HStem: -76 49<35 148> 589 49<246 359>
LayerCount: 2
Fore
SplineSet
341 638 m 0
 239 638 163 573 147 495 c 0
 133 425 186 370 221 327 c 0
 261 278 301 213 285 132 c 0
 276 89 256 69 229 32 c 0
 229 32 205 14 192 -3 c 24
 184 -14 184 -22 180 -34 c 17
 219 -9 328 103 342 175 c 0
 359 259 314 327 276 374 c 0
 242 416 188 491 197 536 c 0
 204 573 252 589 280 589 c 0
 294 589 301 585 308 581 c 0
 316 576 322 569 338 569 c 0
 353 569 375 590 378 604 c 0
 379 610 381 620 378 630 c 1
 366 636 354 638 341 638 c 0
165 529 m 0
 165 529 189 547 202 564 c 24
 210 575 209 584 213 596 c 17
 174 571 65 459 51 387 c 0
 34 303 80 235 118 188 c 0
 152 146 206 70 197 25 c 0
 190 -12 141 -27 113 -27 c 0
 99 -27 93 -24 86 -20 c 0
 78 -15 71 -8 55 -8 c 0
 40 -8 19 -29 16 -43 c 0
 15 -49 13 -58 16 -68 c 1
 28 -74 39 -76 52 -76 c 0
 154 -76 231 -12 247 66 c 0
 261 136 207 191 172 234 c 0
 132 283 93 349 109 430 c 0
 118 473 138 492 165 529 c 0
EndSplineSet
EndChar

StartChar: copyright
Encoding: 169 169 103
Width: 588
Flags: W
HStem: 67 30<192 336> 190 31<261 366> 438 33<290 394> 570 30<280 427>
VStem: 56 29<208 366> 175 54<246 381> 413 21<385 414> 533 28<302 457>
LayerCount: 2
Fore
SplineSet
334 472 m 0
 361 472 404 466 432 453 c 1
 433 451 434 448 434 445 c 16
 435 431 435 405 435 396 c 0
 435 385 422 385 419 385 c 0
 417 385 414 386 413 387 c 1
 413 400 403 438 339 438 c 0
 285 438 229 381 229 308 c 0
 229 249 269 222 305 222 c 0
 379 222 386 260 394 272 c 1
 394 272 395 273 397 273 c 27
 403 273 411 270 411 270 c 1
 410 267 388 212 381 209 c 0
 350 196 319 190 281 190 c 0
 218 190 175 237 175 300 c 0
 175 385 248 472 334 472 c 0
360 601 m 0
 479 601 562 510 562 389 c 0
 562 220 411 67 256 67 c 0
 137 67 56 158 56 279 c 0
 56 448 205 601 360 601 c 0
354 570 m 0
 218 570 85 435 85 285 c 0
 85 179 158 98 263 98 c 0
 399 98 533 233 533 382 c 0
 533 489 459 570 354 570 c 0
EndSplineSet
EndChar

StartChar: ordfeminine
Encoding: 170 170 104
Width: 371
VWidth: 0
Flags: W
HStem: 243 40<122 168 259 293> 517 27<213 286>
VStem: 58 56<288 409> 226 57<262 368>
LayerCount: 2
Fore
SplineSet
251 243 m 0
 235 243 226 258 226 279 c 0
 226 285 227 300 230 315 c 0
 232 328 234 331 235 336 c 1
 219 312 167 244 124 244 c 0
 83 244 58 276 58 324 c 0
 58 442 181 544 272 544 c 0
 298 544 316 540 331 535 c 1
 285 319 l 2
 284 316 282 301 282 298 c 0
 282 292 282 281 289 281 c 0
 305 281 341 318 343 320 c 1
 345 320 350 312 350 308 c 1
 342 295 286 243 251 243 c 0
238 517 m 0
 180 517 113 429 113 351 c 0
 113 309 125 283 151 283 c 0
 189 283 242 370 257 435 c 2
 272 507 l 1
 265 514 248 517 238 517 c 0
EndSplineSet
EndChar

StartChar: guillemotleft
Encoding: 171 171 105
Width: 472
VWidth: 0
Flags: W
VStem: 26 87<215 261> 202 87<215 261>
LayerCount: 2
Fore
SplineSet
391 89 m 1
 386 80 376 74 370 71 c 1
 341 109 271 178 212 223 c 0
 206 227 202 230 202 236 c 0
 202 247 210 256 217 260 c 0
 325 322 367 359 436 413 c 1
 440 412 451 407 453 398 c 1
 448 386 289 243 289 243 c 1
 289 243 391 97 391 89 c 1
215 89 m 1
 210 80 200 74 194 71 c 1
 165 109 95 178 36 223 c 0
 30 227 26 230 26 236 c 0
 26 247 34 256 41 260 c 0
 149 322 191 359 260 413 c 1
 264 412 275 407 277 398 c 1
 272 386 113 243 113 243 c 1
 113 243 215 97 215 89 c 1
EndSplineSet
EndChar

StartChar: logicalnot
Encoding: 172 172 106
Width: 527
VWidth: 0
Flags: W
HStem: 307 42<49 424>
LayerCount: 2
Fore
SplineSet
68 349 m 2
 481 349 l 1
 436 112 l 1
 433 109 415 101 401 101 c 27
 395 101 387 102 388 108 c 2
 424 307 l 9
 51 307 l 1
 51 307 48 314 48 320 c 0
 48 337 59 349 68 349 c 2
EndSplineSet
EndChar

StartChar: registered
Encoding: 174 174 107
Width: 588
Flags: W
HStem: 130 31<203 353> 266 13<182 208 267 286 420 437> 397 21<288 310> 517 24<291 366> 528 12<234 252> 633 31<290 439>
VStem: 373 45<428 514>
LayerCount: 2
Fore
SplineSet
336 517 m 27xf6
 308 517 304 513 303 507 c 26
 289 434 l 2
 289 432 288 431 288 430 c 3
 288 419 310 418 325 418 c 27
 355 418 373 449 373 479 c 3
 373 506 357 517 336 517 c 27xf6
346 541 m 27
 383 541 418 521 418 481 c 3
 418 444 395 421 362 404 c 16
 361 403 361 402 361 401 c 2
 361 400 l 1
 363 388 377 353 392 325 c 0
 406 298 416 279 438 279 c 1
 438 275 437 271 436 269 c 1
 432 267 425 266 418 266 c 3
 360 266 349 287 310 389 c 0
 307 396 301 397 293 397 c 0
 284 397 282 396 281 390 c 26
 264 303 l 1
 264 292 l 2
 264 289 265 285 267 284 c 0
 273 281 282 278 286 278 c 0
 287 278 287 276 287 275 c 27
 287 271 286 270 285 266 c 25
 266 267 255 268 236 268 c 27
 215 268 203 267 182 266 c 25
 182 269 181 270 181 273 c 27
 181 275 183 276 184 278 c 17
 220 283 212 288 220 322 c 25
 252 487 l 26
 254 498 256 505 256 516 c 0
 256 525 241 528 235 528 c 3
 234 528 233 529 233 530 c 27
 233 534 235 536 236 540 c 25xee
 253 539 261 537 278 537 c 27
 304 537 320 541 346 541 c 27
372 664 m 0
 509 664 598 544 570 397 c 0
 542 250 406 130 269 130 c 0
 132 130 45 250 73 397 c 0
 101 544 235 664 372 664 c 0
368 633 m 0
 247 633 128 527 103 397 c 0
 78 267 155 161 276 161 c 0
 397 161 516 267 541 397 c 0
 566 527 489 633 368 633 c 0
EndSplineSet
EndChar

StartChar: degree
Encoding: 176 176 109
Width: 259
VWidth: 0
Flags: W
HStem: 427 36<133 210> 583 36<147 226>
VStem: 88 35<472 558> 235 35<490 573>
LayerCount: 2
Fore
SplineSet
123 512 m 0
 123 485 141 463 168 463 c 0
 202 463 235 497 235 535 c 0
 235 562 217 583 190 583 c 0
 156 583 123 552 123 512 c 0
88 505 m 0
 88 568 145 619 197 619 c 0
 240 619 271 586 271 542 c 0
 271 481 215 427 161 427 c 0
 118 427 88 461 88 505 c 0
EndSplineSet
EndChar

StartChar: plusminus
Encoding: 177 177 110
Width: 477
VWidth: 0
Flags: W
HStem: 21 42<1 396> 299 42<55 226 280 450>
LayerCount: 2
Fore
SplineSet
394 62 m 2
 396 62 396 60 396 55 c 0
 396 42 396 33 385 21 c 1
 4 21 l 2
 1 21 -1 23 -1 28 c 0
 -1 41 2 49 12 62 c 1
 394 62 l 2
58 299 m 2
 55 299 54 302 54 307 c 0
 54 320 56 328 66 341 c 1
 233 341 l 1
 267 512 l 2
 270 525 303 527 307 527 c 0
 315 527 316 524 315 520 c 2
 280 341 l 1
 447 341 l 2
 449 341 451 338 451 333 c 0
 451 320 450 311 439 299 c 1
 272 299 l 1
 239 125 l 2
 237 115 220 109 204 109 c 0
 194 109 191 113 191 117 c 2
 226 299 l 1
 58 299 l 2
EndSplineSet
EndChar

StartChar: uni00B2
Encoding: 178 178 111
Width: 336
Flags: W
HStem: 249 53<114 271> 588 43<165 241>
VStem: 253 76<482 575>
LayerCount: 2
Fore
SplineSet
329 551 m 0
 329 497 291 456 249 413 c 0
 199 362 113 302 114 302 c 9
 229 302 l 2
 259 302 277 326 288 351 c 0
 289 354 293 355 297 355 c 0
 299 355 310 349 311 348 c 1
 296 319 269 260 264 249 c 9
 264 249 53 249 49 249 c 1
 48 250 45 261 45 265 c 1
 78 295 163 375 198 415 c 0
 238 461 253 498 253 532 c 0
 253 565 225 588 196 588 c 0
 152 588 128 551 119 539 c 1
 115 539 109 554 110 556 c 1
 117 571 167 631 234 631 c 0
 277 631 329 607 329 551 c 0
EndSplineSet
EndChar

StartChar: uni00B3
Encoding: 179 179 112
Width: 308
Flags: W
HStem: 241 30<109 186> 438 21<129 164> 594 39<164 228>
VStem: 226 69<322 428> 235 54<517 589>
LayerCount: 2
Fore
SplineSet
224 633 m 0xe8
 252 633 289 612 289 567 c 0xe8
 289 527 246 492 215 474 c 1
 258 471 295 429 295 393 c 0
 295 289 176 241 122 241 c 0
 93 241 64 246 50 256 c 1
 48 259 44 266 44 273 c 0
 44 292 61 314 75 314 c 0
 95 314 99 298 108 287 c 0
 119 274 135 271 151 271 c 0
 185 271 226 309 226 377 c 0xf0
 226 418 201 441 164 441 c 0
 152 441 140 440 133 438 c 1
 131 441 129 441 129 444 c 0
 129 446 129 456 130 458 c 1
 179 467 235 501 235 547 c 0
 235 570 220 594 195 594 c 0
 159 594 137 558 131 554 c 1
 127 554 122 564 123 570 c 1
 149 607 180 633 224 633 c 0xe8
EndSplineSet
EndChar

StartChar: mu
Encoding: 181 181 114
Width: 481
Flags: W
HStem: -9 73<114 176 304 351> 407 20<125 134 332 341>
VStem: -11 53<-171 -15>
LayerCount: 2
Fore
SplineSet
392 67 m 5
 379 34 343 -4 312 -4 c 4
 258 -4 262 75 267 137 c 5
 224 62 177 -9 127 -9 c 4
 85 -9 79 49 79 86 c 5
 77 69 42 -34 42 -97 c 7
 42 -131 60 -168 74 -189 c 5
 72 -203 49 -216 31 -216 c 4
 18 -216 -11 -206 -11 -143 c 4
 -11 -77 50 138 70 199 c 5
 75 222 100 376 107 413 c 5
 111 418 121 427 129 427 c 4
 139 427 162 412 171 390 c 5
 168 372 137 281 114 218 c 5
 109 193 106 167 106 146 c 4
 106 102 117 64 136 64 c 4
 183 64 228 148 266 217 c 5
 287 293 296 345 314 413 c 5
 318 418 328 427 336 427 c 4
 346 427 369 412 378 390 c 5
 368 362 304 205 304 205 c 5
 286 125 295 64 337 64 c 4
 360 64 377 80 386 89 c 5
 390 86 393 70 392 67 c 5
EndSplineSet
EndChar

StartChar: paragraph
Encoding: 182 182 115
Width: 471
Flags: W
HStem: -88 42<156 231> 607 36<250 397> 618 23<456 510>
VStem: 62 210<345 518>
LayerCount: 2
Fore
SplineSet
292 644 m 0xd0
 346 644 385 642 420 642 c 0
 455 642 474 644 512 646 c 1
 516 641 511 623 506 618 c 1xb0
 495 618 457 614 452 603 c 0
 444 587 438 559 433 530 c 0
 402 348 395 305 372 182 c 0
 341 22 248 -88 170 -88 c 0
 142 -88 124 -76 117 -63 c 1
 117 -58 117 -53 118 -48 c 0
 121 -28 130 -9 147 -9 c 0
 164 -9 173 -19 184 -31 c 0
 191 -38 198 -46 212 -46 c 0
 250 -46 270 23 300 178 c 1
 367 524 l 2
 373 553 378 586 376 598 c 0
 374 607 365 607 358 607 c 0
 315 607 272 504 272 429 c 0
 272 363 289 333 307 318 c 1
 309 317 316 311 316 309 c 0
 316 284 254 267 224 267 c 0
 105 267 62 361 62 430 c 0
 62 571 209 644 292 644 c 0xd0
EndSplineSet
EndChar

StartChar: periodcentered
Encoding: 183 183 116
Width: 216
VWidth: 0
Flags: W
HStem: 200 114<73 140>
VStem: 53 107<220 295>
LayerCount: 2
Fore
SplineSet
53 246 m 0
 53 282 86 314 118 314 c 0
 143 314 160 295 160 270 c 0
 160 234 128 200 96 200 c 0
 71 200 53 220 53 246 c 0
EndSplineSet
EndChar

StartChar: uni00B9
Encoding: 185 185 118
Width: 263
Flags: W
HStem: 247 22<54 106 179 223>
VStem: 54 193
LayerCount: 2
Fore
SplineSet
103 543 m 1
 100 546 98 553 98 557 c 0
 98 558 99 561 101 562 c 0
 157 588 239 633 241 633 c 2
 242 633 l 2
 246 633 247 625 247 622 c 1
 247 622 237 601 230 565 c 2
 185 334 l 2
 181 314 178 297 179 281 c 0
 180 274 221 269 225 269 c 0
 227 269 227 260 226 256 c 0
 225 253 224 248 223 247 c 1
 201 248 149 250 127 250 c 0
 105 250 77 248 54 247 c 1
 52 250 54 269 57 269 c 0
 64 269 104 274 107 281 c 0
 112 293 115 303 117 315 c 2
 153 500 l 2
 160 536 164 557 155 557 c 0
 141 557 111 546 103 543 c 1
EndSplineSet
EndChar

StartChar: ordmasculine
Encoding: 186 186 119
Width: 331
Flags: W
HStem: 241 21<142 196> 520 21<188 243>
VStem: 62 59<273 424> 261 59<355 513>
LayerCount: 2
Fore
SplineSet
222 520 m 0
 159 520 120 421 120 353 c 0
 120 298 137 263 163 263 c 0
 225 263 261 363 261 431 c 0
 261 486 248 520 222 520 c 0
231 541 m 0
 292 541 319 499 319 440 c 0
 319 344 234 241 148 241 c 0
 87 241 62 280 62 339 c 0
 62 435 145 541 231 541 c 0
EndSplineSet
EndChar

StartChar: guillemotright
Encoding: 187 187 120
Width: 473
VWidth: 0
Flags: W
VStem: 177 87<223 270> 353 87<223 270>
LayerCount: 2
Fore
SplineSet
251 396 m 1
 256 405 265 410 271 413 c 1
 300 375 371 307 430 262 c 0
 436 258 439 254 439 248 c 0
 439 237 432 229 425 225 c 0
 317 163 275 125 206 71 c 1
 202 72 190 77 188 86 c 1
 193 98 353 241 353 241 c 1
 353 241 251 388 251 396 c 1
75 396 m 1
 80 405 90 410 96 413 c 1
 125 375 195 307 254 262 c 0
 260 258 264 254 264 248 c 0
 264 237 256 229 249 225 c 0
 141 163 99 125 30 71 c 1
 26 72 15 77 13 86 c 1
 18 98 177 241 177 241 c 1
 177 241 75 388 75 396 c 1
EndSplineSet
EndChar

StartChar: onequarter
Encoding: 188 188 121
Width: 622
VWidth: 0
Flags: W
HStem: -2 21G<106 144 462 479> 104 45<351 459 531 568> 247 22<38 91 164 208> 607 20G<531 567>
LayerCount: 2
Fore
SplineSet
566 396 m 0
 572 396 578 386 577 381 c 2
 531 148 l 25
 565 148 l 18
 569 148 569 131 567 118 c 0
 566 112 563 106 562 104 c 1
 523 104 l 25
 504 1 l 1
 504 1 490 -2 469 -2 c 0
 455 -2 438 -1 439 3 c 2
 459 104 l 25
 292 104 l 1
 288 106 287 113 288 117 c 1
 545 389 l 2
 550 394 562 396 566 396 c 0
501 307 m 25
 351 148 l 25
 468 148 l 25
 501 307 l 25
88 543 m 1
 85 546 83 553 83 557 c 0
 83 558 84 561 86 562 c 0
 142 588 223 633 225 633 c 2
 226 633 l 2
 230 633 231 625 231 622 c 1
 231 622 221 601 214 565 c 2
 169 334 l 2
 165 314 162 297 163 281 c 0
 164 274 205 269 209 269 c 0
 211 269 212 260 211 256 c 0
 210 253 209 248 208 247 c 1
 186 248 133 250 111 250 c 0
 89 250 61 248 38 247 c 1
 36 250 38 269 41 269 c 0
 48 269 89 274 92 281 c 0
 97 293 99 303 101 315 c 2
 137 500 l 2
 144 536 148 557 139 557 c 0
 125 557 96 546 88 543 c 1
566 611 m 2
 131 -6 l 1
 131 -6 106 -7 106 4 c 0
 106 6 107 8 108 10 c 26
 545 627 l 1
 545 627 567 627 567 616 c 0
 567 614 567 612 566 611 c 2
EndSplineSet
EndChar

StartChar: onehalf
Encoding: 189 189 122
Width: 672
VWidth: 0
Flags: W
HStem: -6 21G<107 145> 2 53<419 577> 247 22<39 92 165 209> 341 43<470 546> 607 20G<532 568>
VStem: 558 76<235 328>
LayerCount: 2
Fore
SplineSet
634 304 m 0x7c
 634 250 596 209 554 166 c 0
 504 115 418 55 419 55 c 9
 535 55 l 2
 565 55 583 79 594 104 c 0
 595 107 598 108 602 108 c 0
 604 108 615 102 616 101 c 1
 601 72 574 13 569 2 c 9
 569 2 358 2 354 2 c 1
 353 3 350 14 350 18 c 1
 383 48 469 128 504 168 c 0
 544 214 558 251 558 285 c 0
 558 318 531 341 502 341 c 0
 458 341 433 304 424 292 c 1
 420 292 415 307 416 309 c 1
 423 324 473 384 540 384 c 0
 583 384 634 360 634 304 c 0x7c
89 543 m 1
 86 546 84 553 84 557 c 0
 84 558 85 561 87 562 c 0
 143 588 224 633 226 633 c 2
 227 633 l 2
 231 633 232 625 232 622 c 1
 232 622 222 601 215 565 c 2
 170 334 l 2
 166 314 163 297 164 281 c 0
 165 274 206 269 210 269 c 0
 212 269 213 260 212 256 c 0
 211 253 210 248 209 247 c 1
 187 248 134 250 112 250 c 0
 90 250 62 248 39 247 c 1
 37 250 39 269 42 269 c 0
 49 269 90 274 93 281 c 0
 98 293 100 303 102 315 c 2
 138 500 l 2
 145 536 149 557 140 557 c 0
 126 557 97 546 89 543 c 1
567 611 m 2
 132 -6 l 1xbc
 132 -6 107 -7 107 4 c 0
 107 6 108 8 109 10 c 26
 546 627 l 1
 546 627 568 627 568 616 c 0
 568 614 568 612 567 611 c 2
EndSplineSet
EndChar

StartChar: threequarters
Encoding: 190 190 123
Width: 635
VWidth: 0
Flags: W
HStem: -2 21G<106 145 477 494> 104 45<366 474 546 583> 241 30<97 174> 438 21<116 151> 594 39<151 215> 607 20G<531 567>
VStem: 213 69<322 428> 223 54<517 589>
LayerCount: 2
Fore
SplineSet
581 396 m 0xf0
 587 396 593 386 592 381 c 2
 546 148 l 25
 580 148 l 18
 584 148 584 131 582 118 c 0
 581 112 578 106 577 104 c 1
 538 104 l 25
 519 1 l 1
 519 1 504 -2 483 -2 c 0
 469 -2 453 -1 454 3 c 2
 474 104 l 25
 307 104 l 1
 303 106 302 113 303 117 c 1
 560 389 l 2
 565 394 577 396 581 396 c 0xf0
516 307 m 25
 366 148 l 25
 482 148 l 25
 516 307 l 25
211 633 m 0xf9
 239 633 276 612 276 567 c 0xf9
 276 527 233 492 202 474 c 1
 245 471 282 429 282 393 c 0
 282 289 163 241 109 241 c 0
 80 241 51 246 37 256 c 1
 35 259 31 266 31 273 c 0
 31 292 48 314 62 314 c 0
 82 314 87 298 96 287 c 0
 107 274 123 271 139 271 c 0
 173 271 213 309 213 377 c 0xfa
 213 418 188 441 151 441 c 0
 139 441 127 440 120 438 c 1
 118 441 116 441 116 444 c 0
 116 446 116 456 117 458 c 1
 166 467 223 501 223 547 c 0
 223 570 208 594 183 594 c 0
 147 594 124 558 118 554 c 1
 114 554 109 564 110 570 c 1
 136 607 167 633 211 633 c 0xf9
566 611 m 2
 131 -6 l 1
 131 -6 106 -7 106 4 c 0
 106 6 107 8 108 10 c 26
 545 627 l 1xf4
 545 627 567 627 567 616 c 0
 567 614 567 612 566 611 c 2
EndSplineSet
EndChar

StartChar: questiondown
Encoding: 191 191 124
Width: 302
VWidth: 0
Flags: W
HStem: -204 48<28 110> 312 113<162 230>
VStem: -32 50<-145 -44> 142 107<331 405> 155 68<107 187>
LayerCount: 2
Fore
SplineSet
249 381 m 0xf0
 249 344 218 312 186 312 c 0
 161 312 142 332 142 357 c 0
 142 393 176 426 208 426 c 0
 233 426 249 406 249 381 c 0xf0
117 220 m 1
 117 224 122 232 127 235 c 1
 150 235 224 191 224 136 c 3
 224 95 201 73 176 55 c 0
 130 24 106 8 62 -23 c 16
 42 -37 18 -61 18 -98 c 3
 18 -136 39 -156 68 -156 c 0
 111 -156 111 -111 148 -111 c 0
 176 -111 182 -144 182 -162 c 1
 177 -177 135 -204 98 -204 c 0
 25 -204 -32 -139 -32 -78 c 0
 -32 -37 -20 -6 11 23 c 0
 34 44 72 64 123 99 c 0
 147 116 155 131 155 157 c 27xe8
 155 185 128 212 117 220 c 1
EndSplineSet
Substitution2: "'smcp' Lowercase to Small Capitals in Latin lookup 3-1" questiondown.sc
EndChar

StartChar: AE
Encoding: 198 198 131
Width: 766
Flags: W
HStem: -3 26<-55 -4 85 130 266 312 438 605> 300 33<261 379 459 615> 615 33<491 691> 615 26<360 384 492 648>
VStem: 634 28<217 287> 729 18<518 648>
LayerCount: 2
Fore
SplineSet
379 300 m 1xec
 237 300 l 1
 119 128 l 2
 85 79 75 60 75 49 c 0
 75 33 121 23 131 23 c 0
 132 23 131 2 128 -3 c 1
 92 -1 76 2 36 2 c 0
 -6 2 -16 -1 -58 -3 c 1
 -59 -2 -59 23 -55 23 c 0
 -44 23 -6 31 8 44 c 0
 36 69 61 100 85 136 c 2
 386 572 l 2
 388 576 391 581 391 587 c 0
 391 598 382 610 361 610 c 1
 357 613 358 635 361 641 c 1
 457 642 l 2xdc
 542 642 647 648 746 648 c 1
 747 599 754 560 758 516 c 1
 755 513 747 511 740 511 c 0
 733 511 729 513 729 518 c 0
 718 596 683 615 635 615 c 2
 557 615 l 2
 546 615 497 614 493 604 c 0
 486 588 482 560 479 534 c 2
 459 339 l 2
 458 334 477 333 497 333 c 2
 545 333 l 2
 632 333 630 339 653 403 c 0
 655 408 661 410 668 410 c 0
 675 410 680 408 682 405 c 1
 662 221 l 1
 660 219 653 217 646 217 c 0
 639 217 635 220 634 225 c 0
 626 281 622 287 615 293 c 0
 605 300 554 301 520 301 c 0
 495 301 455 301 454 292 c 2
 436 106 l 2
 435 91 430 44 435 39 c 0
 446 29 460 29 498 29 c 2
 541 29 l 2
 591 29 628 39 657 60 c 0
 682 78 705 106 726 158 c 0
 728 162 732 164 739 164 c 0
 748 164 760 161 762 158 c 1
 739 105 704 39 693 -4 c 1
 594 -4 505 0 385 0 c 0
 337 0 264 -3 264 -3 c 1
 262 2 265 28 270 30 c 1
 281 30 330 36 341 49 c 0
 357 68 359 87 362 121 c 2
 379 300 l 1xec
382 333 m 1
 401 537 l 1
 261 333 l 1
 382 333 l 1
EndSplineSet
EndChar

StartChar: Eth
Encoding: 208 208 141
Width: 667
Flags: W
HStem: -3 28<-3 66 156 315> 306 35<70 402> 616 25<118 176 264 414>
LayerCount: 2
Fore
SplineSet
78 341 m 1
 105 341 387 341 400 341 c 0
 404 341 406 337 405 333 c 0
 404 328 400 313 395 306 c 1
 368 306 85 306 72 306 c 0
 68 306 68 312 69 316 c 0
 70 321 71 334 78 341 c 1
EndSplineSet
Refer: 35 68 N 1 0 0 1 0 0 2
EndChar

StartChar: multiply
Encoding: 215 215 148
Width: 401
Flags: W
HStem: 208 60<184 202>
VStem: 166 60<221 253>
LayerCount: 2
Fore
SplineSet
26 66 m 0
 20 66 14 89 14 105 c 1
 164 237 l 2
 165 238 166 239 166 240 c 0
 166 242 162 248 161 249 c 2
 66 379 l 1
 66 393 88 411 93 411 c 0
 95 411 95 409 97 407 c 2
 198 270 l 2
 199 269 201 268 202 268 c 2
 204 269 l 26
 358 406 l 2
 360 408 362 409 364 409 c 0
 371 409 377 387 377 369 c 1
 228 236 l 2
 227 235 226 235 226 234 c 3
 226 233 226 233 227 232 c 2
 324 100 l 1
 324 86 310 66 303 66 c 0
 299 66 297 67 296 69 c 2
 195 206 l 2
 194 207 193 208 192 208 c 0
 191 208 189 207 188 206 c 2
 31 69 l 2
 29 67 28 66 26 66 c 0
EndSplineSet
Substitution2: "'smcp' Lowercase to Small Capitals in Latin lookup 3-1" multiply.sc
EndChar

StartChar: Oslash
Encoding: 216 216 149
Width: 693
Flags: W
HStem: -11 28<255 383> 620 29<332 462> 632 20G<582 602>
VStem: 60 92<146 395> 564 92<240 489>
LayerCount: 2
Fore
SplineSet
115 -13 m 17xb8
 107 -10 89 4 94 10 c 9
 598 651 l 17
 606 649 625 636 620 630 c 9
 115 -13 l 17xb8
EndSplineSet
Refer: 46 79 N 1 0 0 1 0 0 3
EndChar

StartChar: Thorn
Encoding: 222 222 155
Width: 458
Flags: W
HStem: -3 28<-4 65 155 212> 131 25<210 292> 471 28<237 343> 618 28<117 174 265 333>
VStem: 396 87<259 426>
LayerCount: 2
Fore
SplineSet
229 447 m 8
 204 317 164 113 164 113 c 2
 158 84 152 57 154 41 c 0
 155 30 203 25 214 25 c 1
 217 20 214 2 208 -3 c 1
 171 -1 139 2 104 2 c 0
 69 2 33 -1 -5 -3 c 1
 -9 2 -5 20 0 25 c 1
 11 25 61 30 66 41 c 0
 74 57 79 84 85 113 c 2
 166 530 l 2
 172 559 177 587 175 603 c 0
 174 614 126 618 115 618 c 1
 112 623 115 641 121 646 c 1
 158 644 193 642 228 642 c 0
 263 642 297 644 335 646 c 1
 339 641 334 623 329 618 c 1
 318 618 269 614 264 603 c 0
 256 587 251 559 245 530 c 2
 236 488 l 1
 258 497 284 499 306 499 c 0
 410 499 482 441 482 352 c 0
 482 227 374 131 255 131 c 0
 234 131 216 137 211 141 c 0
 209 143 203 151 203 156 c 0
 203 158 205 159 207 160 c 1
 215 156 230 156 239 156 c 0
 311 156 396 229 396 338 c 0
 396 393 383 471 282 471 c 0
 271 471 233 468 229 447 c 8
EndSplineSet
EndChar

StartChar: germandbls
Encoding: 223 223 156
Width: 488
VWidth: 0
Flags: W
HStem: -228 42<-83 -8> -4 29<290 359> 367 36<43 119> 627 42<266 344>
VStem: 246 56<300 370> 374 62<50 145 471 598>
LayerCount: 2
Fore
SplineSet
199 403 m 0
 173 260 156 165 133 42 c 0
 102 -118 9 -228 -69 -228 c 0
 -97 -228 -115 -216 -122 -203 c 1
 -122 -198 -122 -193 -121 -187 c 0
 -118 -167 -110 -148 -93 -148 c 0
 -76 -148 -67 -159 -56 -171 c 0
 -49 -178 -41 -186 -27 -186 c 0
 11 -186 31 -117 61 38 c 1
 119 367 l 1
 36 367 l 2
 35 367 34 368 34 370 c 0
 34 380 57 403 79 403 c 2
 125 403 l 1
 156 563 249 669 327 669 c 0
 377 669 442 636 442 559 c 0
 442 473 385 442 357 416 c 0
 331 392 302 367 302 344 c 3
 302 318 331 292 354 266 c 0
 393 221 436 184 436 119 c 27
 436 48 378 -4 301 -4 c 3
 242 -4 217 17 203 31 c 1
 201 37 197 49 198 57 c 0
 200 84 216 97 237 97 c 3
 265 97 274 25 322 25 c 0
 361 25 374 55 374 86 c 0
 374 128 326 182 301 211 c 0
 273 243 246 271 246 316 c 0
 246 360 270 371 324 425 c 0
 351 452 375 483 375 534 c 0
 375 594 333 627 293 627 c 0
 250 627 228 559 199 403 c 0
EndSplineSet
Substitution2: "'smcp' Lowercase to Small Capitals in Latin lookup 3-1" germandbls.sc
EndChar

StartChar: ae
Encoding: 230 230 163
Width: 545
VWidth: 0
Flags: W
HStem: -8 53<67 142 318 378> 194 30<299 351> 385 40<168 265 379 490>
VStem: 6 74<52 140> 65 72<297 347> 227 63<153 194> 451 72<308 380>
LayerCount: 2
Fore
SplineSet
411 385 m 3xe6
 349 385 308 295 299 225 c 1
 337 225 451 274 451 346 c 3
 451 370 431 385 411 385 c 3xe6
212 105 m 2
 227 196 l 1
 184 188 153 177 131 166 c 0
 89 144 80 120 80 99 c 0xf6
 80 68 99 45 124 45 c 3
 155 45 211 96 212 105 c 2
245 425 m 3
 285 425 311 391 315 357 c 1
 347 394 405 425 457 425 c 0
 523 425 523 375 523 361 c 3
 523 275 366 204 294 194 c 1
 293 188 290 167 290 154 c 0
 290 92 311 52 358 52 c 3
 399 52 454 115 458 119 c 1
 461 119 469 108 470 100 c 1
 435 50 370 -6 320 -6 c 3
 280 -6 233 21 219 68 c 1
 202 47 114 -8 88 -8 c 3
 47 -8 6 17 6 78 c 0xf6
 6 123 40 160 63 176 c 0
 78 186 191 217 227 229 c 0
 234 231 232 238 235 251 c 2
 246 310 l 2
 248 318 248 326 248 330 c 3
 248 353 228 388 193 388 c 0
 164 388 151 367 138 331 c 0
 126 300 109 287 88 287 c 0
 67 287 65 306 65 315 c 0xee
 65 328 71 340 76 348 c 1
 104 372 182 425 245 425 c 3
EndSplineSet
Substitution2: "'smcp' Lowercase to Small Capitals in Latin lookup 3-1" ae.sc
EndChar

StartChar: eth
Encoding: 240 240 173
Width: 426
VWidth: 0
UnlinkRmOvrlpSave: 1
Flags: W
HStem: -5 31<141 212> 394 31<203 278> 656 16<135 152>
VStem: 38 76<48 240> 306 73<416 476>
LayerCount: 2
Back
SplineSet
246.09375 393.5546875 m 0
 226.5625 393.5546875 208.251953125 385.7421875 191.162109375 370.1171875 c 0
 174.072265625 354.4921875 160.075195312 334.635742188 149.169921875 310.546875 c 0
 138.264648438 286.458007812 129.719726562 260.661132812 123.53515625 233.154296875 c 0
 117.350585938 205.647460938 114.2578125 179.362304688 114.2578125 154.296875 c 0
 114.2578125 114.909179688 119.140625 83.740234375 128.90625 60.791015625 c 0
 138.671875 37.841796875 152.34375 26.3671875 169.921875 26.3671875 c 0
 189.127929688 26.3671875 207.112304688 34.2607421875 223.876953125 50.048828125 c 0
 240.641601562 65.8369140625 254.231445312 85.8564453125 264.6484375 110.107421875 c 0
 275.065429688 134.358398438 283.203125 160.237304688 289.0625 187.744140625 c 0
 294.921875 215.250976562 297.8515625 241.536132812 297.8515625 266.6015625 c 0
 297.8515625 306.640625 293.538085938 337.809570312 284.912109375 360.107421875 c 0
 276.286132812 382.405273438 263.346679688 393.5546875 246.09375 393.5546875 c 0
259.765625 424.8046875 m 0
 297.526367188 424.8046875 326.008789062 411.865234375 345.21484375 385.986328125 c 0
 364.420898438 360.107421875 374.0234375 325.1953125 374.0234375 281.25 c 0
 374.0234375 247.721679688 367.594726562 213.623046875 354.736328125 178.955078125 c 0
 341.877929688 144.287109375 325.276367188 113.525390625 304.931640625 86.669921875 c 0
 284.586914062 59.814453125 260.7421875 37.841796875 233.3984375 20.751953125 c 0
 206.0546875 3.662109375 178.7109375 -4.8828125 151.3671875 -4.8828125 c 0
 113.606445312 -4.8828125 85.2861328125 7.4873046875 66.40625 32.2265625 c 0
 47.5263671875 56.9658203125 38.0859375 91.1455078125 38.0859375 134.765625 c 0
 38.0859375 168.293945312 44.43359375 202.555664062 57.12890625 237.548828125 c 0
 69.82421875 272.541992188 86.3447265625 303.7109375 106.689453125 331.0546875 c 0
 127.034179688 358.3984375 150.797851562 380.859375 177.978515625 398.4375 c 0
 205.159179688 416.015625 232.421875 424.8046875 259.765625 424.8046875 c 0
EndSplineSet
Fore
SplineSet
152 497 m 17
 146 502 139 520 144 528 c 9
 384 688 l 17
 390 682 397 662 394 657 c 9
 152 497 l 17
253 425 m 0
 274 425 294 423 306 416 c 1
 308 494 249 627 132 656 c 1
 133 663 138 672 145 672 c 1
 302 646 379 497 379 345 c 0
 379 131 259 -5 149 -5 c 0
 62 -5 38 71 38 137 c 0
 38 244 129 425 253 425 c 0
245 394 m 0
 182 394 114 285 114 154 c 0
 114 109 122 26 171 26 c 0
 233 26 298 132 298 267 c 0
 298 293 297 332 295 345 c 0
 291 371 267 394 245 394 c 0
EndSplineSet
Substitution2: "'smcp' Lowercase to Small Capitals in Latin lookup 3-1" eth.sc
EndChar

StartChar: divide
Encoding: 247 247 180
Width: 495
VWidth: 0
Flags: W
HStem: 4 98<175 238> 219 46<34 454> 381 98<247 311>
VStem: 165 85<15 92> 237 86<392 469>
LayerCount: 2
Fore
SplineSet
36 219 m 2xe0
 33 219 32 224 32 229 c 0
 32 240 37 257 42 265 c 1
 453 265 l 2
 455 265 456 262 456 257 c 0
 456 244 450 229 444 219 c 1
 36 219 l 2xe0
287 479 m 27
 308 479 323 460 323 439 c 27
 323 409 301 381 271 381 c 27
 250 381 237 403 237 424 c 27xe8
 237 453 258 479 287 479 c 27
215 102 m 27
 236 102 250 83 250 62 c 27
 250 32 228 4 198 4 c 27
 177 4 165 26 165 47 c 27xf0
 165 76 186 102 215 102 c 27
EndSplineSet
Substitution2: "'smcp' Lowercase to Small Capitals in Latin lookup 3-1" divide.sc
EndChar

StartChar: oslash
Encoding: 248 248 181
Width: 404
VWidth: 0
Flags: W
HStem: -5 31<126 198> 0 21G<48 66> 394 31<188 260>
VStem: 23 76<48 244> 283 76<173 375>
LayerCount: 2
Fore
SplineSet
51 0 m 17x78
 45 3 28 14 32 20 c 9
 333 409 l 17
 339 406 356 397 352 391 c 9
 51 0 l 17x78
EndSplineSet
Refer: 78 111 N 1 0 0 1 0 0 2
Substitution2: "'smcp' Lowercase to Small Capitals in Latin lookup 3-1" oslash.sc
EndChar

StartChar: thorn
Encoding: 254 254 187
Width: 438
Flags: W
HStem: -229 28<-52 -12> -221 26<87 133> -5 34<143 221> 371 54<253 345> 617 21<90 146> 650 20G<212 225>
VStem: 150 79<530 652> 326 72<194 360>
LayerCount: 2
Fore
SplineSet
216 578 m 2xbf
 213 559 170 345 169 338 c 1
 195 362 264 425 314 425 c 0
 376 425 399 375 399 307 c 0
 399 156 272 -5 153 -5 c 0
 136 -5 114 -2 108 8 c 1
 75 -142 l 2
 73 -151 73 -159 73 -169 c 0
 73 -174 76 -188 86 -191 c 0
 103 -195 129 -194 132 -194 c 0
 136 -195 134 -220 129 -222 c 1
 116 -222 106 -221 95 -221 c 0x7f
 45 -221 7 -222 -50 -229 c 1
 -55 -228 -54 -204 -49 -201 c 1
 -31 -201 -18 -197 -9 -186 c 0
 -2 -177 1 -166 6 -144 c 2
 83 244 l 1
 36 197 l 1
 32 202 31 212 31 217 c 0
 31 221 32 223 33 224 c 2
 91 285 l 1
 141 547 l 2
 144 565 150 588 150 599 c 0
 150 618 106 617 90 617 c 1
 87 621 90 634 94 638 c 1
 148 643 202 662 223 670 c 1
 228 667 229 657 229 651 c 0
 229 643 221 602 216 578 c 2xbf
275 371 m 0
 243 371 185 330 159 293 c 1
 127 128 l 2
 116 70 144 29 173 29 c 0
 256 29 326 180 326 296 c 0
 326 350 306 371 275 371 c 0
EndSplineSet
Substitution2: "'smcp' Lowercase to Small Capitals in Latin lookup 3-1" thorn.sc
EndChar

StartChar: dagger
Encoding: 8224 8224 190
Width: 349
Flags: W
HStem: -8 21G<121 124> 427 79<74 131 304 357> 454 21<133 188 238 301> 627 20G<234 254>
VStem: 119 11<-6 19>
LayerCount: 2
Fore
SplineSet
175 475 m 8xb8
 190 475 195 480 207 493 c 1
 213 525 219 591 205 610 c 1
 209 631 223 646 244 646 c 0
 264 646 283 631 279 610 c 1
 258 591 238 525 232 493 c 1
 239 480 246 475 258 475 c 0xb8
 288 475 316 487 337 506 c 1
 357 506 363 489 363 470 c 0
 363 449 342 427 322 427 c 1xd8
 308 446 282 454 254 454 c 24xb8
 237 454 223 439 221 427 c 1
 224 410 228 384 234 356 c 1
 188 221 174 167 130 4 c 1
 127 -2 125 -7 122 -8 c 1
 119 -7 120 0 119 4 c 1
 139 167 145 221 151 356 c 1
 166 380 182 410 192 427 c 1xd8
 194 439 185 454 171 454 c 24xb8
 139 454 113 446 92 427 c 1
 72 427 64 439 64 460 c 0
 64 481 87 506 107 506 c 1xd8
 121 487 145 475 175 475 c 8xb8
EndSplineSet
EndChar

StartChar: daggerdbl
Encoding: 8225 8225 191
Width: 368
Flags: W
HStem: -8 21G<121 141> 133 79<24 77 249 308> 164 21<80 143 192 248> 427 79<82 140 312 366> 454 21<141 197 247 310> 627 20G<248 268>
LayerCount: 2
Fore
SplineSet
229 282 m 1x94
 212 254 198 229 188 212 c 1xd4
 186 200 195 185 210 185 c 24xa4
 240 185 268 193 289 212 c 1
 309 212 320 195 316 174 c 0
 312 153 293 133 273 133 c 1xc4
 259 152 236 164 206 164 c 0
 194 164 186 159 174 146 c 1
 168 114 161 47 175 28 c 1
 171 7 152 -8 132 -8 c 0
 111 -8 96 7 100 28 c 1
 121 47 142 114 148 146 c 1
 141 159 136 164 123 164 c 16xa4
 93 164 65 152 44 133 c 1
 24 133 13 153 17 174 c 0
 21 195 39 212 59 212 c 1xc4
 73 193 97 185 127 185 c 24xa4
 142 185 157 200 159 212 c 1
 156 229 150 258 145 282 c 1
 160 299 165 303 180 319 c 1
 171 334 172 333 160 356 c 1
 175 380 191 410 201 427 c 1xd4
 203 439 195 454 180 454 c 24x8c
 150 454 121 446 100 427 c 1
 80 427 70 444 74 465 c 0
 78 486 96 506 116 506 c 1x94
 130 487 153 475 183 475 c 8
 196 475 204 480 216 493 c 1
 222 525 228 591 214 610 c 1
 218 631 238 646 259 646 c 0
 279 646 292 631 288 610 c 1
 267 591 247 525 241 493 c 1
 248 480 254 475 266 475 c 0x8c
 296 475 325 487 346 506 c 1
 366 506 377 486 373 465 c 0
 369 444 351 427 331 427 c 1x94
 317 446 293 454 263 454 c 24x8c
 248 454 231 439 229 427 c 1
 232 410 237 384 243 356 c 1
 223 335 223 334 209 319 c 1
 216 306 218 302 229 282 c 1x94
EndSplineSet
EndChar

StartChar: bullet
Encoding: 8226 8226 192
Width: 326
Flags: W
HStem: 151 211<120 204>
VStem: 64 195
LayerCount: 2
Fore
SplineSet
64 257 m 0
 75 315 129 362 183 362 c 0
 237 362 271 315 260 257 c 0
 249 199 196 151 142 151 c 0
 88 151 53 199 64 257 c 0
EndSplineSet
EndChar

StartChar: uni2010
Encoding: 8208 8208 193
Width: 361
VWidth: 0
Flags: W
VStem: 51 248<205 255>
LayerCount: 2
Fore
SplineSet
71 255 m 2
 293 267 l 2
 298 267 299 260 299 255 c 0
 299 242 286 206 276 205 c 10
 56 194 l 2
 53 194 51 201 51 209 c 0
 51 220 60 254 71 255 c 2
EndSplineSet
EndChar

StartChar: uni2011
Encoding: 8209 8209 194
Width: 361
VWidth: 0
Flags: W
VStem: 51 248<205 255>
LayerCount: 2
Fore
SplineSet
71 255 m 2
 293 267 l 2
 298 267 299 260 299 255 c 0
 299 242 286 206 276 205 c 10
 56 194 l 2
 53 194 51 201 51 209 c 0
 51 220 60 254 71 255 c 2
EndSplineSet
EndChar

StartChar: figuredash
Encoding: 8210 8210 195
Width: 503
Flags: W
HStem: 195 61<57 433>
LayerCount: 2
Fore
SplineSet
434 256 m 2
 438 256 439 250 439 243 c 0
 439 229 430 202 418 195 c 1
 57 195 l 2
 53 195 51 201 51 208 c 0
 51 222 60 249 72 256 c 1
 434 256 l 2
EndSplineSet
EndChar

StartChar: endash
Encoding: 8211 8211 196
Width: 550
Flags: W
HStem: 195 61<58 479>
LayerCount: 2
Fore
SplineSet
479 256 m 2
 483 256 485 250 485 243 c 0
 485 229 476 202 464 195 c 1
 58 195 l 2
 54 195 52 201 52 208 c 0
 52 222 61 249 73 256 c 1
 479 256 l 2
EndSplineSet
EndChar

StartChar: emdash
Encoding: 8212 8212 197
Width: 781
Flags: W
HStem: 195 61<58 709>
LayerCount: 2
Fore
SplineSet
710 256 m 2
 714 256 716 250 716 243 c 0
 716 229 706 202 694 195 c 1
 58 195 l 2
 54 195 52 201 52 208 c 0
 52 222 61 249 73 256 c 1
 710 256 l 2
EndSplineSet
EndChar

StartChar: uni2015
Encoding: 8213 8213 198
Width: 1044
Flags: W
HStem: 195 61<58 973>
LayerCount: 2
Fore
SplineSet
974 256 m 2
 978 256 979 250 979 243 c 0
 979 229 970 202 958 195 c 1
 58 195 l 2
 54 195 52 201 52 208 c 0
 52 222 61 249 73 256 c 1
 974 256 l 2
EndSplineSet
EndChar

StartChar: quoteleft
Encoding: 8216 8216 199
Width: 208
Flags: HW
HStem: 449 263
VStem: 86 102<466 560>
LayerCount: 2
Fore
SplineSet
99 534 m 0
 121 644 244 711 254 711 c 0
 262 711 268 703 270 690 c 1
 196 648 175 595 173 584 c 0
 167 554 208 532 202 500 c 0
 196 472 157 449 122 449 c 0
 114 449 107 451 100 453 c 1
 93 469 93 505 99 534 c 0
EndSplineSet
EndChar

StartChar: onedotenleader
Encoding: 8228 8228 205
Width: 202
Flags: W
HStem: -14 113<27 94>
VStem: 9 105<6 81>
LayerCount: 2
Fore
SplineSet
9 31 m 0
 9 67 39 100 71 100 c 0
 96 100 114 81 114 56 c 0
 114 20 82 -14 50 -14 c 0
 25 -14 9 6 9 31 c 0
EndSplineSet
EndChar

StartChar: ellipsis
Encoding: 8230 8230 206
Width: 664
Flags: W
HStem: -14 113<27 94 259 326 488 556>
VStem: 9 105<6 81> 240 105<6 81> 470 106<7 82>
LayerCount: 2
Fore
SplineSet
470 31 m 0
 470 68 501 100 533 100 c 0
 558 100 576 81 576 56 c 0
 576 20 543 -14 511 -14 c 0
 486 -14 470 6 470 31 c 0
240 31 m 0
 240 67 271 100 303 100 c 0
 328 100 346 81 346 56 c 0
 346 20 313 -14 281 -14 c 0
 256 -14 240 6 240 31 c 0
9 31 m 0
 9 67 39 100 71 100 c 0
 96 100 114 81 114 56 c 0
 114 20 82 -14 50 -14 c 0
 25 -14 9 6 9 31 c 0
EndSplineSet
EndChar

StartChar: perthousand
Encoding: 8240 8240 207
Width: 919
VWidth: 0
Flags: W
HStem: -8 27<377 446 682 750> 293 26<414 482 718 787> 330 27<170 238> 628 20G<605 616> 631 26<207 275>
VStem: 77 62<381 546> 284 62<43 208> 302 63<441 609> 509 63<103 272> 589 62<43 208> 813 63<103 272>
LayerCount: 2
Fore
SplineSet
757 293 m 3xe4e0
 695 293 650 205 650 129 c 27
 650 79 667 20 714 20 c 3
 776 20 813 113 813 190 c 27
 813 236 801 293 757 293 c 3xe4e0
767 319 m 3
 842 319 877 256 877 190 c 3
 877 96 798 -8 702 -8 c 3
 628 -8 589 54 589 120 c 3
 589 216 667 319 767 319 c 3
245 631 m 3xede0
 183 631 139 543 139 467 c 27
 139 417 155 357 202 357 c 3
 264 357 302 451 302 528 c 27
 302 574 289 631 245 631 c 3xede0
255 657 m 3
 330 657 365 594 365 528 c 3
 365 434 286 330 190 330 c 3
 116 330 77 392 77 458 c 3
 77 554 155 657 255 657 c 3
637 635 m 9
 55 0 l 2
 51 -4 35 -12 21 -12 c 27
 14 -12 9 -9 7 -1 c 9
 589 637 l 2
 593 641 600 647 610 647 c 27xf4e0
 622 647 633 645 637 635 c 9
452 293 m 3
 390 293 346 205 346 129 c 27xe6e0
 346 79 362 20 409 20 c 3
 471 20 509 113 509 190 c 27
 509 236 496 293 452 293 c 3
462 319 m 3
 537 319 572 256 572 190 c 3
 572 96 493 -8 397 -8 c 3
 323 -8 284 54 284 120 c 3
 284 216 362 319 462 319 c 3
EndSplineSet
EndChar

StartChar: minute
Encoding: 8242 8242 208
Width: 159
Flags: W
HStem: 482 200
VStem: 135 71<606 672>
LayerCount: 2
Fore
SplineSet
187 683 m 0
 195 683 206 680 206 666 c 0
 206 627 139 528 114 490 c 0
 110 484 107 482 103 482 c 0
 97 482 93 487 94 494 c 0
 95 497 117 597 135 650 c 0
 139 662 169 683 187 683 c 0
EndSplineSet
EndChar

StartChar: second
Encoding: 8243 8243 209
Width: 276
Flags: W
HStem: 482 200
VStem: 135 71<606 672> 254 69<604 672>
LayerCount: 2
Fore
SplineSet
305 683 m 0
 313 683 323 680 323 666 c 0
 323 627 260 531 233 490 c 0
 229 484 225 482 221 482 c 0
 215 482 210 487 211 494 c 0
 212 497 236 597 254 650 c 0
 258 662 287 683 305 683 c 0
187 683 m 0
 195 683 206 680 206 666 c 0
 206 627 139 528 114 490 c 0
 110 484 107 482 103 482 c 0
 97 482 93 487 94 494 c 0
 95 497 117 597 135 650 c 0
 139 662 169 683 187 683 c 0
EndSplineSet
EndChar

StartChar: uni2038
Encoding: 8248 8248 210
Width: 366
Flags: W
HStem: -35 143
VStem: 73 214
LayerCount: 2
Fore
SplineSet
273 -35 m 0
 261 -35 216 11 191 46 c 1
 155 10 91 -35 79 -35 c 0
 74 -35 73 -27 73 -22 c 0
 73 -7 135 17 190 98 c 1
 194 106 196 107 201 107 c 0
 219 107 207 93 240 40 c 0
 252 20 286 -15 287 -18 c 1
 286 -22 279 -35 273 -35 c 0
EndSplineSet
EndChar

StartChar: guilsinglleft
Encoding: 8249 8249 211
Width: 296
VWidth: 0
Flags: W
VStem: 26 87<215 261>
LayerCount: 2
Fore
SplineSet
215 89 m 1
 210 80 200 74 194 71 c 1
 165 109 95 178 36 223 c 0
 30 227 26 230 26 236 c 0
 26 247 34 256 41 260 c 0
 149 322 191 359 260 413 c 1
 264 412 275 407 277 398 c 1
 272 386 113 243 113 243 c 1
 113 243 215 97 215 89 c 1
EndSplineSet
EndChar

StartChar: guilsinglright
Encoding: 8250 8250 212
Width: 297
VWidth: 0
Flags: W
VStem: 177 87<223 270>
LayerCount: 2
Fore
SplineSet
75 396 m 1
 80 405 90 410 96 413 c 1
 125 375 195 307 254 262 c 0
 260 258 264 254 264 248 c 0
 264 237 256 229 249 225 c 0
 141 163 99 125 30 71 c 1
 26 72 15 77 13 86 c 1
 18 98 177 241 177 241 c 1
 177 241 75 388 75 396 c 1
EndSplineSet
EndChar

StartChar: uni203E
Encoding: 8254 8254 213
Width: 802
Flags: W
HStem: 722 61<228 769>
LayerCount: 2
Fore
SplineSet
770 782 m 2
 774 782 775 777 775 770 c 0
 775 756 766 729 754 722 c 1
 228 722 l 2
 224 722 222 727 222 734 c 0
 222 748 231 775 243 782 c 1
 770 782 l 2
EndSplineSet
EndChar

StartChar: Euro
Encoding: 8364 8364 214
Width: 603
Flags: W
HStem: -8 33<277 419> 236 38<30 371> 332 38<45 386> 586 33<340 475>
VStem: 79 89<148 325> 541 30<451 521>
LayerCount: 2
Fore
SplineSet
412 586 m 0
 284 586 166 464 167 262 c 0
 167 151 225 26 348 26 c 0
 395 26 433 46 463 73 c 0
 493 100 514 132 527 160 c 1
 538 160 551 153 551 153 c 1
 548 134 502 37 489 26 c 1
 442 0 396 -8 325 -8 c 0
 192 -8 79 109 79 246 c 0
 79 480 265 622 436 618 c 0
 484 617 538 605 580 594 c 1
 578 561 573 486 571 458 c 0
 571 451 564 451 561 451 c 0
 558 451 545 451 541 458 c 1
 545 532 481 586 412 586 c 0
46 332 m 2
 43 332 42 336 42 340 c 0
 42 347 48 364 55 370 c 1
 385 370 l 2
 387 370 388 366 388 362 c 0
 388 357 385 341 376 332 c 1
 46 332 l 2
31 236 m 2
 28 236 27 240 27 244 c 0
 27 251 33 268 40 274 c 1
 370 274 l 2
 372 274 373 271 373 267 c 0
 373 262 370 245 361 236 c 1
 31 236 l 2
EndSplineSet
EndChar

StartChar: arrowleft
Encoding: 8592 8592 215
Width: 656
Flags: W
HStem: 211 61<116 638>
LayerCount: 2
Fore
SplineSet
179 327 m 10
 116 271 l 25
 639 271 l 18
 643 271 645 266 645 259 c 0
 645 245 635 218 623 211 c 1
 106 211 l 1
 106 211 129 174 146 153 c 16
 184 103 188 103 188 92 c 0
 188 82 172 74 165 71 c 1
 164 73 123 129 8 222 c 0
 5 224 4 227 4 231 c 0
 4 238 8 253 17 262 c 1
 151 339 231 412 232 413 c 1
 244 409 252 404 250 395 c 1
 250 385 245 387 179 327 c 10
EndSplineSet
EndChar

StartChar: arrowup
Encoding: 8593 8593 216
Width: 307
Flags: W
HStem: 428 21G<7 16 291 301>
VStem: 0 318
LayerCount: 2
Fore
SplineSet
148 543 m 1
 84 487 l 1
 19 428 20 428 13 428 c 0
 1 428 2 445 0 450 c 1
 2 451 66 507 180 651 c 0
 183 656 187 658 193 658 c 0
 202 658 211 657 217 650 c 1
 264 522 317 450 318 449 c 1
 312 435 305 427 297 427 c 0
 285 427 290 430 242 493 c 2
 205 542 l 1
 97 -21 l 2
 96 -24 91 -27 84 -27 c 0
 69 -27 46 -21 40 -13 c 1
 148 543 l 1
EndSplineSet
EndChar

StartChar: arrowright
Encoding: 8594 8594 217
Width: 660
Flags: W
HStem: 212 61<13 536>
LayerCount: 2
Fore
SplineSet
536 212 m 1
 13 212 l 2
 9 212 7 218 7 225 c 0
 7 239 16 265 28 272 c 1
 550 272 l 1
 508 331 l 1
 462 392 466 378 466 395 c 1
 469 408 485 410 490 413 c 1
 491 411 531 355 646 262 c 0
 649 260 650 257 650 253 c 0
 650 247 648 231 639 222 c 1
 505 145 423 72 422 71 c 1
 410 75 403 80 405 89 c 1
 405 98 410 98 479 160 c 2
 536 212 l 1
EndSplineSet
EndChar

StartChar: arrowdown
Encoding: 8595 8595 218
Width: 305
Flags: W
VStem: -10 317
LayerCount: 2
Fore
SplineSet
103 88 m 1
 212 651 l 2
 213 655 218 657 225 657 c 0
 239 657 260 651 268 643 c 1
 160 87 l 1
 225 143 l 1
 289 202 282 202 296 202 c 0
 308 202 306 185 308 180 c 1
 306 179 242 123 128 -21 c 0
 125 -26 120 -28 114 -28 c 0
 105 -28 97 -27 91 -20 c 1
 44 108 -9 180 -10 181 c 1
 -4 195 3 203 11 203 c 0
 22 203 16 201 66 135 c 1
 103 88 l 1
EndSplineSet
EndChar

StartChar: summation
Encoding: 8721 8721 219
Width: 556
Flags: W
HStem: 2 44<89 408> 2 28<-21 9> 612 30<99 123>
VStem: 508 28<511 573>
LayerCount: 2
Fore
SplineSet
395 602 m 2x70
 395 602 306 603 281 603 c 0
 249 603 222 601 219 593 c 1
 343 350 l 1
 345 338 344 327 336 319 c 0
 300 284 89 85 89 56 c 0
 89 50 97 46 155 46 c 0xb0
 186 46 222 47 252 47 c 0
 286 47 373 49 402 64 c 0
 422 74 449 106 473 158 c 0
 475 162 479 164 486 164 c 0
 495 164 507 161 509 158 c 1
 482 105 443 39 428 -4 c 1
 329 -4 170 2 87 2 c 0
 26 2 -21 -3 -21 -3 c 1
 -22 -2 -22 1 -22 5 c 0
 -22 13 -19 30 -16 30 c 0
 -6 30 17 50 28 62 c 2
 262 310 l 2
 264 313 265 315 263 319 c 0
 255 339 190 478 139 578 c 0
 130 595 109 612 98 612 c 0
 95 612 95 634 104 643 c 1
 104 643 148 641 209 641 c 0
 293 641 437 648 536 648 c 1
 535 632 535 618 535 603 c 0
 535 574 536 545 536 516 c 1
 533 513 527 511 520 511 c 0
 513 511 508 513 508 518 c 0
 505 574 484 588 476 593 c 0
 462 601 427 602 395 602 c 2x70
EndSplineSet
EndChar

StartChar: minus
Encoding: 8722 8722 220
Width: 553
Flags: W
HStem: 213 55<60 484>
LayerCount: 2
Fore
SplineSet
52 223 m 1
 52 223 65 268 74 268 c 2
 489 268 l 2
 492 268 494 268 494 263 c 0
 494 259 485 237 477 219 c 0
 474 213 470 213 470 213 c 1
 56 213 l 1
 56 213 50 213 52 223 c 1
EndSplineSet
EndChar

StartChar: uni2213
Encoding: 8723 8723 221
Width: 521
Flags: W
HStem: 216 56<52 226 292 469> 510 56<103 520>
LayerCount: 2
Fore
SplineSet
523 565 m 1
 523 565 529 566 529 559 c 0
 529 558 529 556 528 554 c 0
 512 507 508 513 505 510 c 1
 99 510 l 1
 99 510 91 509 96 523 c 0
 108 558 110 565 116 565 c 2
 523 565 l 1
276 213 m 2
 240 25 l 1
 240 25 238 16 196 10 c 0
 193 10 192 9 190 9 c 0
 183 9 187 13 188 17 c 2
 226 211 l 2
 226 213 226 216 221 216 c 2
 40 216 l 1
 40 216 36 216 36 222 c 0
 36 231 50 261 52 266 c 0
 55 272 60 271 60 271 c 1
 232 271 l 2
 235 271 238 274 238 276 c 2
 274 462 l 1
 274 462 274 467 280 469 c 0
 303 476 314 477 318 477 c 0
 327 477 327 471 327 471 c 1
 289 275 l 2
 288 272 289 271 292 271 c 2
 474 271 l 2
 477 271 479 272 479 268 c 0
 479 259 464 227 462 222 c 0
 459 216 454 216 454 216 c 1
 281 216 l 2
 278 216 276 215 276 213 c 2
EndSplineSet
EndChar

StartChar: radical
Encoding: 8730 8730 222
Width: 451
Flags: HW
LayerCount: 2
Fore
SplineSet
-19 164 m 1
 -30 170 -34 177 -34 181 c 0
 -34 189 -16 198 -10 201 c 0
 26 221 108 272 123 284 c 0
 132 291 145 291 146 283 c 0
 147 251 155 221 156 216 c 2
 215 -30 l 1
 500 772 l 1
 533 772 l 1
 204 -149 l 1
 187 -167 177 -169 171 -169 c 0
 167 -169 162 -168 162 -164 c 2
 75 215 l 1
 -19 164 l 1
EndSplineSet
EndChar

StartChar: proportional
Encoding: 8733 8733 223
Width: 639
Flags: W
HStem: 40 55<129 232 518 541> 354 59<169 278 555 609>
VStem: 33 65<126 271>
LayerCount: 2
Fore
SplineSet
229 354 m 0
 154 354 99 262 99 193 c 0
 99 138 131 95 185 95 c 0
 245 95 306 168 354 213 c 0
 355 214 355 214 354 215 c 0
 332 253 292 354 229 354 c 0
606 409 m 1
 608 405 610 396 610 392 c 0
 610 379 610 358 601 358 c 0
 545 358 474 279 435 240 c 0
 434 239 433 238 434 237 c 0
 465 180 500 98 562 98 c 0
 580 98 546 46 534 42 c 1
 415 42 379 176 369 176 c 2
 368 176 l 1
 307 114 239 40 149 40 c 0
 76 40 33 102 33 178 c 0
 33 301 141 412 251 412 c 0
 339 412 387 326 415 279 c 0
 416 277 419 276 420 278 c 0
 463 324 530 394 606 409 c 1
EndSplineSet
EndChar

StartChar: infinity
Encoding: 8734 8734 224
Width: 801
Flags: W
HStem: 42 56<126 235 512 620> 354 59<169 278 556 661>
VStem: 33 65<126 272> 688 67<182 325>
LayerCount: 2
Fore
SplineSet
600 358 m 0
 544 358 474 279 435 240 c 0
 434 239 433 238 434 237 c 0
 465 180 500 98 562 98 c 0
 637 98 688 193 688 258 c 0
 688 315 655 358 600 358 c 0
229 354 m 0
 160 354 99 272 99 194 c 0
 99 138 132 95 186 95 c 0
 246 95 306 168 354 213 c 0
 355 214 355 214 354 215 c 0
 332 253 292 354 229 354 c 0
251 412 m 0
 339 412 387 326 415 279 c 0
 416 277 420 276 421 278 c 0
 469 330 547 412 635 412 c 0
 709 412 755 350 755 274 c 0
 755 152 644 42 533 42 c 0
 414 42 379 176 369 176 c 2
 368 176 l 1
 307 114 238 40 149 40 c 0
 76 40 33 102 33 178 c 0
 33 301 141 412 251 412 c 0
EndSplineSet
EndChar

StartChar: notequal
Encoding: 8800 8800 225
Width: 509
Flags: W
HStem: 114 55<25 149 235 438> 253 55<59 248 335 465>
LayerCount: 2
Fore
SplineSet
335 308 m 1
 470 308 l 2
 473 308 476 309 476 305 c 0
 476 296 460 264 458 259 c 0
 455 253 451 253 451 253 c 1
 295 253 l 1
 235 169 l 1
 442 169 l 2
 446 169 449 171 448 164 c 0
 446 155 441 141 431 120 c 0
 428 114 425 114 425 114 c 1
 196 114 l 1
 125 13 l 1
 125 13 125 11 121 11 c 0
 118 11 103 14 94 30 c 0
 91 34 95 37 95 37 c 1
 149 114 l 1
 21 114 l 1
 21 114 16 114 16 121 c 0
 16 127 19 137 32 164 c 0
 35 170 39 169 39 169 c 1
 188 169 l 1
 248 253 l 1
 47 253 l 1
 47 253 41 253 43 263 c 0
 44 267 48 280 59 303 c 0
 62 309 66 308 66 308 c 1
 286 308 l 1
 350 396 l 1
 350 396 350 399 354 399 c 0
 359 399 370 397 379 382 c 0
 383 377 380 372 380 372 c 1
 335 308 l 1
EndSplineSet
EndChar

StartChar: lessequal
Encoding: 8804 8804 226
Width: 453
Flags: W
HStem: 6 55<-12 343>
LayerCount: 2
Fore
SplineSet
2 61 m 1
 346 61 l 2
 349 61 350 58 350 52 c 3
 350 38 341 19 329 6 c 1
 -15 6 l 2
 -18 6 -20 9 -20 15 c 3
 -20 29 -9 47 2 61 c 1
425 517 m 17
 429 512 438 494 438 477 c 27
 438 472 437 466 433 464 c 2
 104 303 l 1
 374 139 l 1
 374 121 357 85 351 85 c 0
 350 85 349 85 347 86 c 2
 43 272 l 2
 35 277 32 285 32 295 c 0
 32 319 43 328 55 334 c 2
 425 517 l 17
EndSplineSet
EndChar

StartChar: greaterequal
Encoding: 8805 8805 227
Width: 455
Flags: W
HStem: 6 55<18 374>
LayerCount: 2
Fore
SplineSet
32 61 m 1
 376 61 l 2
 379 61 380 58 380 52 c 3
 380 38 371 19 359 6 c 1
 16 6 l 2
 13 6 11 9 11 15 c 3
 11 29 21 47 32 61 c 1
40 86 m 17
 34 94 27 122 27 131 c 0
 27 135 29 137 33 139 c 2
 366 303 l 1
 102 464 l 1
 102 488 117 518 123 518 c 0
 125 518 127 518 129 517 c 2
 429 334 l 2
 436 330 440 323 440 314 c 0
 440 312 439 283 417 272 c 2
 40 86 l 17
EndSplineSet
EndChar

StartChar: partialdiff
Encoding: 8706 8706 228
Width: 428
Flags: W
HStem: 0 35<118 207> 322 36<162 266> 578 41<165 283>
VStem: 19 70<59 224> 338 60<334 518>
LayerCount: 2
Fore
SplineSet
208 322 m 0
 153 322 89 250 89 146 c 0
 89 107 95 35 162 35 c 0
 248 35 303 187 303 232 c 0
 303 283 265 322 208 322 c 0
338 420 m 0
 338 474 320 578 218 578 c 0
 185 578 151 564 117 539 c 1
 116 542 110 547 112 555 c 0
 115 568 168 619 249 619 c 0
 345 619 397 524 397 404 c 0
 397 279 345 0 132 0 c 0
 57 0 19 58 19 129 c 0
 19 222 89 358 228 358 c 0
 275 358 318 331 322 331 c 0
 335 331 338 400 338 420 c 0
EndSplineSet
EndChar

StartChar: gravecomb
Encoding: 768 768 229
Width: 0
VWidth: 944
GlyphClass: 4
Flags: W
HStem: 479 128
VStem: -347 167
LayerCount: 2
Fore
SplineSet
-188 479 m 0
 -203 479 -347 558 -347 577 c 0
 -347 599 -322 606 -309 606 c 0
 -294 606 -282 604 -272 597 c 0
 -259 588 -180 496 -180 488 c 0
 -180 485 -185 479 -188 479 c 0
EndSplineSet
EndChar

StartChar: acutecomb
Encoding: 769 769 230
Width: 0
VWidth: 944
GlyphClass: 4
Flags: W
HStem: 479 128
VStem: -325 167
LayerCount: 2
Fore
SplineSet
-317 479 m 0
 -320 479 -325 485 -325 488 c 0
 -325 496 -245 588 -232 597 c 0
 -222 604 -211 606 -196 606 c 0
 -183 606 -158 599 -158 577 c 0
 -158 558 -302 479 -317 479 c 0
EndSplineSet
EndChar

StartChar: uni0302
Encoding: 770 770 231
Width: 0
VWidth: 937
GlyphClass: 4
Flags: W
HStem: 479 132
VStem: -359 200
LayerCount: 2
Fore
SplineSet
-234 610 m 0
 -230 610 -227 607 -225 603 c 0
 -201 557 -187 533 -159 489 c 1
 -160 483 -167 479 -172 479 c 1
 -202 502 -248 541 -248 541 c 25
 -248 541 -312 503 -350 479 c 1
 -355 479 -360 483 -359 489 c 1
 -313 533 -289 557 -246 603 c 0
 -242 607 -238 610 -234 610 c 0
EndSplineSet
EndChar

StartChar: tildecomb
Encoding: 771 771 232
Width: 0
VWidth: 917
GlyphClass: 4
Flags: W
HStem: 479 41<-231 -137> 514 41<-353 -255>
VStem: -387 284
LayerCount: 2
Fore
SplineSet
-290 555 m 0x60
 -268 555 -251 550 -235 542 c 0
 -215 533 -200 520 -172 520 c 0xa0
 -141 520 -115 548 -108 555 c 1x60
 -105 554 -101 553 -102 546 c 0
 -104 532 -114 518 -123 510 c 0
 -148 487 -173 479 -199 479 c 0xa0
 -221 479 -236 484 -253 492 c 0
 -272 501 -290 514 -318 514 c 0x60
 -349 514 -375 486 -382 479 c 1xa0
 -385 480 -388 481 -387 488 c 0
 -385 502 -376 515 -367 523 c 0
 -342 546 -316 555 -290 555 c 0x60
EndSplineSet
EndChar

StartChar: dotlessi
Encoding: 305 305 233
Width: 255
Flags: W
HStem: -6 54<75 137> 371 54<95 158>
VStem: 52 73<45 124> 112 73<295 374>
LayerCount: 2
Fore
SplineSet
108 315 m 2xe0
 109 321 112 342 112 347 c 0
 112 356 113 371 103 371 c 0
 82 371 37 317 34 314 c 1
 31 314 24 327 24 333 c 1
 35 352 101 425 147 425 c 0
 168 425 186 403 186 374 c 0xd0
 186 366 183 343 179 322 c 2
 129 104 l 2
 127 94 125 77 125 72 c 0
 125 63 125 48 135 48 c 0
 156 48 200 101 203 104 c 1
 206 104 213 92 213 86 c 1
 202 67 131 -6 85 -6 c 0
 64 -6 52 16 52 45 c 0
 52 53 55 76 59 97 c 2
 108 315 l 2xe0
EndSplineSet
Substitution2: "'smcp' Lowercase to Small Capitals in Latin lookup 3-1" dotlessi.sc
EndChar

StartChar: f_f
Encoding: 65536 -1 234
Width: 541
VWidth: 0
Flags: W
HStem: -228 40<-94 -28> -219 58<92 192> 353 45<46 101 185 351 435 551> 630 37<289 397> 646 37<519 615>
LayerCount: 2
Fore
SplineSet
362 667 m 0xb0
 415 667 456 651 470 638 c 1
 493 660 550 683 589 683 c 0
 642 683 661 664 669 649 c 1
 669 618 662 586 634 586 c 0
 602 586 591 646 559 646 c 0
 474 646 437 427 433 403 c 0
 433 401 l 0
 433 399 434 397 436 397 c 2
 548 397 l 2
 552 397 553 391 553 386 c 27
 553 372 547 361 542 353 c 1
 428 353 l 2
 425 353 423 353 422 345 c 2
 380 104 l 0
 333 -136 185 -219 122 -219 c 0x68
 69 -219 38 -185 28 -171 c 1
 -6 -210 -52 -228 -91 -228 c 0
 -144 -228 -164 -202 -172 -187 c 1
 -172 -163 -161 -128 -133 -128 c 0
 -101 -128 -104 -188 -62 -188 c 0
 -18 -188 32 -72 43 -10 c 0
 47 11 48 21 52 45 c 0
 104 346 l 1
 104 348 l 2
 104 351 103 353 101 353 c 2
 37 353 l 2
 36 353 35 353 35 355 c 0
 35 365 60 397 82 397 c 2
 110 397 l 2
 113 397 115 402 116 406 c 0
 147 566 270 667 362 667 c 0xb0
149 -161 m 0
 224 -161 271 -99 304 59 c 0
 354 346 l 1
 354 348 l 2
 354 351 353 353 351 353 c 1
 178 353 l 2
 175 353 173 353 172 345 c 2
 118 42 l 0
 106 -19 95 -58 74 -101 c 0
 73 -102 73 -103 73 -105 c 24
 73 -108 74 -112 74 -113 c 0
 78 -133 107 -161 149 -161 c 0
342 630 m 0x30
 267 630 210 547 189 443 c 0
 185 422 187 427 183 403 c 0
 183 401 l 0
 183 399 184 397 187 397 c 2
 360 397 l 2
 363 397 365 402 366 406 c 0
 378 467 402 538 420 570 c 0
 421 571 421 573 421 575 c 24
 421 578 420 582 420 583 c 0
 416 603 384 630 342 630 c 0x30
EndSplineSet
LCarets2: 1 0
Ligature2: "'liga' Standard Ligatures lookup 0-1" f f
EndChar

StartChar: f_i
Encoding: 65537 -1 235
Width: 507
VWidth: 0
Flags: W
HStem: -226 38<-118 -27> -6 54<317 379> 353 45<46 102 185 344> 357 51<199 344> 646 37<271 344>
VStem: 294 73<21 162>
LayerCount: 2
Fore
SplineSet
421 322 m 2xdc
 371 104 l 2
 369 94 367 77 367 72 c 0
 367 63 367 48 377 48 c 0
 398 48 442 101 445 104 c 1
 448 104 455 92 455 86 c 1
 444 67 373 -6 327 -6 c 0
 306 -6 294 16 294 45 c 0
 294 53 296 76 301 97 c 2
 344 286 l 2
 345 293 347 308 347 313 c 0
 347 334 340 357 321 357 c 8xdc
 265 357 178 353 178 353 c 2
 175 353 173 353 172 345 c 2
 118 53 l 2
 85 -138 -8 -226 -93 -226 c 0
 -143 -226 -166 -203 -172 -186 c 1
 -173 -157 -155 -128 -132 -128 c 0
 -106 -128 -101 -188 -60 -188 c 0
 -6 -188 35 -41 45 15 c 2
 104 346 l 1
 104 348 l 2
 104 351 103 353 101 353 c 2
 37 353 l 2
 36 353 35 353 35 355 c 0
 35 365 60 397 82 397 c 2
 110 397 l 2
 113 397 115 402 116 406 c 0
 142 568 241 683 339 683 c 0
 392 683 408 670 423 656 c 0
 439 641 448 629 454 615 c 1
 454 588 440 553 410 553 c 27
 389 553 379 570 368 589 c 0
 354 613 340 646 304 646 c 0
 269 646 218 577 189 439 c 0
 187 427 185 416 183 403 c 0
 183 401 l 0
 183 399 184 397 186 397 c 0xec
 209 397 305 400 323 402 c 0
 344 404 413 408 415 408 c 3
 419 408 429 401 429 392 c 3
 429 387 426 343 421 322 c 2xdc
EndSplineSet
LCarets2: 1 0
Ligature2: "'liga' Standard Ligatures lookup 0-1" f i
EndChar

StartChar: f_f_i
Encoding: 65538 -1 236
Width: 762
VWidth: 0
Flags: W
HStem: -228 40<-94 -28> -219 46<90 189> -6 54<572 634> 353 45<46 101 185 351 435 599> 630 37<289 397> 646 37<520 598>
VStem: 549 73<21 162>
LayerCount: 2
Fore
SplineSet
576 357 m 0x36
 428 353 l 2
 425 353 423 353 422 345 c 2
 380 104 l 0
 333 -136 185 -219 122 -219 c 0x76
 69 -219 38 -185 28 -171 c 1
 -6 -210 -52 -228 -91 -228 c 0
 -144 -228 -164 -202 -172 -187 c 1
 -172 -163 -161 -128 -133 -128 c 0
 -101 -128 -104 -188 -62 -188 c 0
 -18 -188 32 -72 43 -10 c 0
 47 11 48 21 52 45 c 0
 104 346 l 1
 104 348 l 2
 104 351 103 353 101 353 c 2
 37 353 l 2
 36 353 35 353 35 355 c 0
 35 365 60 397 82 397 c 2
 110 397 l 2
 113 397 115 402 116 406 c 0
 147 566 270 667 362 667 c 0xba
 415 667 456 651 470 638 c 1
 493 660 556 683 594 683 c 0
 647 683 663 670 678 656 c 0
 694 641 703 629 709 615 c 1
 709 588 695 553 665 553 c 27
 644 553 634 570 623 589 c 0
 609 613 595 646 559 646 c 0
 475 646 437 427 433 403 c 0
 433 401 l 0
 433 399 434 397 436 397 c 2
 578 402 l 0
 599 404 668 408 670 408 c 3
 674 408 684 401 684 392 c 3
 684 387 681 343 676 322 c 2
 626 104 l 2
 624 94 622 77 622 72 c 0
 622 63 622 48 632 48 c 0
 653 48 697 101 700 104 c 1
 703 104 710 92 710 86 c 1
 699 67 628 -6 582 -6 c 0
 561 -6 549 16 549 45 c 0
 549 53 551 76 556 97 c 2
 599 286 l 2
 600 293 602 308 602 313 c 0
 602 334 595 357 576 357 c 0x36
74 -113 m 0
 78 -133 91 -173 133 -173 c 0
 190 -173 271 -99 304 59 c 0
 354 346 l 1
 354 348 l 2
 354 351 353 353 351 353 c 1
 178 353 l 2
 175 353 173 353 172 345 c 2
 118 42 l 0
 106 -19 95 -58 74 -101 c 0
 73 -102 73 -103 73 -105 c 24
 73 -108 74 -112 74 -113 c 0
342 630 m 0x3a
 267 630 210 547 189 443 c 0
 185 422 187 427 183 403 c 0
 183 401 l 0
 183 399 184 397 187 397 c 2
 360 397 l 2
 363 397 365 402 366 406 c 0
 378 467 402 538 420 570 c 0
 421 571 421 573 421 575 c 24
 421 578 420 582 420 583 c 0
 416 603 384 630 342 630 c 0x3a
EndSplineSet
LCarets2: 2 0 0
Ligature2: "'liga' Standard Ligatures lookup 0-1" f f i
EndChar

StartChar: f_l
Encoding: 65539 -1 237
Width: 517
VWidth: 0
Flags: W
HStem: -226 38<-118 -27> -6 54<336 399> 353 45<46 102 185 301> 646 37<275 382> 658 20G<503 510>
VStem: 313 73<21 172>
LayerCount: 2
Fore
SplineSet
483 577 m 2xec
 391 104 l 2
 390 100 387 77 387 72 c 0
 387 63 386 48 396 48 c 0
 417 48 462 101 465 104 c 1
 468 104 475 92 475 86 c 1
 464 67 393 -6 347 -6 c 0
 326 -6 313 16 313 45 c 0
 313 53 316 76 320 97 c 2
 408 546 l 2
 409 550 412 571 412 575 c 3
 412 617 367 646 321 646 c 0
 257 646 210 565 183 403 c 0
 183 401 l 0
 183 399 185 397 186 397 c 2
 298 397 l 2
 302 397 303 391 303 386 c 27
 303 372 297 361 292 353 c 1
 178 353 l 2
 176 353 173 353 172 345 c 2
 118 53 l 2
 85 -138 -8 -226 -93 -226 c 0
 -143 -226 -166 -203 -172 -186 c 1
 -173 -157 -155 -128 -132 -128 c 0
 -106 -128 -101 -188 -60 -188 c 0
 -6 -188 35 -41 45 15 c 2
 104 346 l 1
 104 348 l 2
 104 351 103 353 101 353 c 2
 37 353 l 2
 36 353 35 353 35 355 c 0
 35 365 60 397 82 397 c 2
 110 397 l 2
 113 397 115 402 116 406 c 0
 142 568 241 683 339 683 c 0xf4
 392 683 420 662 432 662 c 0
 453 662 498 678 508 678 c 1
 513 678 513 666 513 662 c 9
 513 662 494 631 483 577 c 2xec
EndSplineSet
LCarets2: 1 0
Ligature2: "'liga' Standard Ligatures lookup 0-1" f l
EndChar

StartChar: f_f_l
Encoding: 65540 -1 238
Width: 772
VWidth: 0
Flags: W
HStem: -228 40<-94 -28> -219 46<90 189> -6 54<591 653> 353 45<46 101 185 351 440 556> 630 37<289 397> 646 37<529 637> 658 20G<758 765>
VStem: 568 73<21 172>
LayerCount: 2
Fore
SplineSet
667 575 m 3x33
 667 617 622 646 576 646 c 0
 512 646 465 565 438 403 c 0
 438 401 l 0
 438 399 439 397 440 397 c 2
 553 397 l 2
 557 397 558 391 558 386 c 27
 558 372 552 361 547 353 c 1
 433 353 l 2
 431 353 429 353 427 345 c 2
 380 104 l 2
 334 -136 185 -219 122 -219 c 0x75
 69 -219 38 -185 28 -171 c 1
 -6 -210 -52 -228 -91 -228 c 0
 -144 -228 -164 -202 -172 -187 c 1
 -172 -163 -161 -128 -133 -128 c 0
 -101 -128 -104 -188 -62 -188 c 0
 -18 -188 32 -72 43 -10 c 0
 47 11 48 21 52 45 c 0
 104 346 l 1
 104 348 l 2
 104 351 103 353 101 353 c 2
 37 353 l 2
 36 353 35 353 35 355 c 0
 35 365 60 397 82 397 c 2
 110 397 l 2
 113 397 115 402 116 406 c 0
 147 566 270 667 362 667 c 0xb9
 415 667 456 651 470 638 c 1
 493 660 556 683 594 683 c 0x35
 647 683 675 662 687 662 c 0
 708 662 753 678 763 678 c 1
 768 678 768 666 768 662 c 9
 768 662 749 631 738 577 c 2
 646 104 l 2
 645 100 642 77 642 72 c 0
 642 63 641 48 651 48 c 0
 672 48 717 101 720 104 c 1
 723 104 729 92 729 86 c 1
 718 67 648 -6 602 -6 c 0
 581 -6 568 16 568 45 c 0
 568 53 571 76 575 97 c 2
 663 546 l 2
 664 550 667 571 667 575 c 3x33
133 -173 m 0
 190 -173 271 -99 304 59 c 0
 354 346 l 1
 354 348 l 2
 354 351 353 353 351 353 c 1
 178 353 l 2
 175 353 173 353 172 345 c 2
 118 42 l 0
 106 -19 95 -58 74 -101 c 0
 73 -102 73 -103 73 -105 c 24
 73 -108 74 -112 74 -113 c 0
 78 -133 91 -173 133 -173 c 0
342 630 m 0x39
 267 630 210 547 189 443 c 0
 185 422 187 427 183 403 c 0
 183 401 l 0
 183 399 184 397 187 397 c 2
 360 397 l 2
 363 397 365 402 366 406 c 0
 378 467 402 538 420 570 c 0
 421 571 421 573 421 575 c 24
 421 578 420 582 420 583 c 0
 416 603 384 630 342 630 c 0x39
EndSplineSet
LCarets2: 2 0 0
Ligature2: "'liga' Standard Ligatures lookup 0-1" f f l
EndChar

StartChar: f_b
Encoding: 65541 -1 239
Width: 706
VWidth: 0
Flags: W
HStem: -226 38<-118 -27> -6 32<405 476> 353 45<46 102 185 301> 371 54<533 613> 646 37<275 381> 658 20G<498 505>
VStem: 587 72<198 366>
LayerCount: 2
Fore
SplineSet
549 371 m 0xd2
 507 371 417 259 396 152 c 0
 380 73 394 26 440 26 c 0
 522 26 587 216 587 295 c 0
 587 331 583 371 549 371 c 0xd2
405 546 m 2
 406 551 410 571 410 575 c 0
 410 617 367 646 321 646 c 0
 257 646 210 565 183 403 c 0
 183 401 l 0
 183 399 185 397 186 397 c 2
 298 397 l 2
 302 397 303 391 303 386 c 27
 303 372 297 361 292 353 c 1
 178 353 l 2
 176 353 173 353 172 345 c 2
 118 53 l 2
 85 -138 -8 -226 -93 -226 c 0
 -143 -226 -166 -203 -172 -186 c 1
 -173 -157 -155 -128 -132 -128 c 0
 -106 -128 -101 -188 -60 -188 c 0
 -6 -188 35 -41 45 15 c 2
 104 346 l 1
 104 348 l 2
 104 351 103 353 101 353 c 2
 37 353 l 2
 36 353 35 353 35 355 c 0
 35 365 60 397 82 397 c 2
 110 397 l 2
 113 397 115 402 116 406 c 0
 142 568 241 683 339 683 c 0xea
 392 683 420 662 432 662 c 0
 453 662 493 678 503 678 c 1xc6
 508 678 508 666 508 662 c 9
 508 662 491 630 480 577 c 2
 420 278 l 1
 488 392 560 425 591 425 c 0
 636 425 659 381 659 314 c 0
 659 138 517 -6 413 -6 c 0
 358 -6 322 36 322 108 c 0
 322 118 326 142 328 154 c 2
 405 546 l 2
EndSplineSet
LCarets2: 1 0
Ligature2: "'liga' Standard Ligatures lookup 0-1" f b
EndChar

StartChar: f_f_b
Encoding: 65542 -1 240
Width: 961
VWidth: 0
Flags: W
HStem: -228 40<-94 -28> -219 46<90 189> -6 32<659 730> 353 45<46 101 185 351 440 556> 371 54<787 867> 630 37<289 397> 646 37<529 636> 658 20G<753 760>
VStem: 841 72<198 366>
LayerCount: 2
Fore
SplineSet
803 371 m 0x2880
 761 371 670 259 649 152 c 0
 633 73 648 26 694 26 c 0
 776 26 841 216 841 295 c 0
 841 331 837 371 803 371 c 0x2880
665 575 m 0
 664 617 622 646 576 646 c 0
 512 646 465 565 438 403 c 0
 438 401 l 0
 438 399 439 397 440 397 c 2
 553 397 l 2
 557 397 558 391 558 386 c 27
 558 372 552 361 547 353 c 1
 433 353 l 2
 431 353 429 353 427 345 c 2
 380 104 l 2
 334 -136 185 -219 122 -219 c 0x7280
 69 -219 38 -185 28 -171 c 1
 -6 -210 -52 -228 -91 -228 c 0
 -144 -228 -164 -202 -172 -187 c 1
 -172 -163 -161 -128 -133 -128 c 0
 -101 -128 -104 -188 -62 -188 c 0
 -18 -188 32 -72 43 -10 c 0
 47 11 48 21 52 45 c 0
 104 346 l 1
 104 348 l 2
 104 351 103 353 101 353 c 2
 37 353 l 2
 36 353 35 353 35 355 c 0
 35 365 60 397 82 397 c 2
 110 397 l 2
 113 397 115 402 116 406 c 0
 147 566 270 667 362 667 c 0xb480
 415 667 456 651 470 638 c 1
 493 660 556 683 594 683 c 0x2280
 647 683 675 662 687 662 c 0
 708 662 748 678 758 678 c 1x2180
 763 678 763 666 763 662 c 9
 763 662 745 631 734 577 c 2
 674 278 l 1
 742 392 814 425 845 425 c 0
 890 425 913 381 913 314 c 0
 913 138 771 -6 667 -6 c 0
 612 -6 576 36 576 108 c 0
 576 118 580 142 582 154 c 2
 659 546 l 2
 660 551 664 571 665 575 c 0
133 -173 m 0
 190 -173 271 -99 304 59 c 0
 354 346 l 1
 354 348 l 2
 354 351 353 353 351 353 c 1
 178 353 l 2
 175 353 173 353 172 345 c 2
 118 42 l 0
 106 -19 95 -58 74 -101 c 0
 73 -102 73 -103 73 -105 c 24
 73 -108 74 -112 74 -113 c 0
 78 -133 91 -173 133 -173 c 0
342 630 m 0x3480
 267 630 210 547 189 443 c 0
 185 422 187 427 183 403 c 0
 183 401 l 0
 183 399 184 397 187 397 c 2
 360 397 l 2
 363 397 365 402 366 406 c 0
 378 467 402 538 420 570 c 0
 421 571 421 573 421 575 c 24
 421 578 420 582 420 583 c 0
 416 603 384 630 342 630 c 0x3480
EndSplineSet
LCarets2: 2 0 0
Ligature2: "'liga' Standard Ligatures lookup 0-1" f f b
EndChar

StartChar: f_k
Encoding: 65543 -1 241
Width: 725
VWidth: 0
Flags: W
HStem: -226 38<-118 -27> -4 54<567 625> 353 45<46 102 185 301> 379 46<529 617> 646 37<275 382> 658 20G<503 510>
VStem: 595 76<293 378>
LayerCount: 2
Fore
SplineSet
562 379 m 0xd2
 505 379 427 285 415 225 c 1
 480 225 595 265 595 346 c 0
 595 364 589 379 562 379 c 0xd2
408 546 m 2
 409 551 412 571 412 575 c 0
 412 617 367 646 321 646 c 0
 257 646 210 565 183 403 c 0
 183 401 l 0
 183 399 185 397 186 397 c 2
 298 397 l 2
 302 397 303 391 303 386 c 27
 303 372 297 361 292 353 c 1
 178 353 l 2
 176 353 173 353 172 345 c 2
 118 53 l 2
 85 -138 -8 -226 -93 -226 c 0
 -143 -226 -166 -203 -172 -186 c 1
 -173 -157 -155 -128 -132 -128 c 0
 -106 -128 -101 -188 -60 -188 c 0
 -6 -188 35 -41 45 15 c 2
 104 346 l 1
 104 348 l 2
 104 351 103 353 101 353 c 2
 37 353 l 2
 36 353 35 353 35 355 c 0
 35 365 60 397 82 397 c 2
 110 397 l 2
 113 397 115 402 116 406 c 0
 142 568 241 683 339 683 c 0xea
 392 683 420 662 432 662 c 0
 453 662 498 678 508 678 c 1xc6
 513 678 513 666 513 662 c 9
 513 662 494 631 483 577 c 2
 433 314 l 1
 438 318 514 425 598 425 c 0
 636 425 671 396 671 358 c 0
 671 269 573 225 465 206 c 1
 551 77 578 50 618 50 c 0
 635 50 674 90 685 104 c 1
 688 104 694 91 694 86 c 1
 686 72 618 -4 575 -4 c 0
 498 -4 449 117 407 187 c 1
 371 0 l 1
 360 -3 348 -5 337 -5 c 0
 326 -5 314 -3 302 0 c 1
 408 546 l 2
EndSplineSet
LCarets2: 1 0
Ligature2: "'liga' Standard Ligatures lookup 0-1" f k
EndChar

StartChar: f_f_k
Encoding: 65544 -1 242
Width: 980
VWidth: 0
Flags: W
HStem: -228 40<-94 -28> -219 46<90 189> -4 54<822 880> 353 45<46 101 185 351 440 556> 379 46<784 872> 630 37<289 397> 646 37<529 637> 658 20G<758 765>
VStem: 850 76<293 378>
LayerCount: 2
Fore
SplineSet
817 379 m 0x2880
 760 379 682 285 670 225 c 1
 735 225 850 265 850 346 c 0
 850 364 844 379 817 379 c 0x2880
687 662 m 0
 708 662 753 678 763 678 c 1
 768 678 768 666 768 662 c 9
 768 662 749 631 738 577 c 2
 688 314 l 1
 693 318 769 425 853 425 c 0x2980
 891 425 926 396 926 358 c 0
 926 269 828 225 720 206 c 1
 806 77 833 50 873 50 c 0
 890 50 928 90 939 104 c 1
 942 104 949 91 949 86 c 1
 941 72 873 -4 830 -4 c 0
 753 -4 704 117 662 187 c 1
 626 0 l 1
 615 -3 603 -5 592 -5 c 0
 581 -5 569 -3 557 0 c 1
 663 546 l 2
 664 551 667 571 667 575 c 0
 667 617 622 646 576 646 c 0
 512 646 465 565 438 403 c 0
 438 401 l 0
 438 399 439 397 440 397 c 2
 553 397 l 2
 557 397 558 391 558 386 c 27
 558 372 552 361 547 353 c 1
 433 353 l 2
 431 353 429 353 427 345 c 2
 380 104 l 2
 334 -136 185 -219 122 -219 c 0x7280
 69 -219 38 -185 28 -171 c 1
 -6 -210 -52 -228 -91 -228 c 0
 -144 -228 -164 -202 -172 -187 c 1
 -172 -163 -161 -128 -133 -128 c 0
 -101 -128 -104 -188 -62 -188 c 0
 -18 -188 32 -72 43 -10 c 0
 47 11 48 21 52 45 c 0
 104 346 l 1
 104 348 l 2
 104 351 103 353 101 353 c 2
 37 353 l 2
 36 353 35 353 35 355 c 0
 35 365 60 397 82 397 c 2
 110 397 l 2
 113 397 115 402 116 406 c 0
 147 566 270 667 362 667 c 0xb480
 415 667 456 651 470 638 c 1
 493 660 556 683 594 683 c 0x2280
 647 683 675 662 687 662 c 0
133 -173 m 0x7080
 190 -173 271 -99 304 59 c 0
 354 346 l 1
 354 348 l 2
 354 351 353 353 351 353 c 1
 178 353 l 2
 175 353 173 353 172 345 c 2
 118 42 l 0
 106 -19 95 -58 74 -101 c 0
 73 -102 73 -103 73 -105 c 24
 73 -108 74 -112 74 -113 c 0
 78 -133 91 -173 133 -173 c 0x7080
342 630 m 0x3480
 267 630 210 547 189 443 c 0
 185 422 187 427 183 403 c 0
 183 401 l 0
 183 399 184 397 187 397 c 2
 360 397 l 2
 363 397 365 402 366 406 c 0
 378 467 402 538 420 570 c 0
 421 571 421 573 421 575 c 24
 421 578 420 582 420 583 c 0
 416 603 384 630 342 630 c 0x3480
EndSplineSet
LCarets2: 2 0 0
Ligature2: "'liga' Standard Ligatures lookup 0-1" f f k
EndChar

StartChar: f_h
Encoding: 65545 -1 243
Width: 734
VWidth: 0
Flags: W
HStem: -226 38<-118 -27> -6 54<563 626> 353 72<561 618> 353 45<46 102 185 301> 646 37<275 382> 658 20G<504 511>
VStem: 541 73<21 167> 589 75<217 379>
LayerCount: 2
Fore
SplineSet
408 546 m 2xe5
 409 551 412 571 412 575 c 3
 412 617 367 646 321 646 c 0
 257 646 210 565 183 403 c 0
 183 401 l 0
 183 399 185 397 186 397 c 2
 298 397 l 2
 302 397 303 391 303 386 c 27
 303 372 297 361 292 353 c 1
 178 353 l 2
 176 353 173 353 172 345 c 2
 118 53 l 2
 85 -138 -8 -226 -93 -226 c 0
 -143 -226 -166 -203 -172 -186 c 1
 -173 -157 -155 -128 -132 -128 c 0
 -106 -128 -101 -188 -60 -188 c 0
 -6 -188 35 -41 45 15 c 2
 104 346 l 1
 104 348 l 2
 104 351 103 353 101 353 c 2
 37 353 l 2
 36 353 35 353 35 355 c 0
 35 365 60 397 82 397 c 2
 110 397 l 2
 113 397 115 402 116 406 c 0
 142 568 241 683 339 683 c 0xd9
 392 683 420 662 432 662 c 0
 453 662 499 678 509 678 c 1
 514 678 514 666 514 662 c 9
 514 662 494 631 483 577 c 2
 434 322 l 1
 416 232 l 1
 429 256 546 425 610 425 c 0
 648 425 664 397 664 360 c 0xe5
 664 327 658 291 650 254 c 2
 618 104 l 2
 617 100 614 77 614 72 c 0
 614 63 614 48 624 48 c 0
 645 48 689 101 692 104 c 1
 695 104 702 92 702 86 c 1
 691 67 620 -6 574 -6 c 0
 553 -6 541 16 541 45 c 0xe6
 541 53 543 76 548 97 c 2
 582 258 l 2
 584 267 589 300 589 311 c 0
 589 333 587 353 570 353 c 0
 535 353 418 230 396 116 c 0
 390 86 381 45 371 0 c 1
 361 -3 346 -4 336 -4 c 0
 326 -4 315 -3 303 0 c 1
 408 546 l 2xe5
EndSplineSet
LCarets2: 1 0
Ligature2: "'liga' Standard Ligatures lookup 0-1" f h
EndChar

StartChar: f_f_h
Encoding: 65546 -1 244
Width: 989
VWidth: 0
Flags: W
HStem: -228 40<-94 -28> -219 46<90 189> -6 54<818 881> 353 72<816 873> 353 45<46 101 185 351 440 556> 630 37<289 397> 646 37<529 637> 658 20G<759 766>
VStem: 796 73<21 167> 844 75<217 379>
LayerCount: 2
Fore
SplineSet
687 662 m 0x2240
 708 662 754 678 764 678 c 1
 769 678 769 666 769 662 c 9
 769 662 749 631 738 577 c 2
 688 322 l 1
 671 232 l 1
 684 256 801 425 865 425 c 0
 903 425 919 397 919 360 c 0x3140
 919 327 913 291 905 254 c 2
 873 104 l 2
 872 100 869 77 869 72 c 0
 869 63 869 48 879 48 c 0
 900 48 944 101 947 104 c 1
 950 104 957 92 957 86 c 1
 946 67 875 -6 829 -6 c 0
 808 -6 796 16 796 45 c 0x3180
 796 53 798 76 803 97 c 2
 837 258 l 2
 839 267 844 300 844 311 c 0
 844 333 842 353 825 353 c 0x3140
 790 353 672 230 650 116 c 0
 644 86 636 45 626 0 c 1
 616 -3 601 -4 591 -4 c 0
 581 -4 570 -3 558 0 c 1
 663 546 l 2
 664 551 667 571 667 575 c 3
 667 617 622 646 576 646 c 0
 512 646 465 565 438 403 c 0
 438 401 l 0
 438 399 439 397 440 397 c 2
 553 397 l 2
 557 397 558 391 558 386 c 27
 558 372 552 361 547 353 c 1
 433 353 l 2
 431 353 429 353 427 345 c 2
 380 104 l 2
 334 -136 185 -219 122 -219 c 0x6a40
 69 -219 38 -185 28 -171 c 1
 -6 -210 -52 -228 -91 -228 c 0
 -144 -228 -164 -202 -172 -187 c 1
 -172 -163 -161 -128 -133 -128 c 0
 -101 -128 -104 -188 -62 -188 c 0
 -18 -188 32 -72 43 -10 c 0
 47 11 48 21 52 45 c 0
 104 346 l 1
 104 348 l 2
 104 351 103 353 101 353 c 2
 37 353 l 2
 36 353 35 353 35 355 c 0
 35 365 60 397 82 397 c 2
 110 397 l 2
 113 397 115 402 116 406 c 0
 147 566 270 667 362 667 c 0xac40
 415 667 456 651 470 638 c 1
 493 660 556 683 594 683 c 0
 647 683 675 662 687 662 c 0x2240
133 -173 m 0x68
 190 -173 271 -99 304 59 c 0
 354 346 l 1
 354 348 l 2
 354 351 353 353 351 353 c 1
 178 353 l 2
 175 353 173 353 172 345 c 2
 118 42 l 0
 106 -19 95 -58 74 -101 c 0
 73 -102 73 -103 73 -105 c 24
 73 -108 74 -112 74 -113 c 0
 78 -133 91 -173 133 -173 c 0x68
342 630 m 0x2c
 267 630 210 547 189 443 c 0
 185 422 187 427 183 403 c 0
 183 401 l 0
 183 399 184 397 187 397 c 2
 360 397 l 2
 363 397 365 402 366 406 c 0
 378 467 402 538 420 570 c 0
 421 571 421 573 421 575 c 24
 421 578 420 582 420 583 c 0
 416 603 384 630 342 630 c 0x2c
EndSplineSet
LCarets2: 2 0 0
Ligature2: "'liga' Standard Ligatures lookup 0-1" f f h
EndChar

StartChar: f_j
Encoding: 65547 -1 245
Width: 471
VWidth: 0
Flags: W
HStem: -226 38<-118 -27> 353 45<46 102 185 344> 357 51<199 344> 646 37<271 344>
VStem: 347 82<257 399>
LayerCount: 2
Fore
SplineSet
420 322 m 0xb8
 366 44 l 2
 359 9 339 -65 297 -121 c 0
 256 -175 195 -215 161 -229 c 1
 157 -226 152 -217 152 -210 c 1
 217 -173 270 -87 291 21 c 2
 344 286 l 2
 346 294 347 308 347 313 c 0
 347 334 340 357 321 357 c 8xb8
 265 357 178 353 178 353 c 2
 175 353 173 353 172 345 c 2
 118 53 l 2
 85 -138 -8 -226 -93 -226 c 0
 -143 -226 -166 -203 -172 -186 c 1
 -173 -157 -155 -128 -132 -128 c 0
 -106 -128 -101 -188 -60 -188 c 0
 -6 -188 35 -41 45 15 c 2
 104 346 l 1
 104 348 l 2
 104 351 103 353 101 353 c 2
 37 353 l 2
 36 353 35 353 35 355 c 0
 35 365 60 397 82 397 c 2
 110 397 l 2
 113 397 115 402 116 406 c 0
 142 568 241 683 339 683 c 0
 392 683 408 670 423 656 c 0
 439 641 448 629 454 615 c 1
 454 588 440 553 410 553 c 27
 389 553 379 570 368 589 c 0
 354 613 340 646 304 646 c 0
 266 646 210 565 183 403 c 0
 183 401 l 0
 183 399 184 397 186 397 c 0xd8
 209 397 305 400 323 402 c 0
 344 404 413 408 415 408 c 3
 419 408 429 401 429 392 c 3
 429 387 423 343 420 322 c 0xb8
EndSplineSet
LCarets2: 1 0
Ligature2: "'liga' Standard Ligatures lookup 0-1" f j
EndChar

StartChar: f_f_j
Encoding: 65548 -1 246
Width: 725
VWidth: 0
Flags: W
HStem: -228 40<-94 -28> -219 46<90 189> 353 45<46 101 185 351 435 599> 630 37<289 397> 646 37<520 598>
VStem: 602 82<257 399>
LayerCount: 2
Fore
SplineSet
670 408 m 3x2c
 674 408 684 401 684 392 c 3
 684 387 678 343 675 322 c 0
 621 44 l 2
 614 9 594 -65 552 -121 c 0
 511 -175 450 -215 416 -229 c 1
 412 -226 407 -217 407 -210 c 1
 472 -173 525 -87 546 21 c 2
 599 286 l 2
 601 294 602 308 602 313 c 0
 602 334 595 357 576 357 c 0
 567 357 428 353 428 353 c 0
 425 353 423 353 422 345 c 2
 380 104 l 0
 333 -136 185 -219 122 -219 c 0x6c
 69 -219 38 -185 28 -171 c 1
 -6 -210 -52 -228 -91 -228 c 0
 -144 -228 -164 -202 -172 -187 c 1
 -172 -163 -161 -128 -133 -128 c 0
 -101 -128 -104 -188 -62 -188 c 0
 -18 -188 32 -72 43 -10 c 0
 47 11 48 21 52 45 c 0
 104 346 l 1
 104 348 l 2
 104 351 103 353 101 353 c 2
 37 353 l 2
 36 353 35 353 35 355 c 0
 35 365 60 397 82 397 c 2
 110 397 l 2
 113 397 115 402 116 406 c 0
 147 566 270 667 362 667 c 0xb4
 415 667 456 651 470 638 c 1
 493 660 556 683 594 683 c 0
 647 683 663 670 678 656 c 0
 694 641 703 629 709 615 c 1
 709 588 695 553 665 553 c 27
 644 553 634 570 623 589 c 0
 609 613 595 646 559 646 c 0
 475 646 437 427 433 403 c 0
 433 401 l 0
 433 399 434 397 436 397 c 0
 461 397 560 400 578 402 c 0
 599 404 668 408 670 408 c 3x2c
74 -113 m 0
 78 -133 91 -173 133 -173 c 0
 190 -173 271 -99 304 59 c 0
 354 346 l 1
 354 348 l 2
 354 351 353 353 351 353 c 1
 178 353 l 2
 175 353 173 353 172 345 c 2
 118 42 l 0
 106 -19 95 -58 74 -101 c 0
 73 -102 73 -103 73 -105 c 24
 73 -108 74 -112 74 -113 c 0
342 630 m 0x34
 267 630 210 547 189 443 c 0
 185 422 187 427 183 403 c 0
 183 401 l 0
 183 399 184 397 187 397 c 2
 360 397 l 2
 363 397 365 402 366 406 c 0
 378 467 402 538 420 570 c 0
 421 571 421 573 421 575 c 24
 421 578 420 582 420 583 c 0
 416 603 384 630 342 630 c 0x34
EndSplineSet
LCarets2: 2 0 0
Ligature2: "'liga' Standard Ligatures lookup 0-1" f f j
EndChar

StartChar: T_h
Encoding: 65549 -1 247
Width: 959
VWidth: 0
Flags: W
HStem: -6 54<783 846> -3 26<128 187 298 343> 353 72<781 849> 601 44<126 303 394 615> 658 20G<722 730>
VStem: 58 29<509 538> 128 162<3 62> 761 73<21 167> 809 75<217 379>
LayerCount: 2
Fore
SplineSet
623 518 m 2xbe80
 624 524 625 526 625 530 c 0
 625 599 615 601 500 601 c 0
 442 601 401 596 396 586 c 0
 383 559 377 527 369 488 c 2
 301 136 l 2
 294 102 290 76 290 48 c 0xbe80
 290 29 343 23 343 23 c 2
 344 23 345 22 345 20 c 0
 345 14 341 1 339 -3 c 1
 303 -1 277 2 237 2 c 0
 195 2 172 -1 130 -3 c 1
 129 -2 128 2 128 5 c 0
 128 13 131 23 135 23 c 0
 146 23 191 32 197 45 c 0
 209 72 216 102 223 139 c 2
 290 485 l 2
 297 521 303 550 303 580 c 0
 303 590 307 601 206 601 c 0
 136 601 119 585 87 514 c 0
 85 510 82 509 77 509 c 0
 69 509 61 513 58 516 c 1
 101 655 l 1
 115 651 149 645 162 645 c 0
 243 644 286 639 359 639 c 0
 432 639 473 643 543 645 c 0
 631 647 717 678 728 678 c 1
 733 678 732 666 732 662 c 9
 732 662 714 631 703 577 c 2
 653 322 l 1
 636 232 l 1
 649 256 766 425 830 425 c 0
 868 425 884 397 884 360 c 0x7e80
 884 327 878 291 870 254 c 2
 838 104 l 2
 837 100 834 77 834 72 c 0
 834 63 834 48 844 48 c 0
 865 48 909 101 912 104 c 1
 915 104 922 92 922 86 c 1
 911 67 840 -6 794 -6 c 0
 773 -6 761 16 761 45 c 0xbf
 761 53 763 76 768 97 c 2
 802 258 l 2
 804 267 809 300 809 311 c 0
 809 333 807 353 790 353 c 0
 755 353 637 230 615 116 c 0
 609 86 601 45 591 0 c 1
 581 -3 566 -4 556 -4 c 0
 546 -4 534 -3 522 0 c 1
 623 518 l 2xbe80
EndSplineSet
LCarets2: 1 0
Ligature2: "'liga' Standard Ligatures lookup 0-1" T h
EndChar

StartChar: uni0304
Encoding: 772 772 261
Width: 0
VWidth: 934
GlyphClass: 4
Flags: W
HStem: 479 38<-359 -145>
VStem: -361 218<479 517>
LayerCount: 2
Fore
SplineSet
-153 479 m 1
 -358 479 l 1
 -358 479 -361 481 -361 487 c 0
 -361 494 -354 517 -349 517 c 2
 -148 517 l 2
 -146 517 -144 514 -144 510 c 0
 -144 505 -145 488 -153 479 c 1
EndSplineSet
EndChar

StartChar: uni0305
Encoding: 773 773 262
Width: 0
GlyphClass: 4
Flags: W
HStem: 722 62<135 665>
LayerCount: 2
Fore
SplineSet
126 731 m 0
 126 733 139 783 149 783 c 2
 678 783 l 2
 680 783 683 782 681 774 c 0
 678 756 667 733 665 729 c 0
 662 723 657 722 657 722 c 1
 130 722 l 1
 130 722 124 721 126 731 c 0
EndSplineSet
EndChar

StartChar: uni0306
Encoding: 774 774 263
Width: 0
VWidth: 970
GlyphClass: 4
Flags: W
HStem: 479 45<-287 -188>
VStem: -327 22<555 591> -146 17<577 593>
LayerCount: 2
Fore
SplineSet
-129 586 m 1
 -129 583 -130 578 -131 576 c 0
 -150 524 -199 479 -248 479 c 0
 -297 479 -330 521 -327 577 c 0
 -327 579 -326 584 -326 585 c 1
 -323 590 -312 599 -305 594 c 1
 -304 552 -277 523 -239 523 c 0
 -201 523 -164 552 -146 594 c 1
 -142 598 -131 592 -129 586 c 1
EndSplineSet
EndChar

StartChar: uni0307
Encoding: 775 775 264
Width: 0
VWidth: 995
GlyphClass: 4
Flags: W
HStem: 479 98<-278 -213>
VStem: -291 91<491 563>
LayerCount: 2
Fore
SplineSet
-291 527 m 0
 -286 554 -260 576 -235 576 c 0
 -210 576 -195 554 -200 527 c 0
 -205 500 -230 479 -255 479 c 0
 -280 479 -296 500 -291 527 c 0
EndSplineSet
EndChar

StartChar: uni0308
Encoding: 776 776 265
Width: 0
VWidth: 1018
GlyphClass: 4
Flags: W
HStem: 479 90<-362 -299 -196 -133>
VStem: -373 85<489 557> -207 85<489 556>
LayerCount: 2
Fore
SplineSet
-154 568 m 27
 -132 568 -117 546 -122 522 c 24
 -127 498 -151 479 -173 479 c 27
 -195 479 -212 499 -207 523 c 24
 -202 547 -176 568 -154 568 c 27
-321 568 m 27
 -299 568 -283 546 -288 522 c 24
 -293 498 -317 479 -339 479 c 27
 -361 479 -378 499 -373 523 c 24
 -368 547 -343 568 -321 568 c 27
EndSplineSet
EndChar

StartChar: hookabovecomb
Encoding: 777 777 266
Width: 0
GlyphClass: 4
Flags: W
HStem: 476 57<-301 -271> 593 34<-299 -238>
VStem: -303 31<480 515> -235 44<538 590>
LayerCount: 2
Fore
SplineSet
-271 593 m 0
 -290 593 -307 582 -311 576 c 1
 -314 577 -316 582 -316 587 c 0
 -316 603 -281 627 -253 627 c 0
 -217 627 -191 606 -191 576 c 0
 -191 538 -237 524 -258 515 c 0
 -270 510 -271 504 -271 498 c 0
 -271 492 -268 486 -266 483 c 1
 -270 479 -280 476 -285 476 c 1
 -290 478 -303 486 -303 503 c 0
 -303 520 -285 525 -270 532 c 0
 -250 541 -235 548 -235 565 c 0
 -235 583 -254 593 -271 593 c 0
EndSplineSet
EndChar

StartChar: uni030A
Encoding: 778 778 267
Width: 0
VWidth: 988
GlyphClass: 4
Flags: W
HStem: 479 33<-286 -216> 620 33<-272 -200>
VStem: -323 159
LayerCount: 2
Fore
SplineSet
-293 566 m 0
 -299 536 -281 512 -254 512 c 0
 -227 512 -199 536 -193 566 c 0
 -187 596 -205 620 -232 620 c 0
 -259 620 -287 596 -293 566 c 0
-323 566 m 0
 -313 614 -270 653 -226 653 c 0
 -182 653 -154 614 -164 566 c 0
 -174 518 -216 479 -260 479 c 0
 -304 479 -333 518 -323 566 c 0
EndSplineSet
EndChar

StartChar: uni030C
Encoding: 780 780 269
Width: 0
GlyphClass: 4
Flags: W
HStem: 481 132
VStem: -339 200
LayerCount: 2
Fore
SplineSet
-264 481 m 0
 -268 481 -270 485 -272 489 c 0
 -296 535 -311 559 -339 603 c 1
 -338 609 -331 613 -326 613 c 1
 -295 587 -250 551 -250 551 c 25
 -250 551 -185 589 -147 613 c 1
 -142 613 -138 609 -139 603 c 1
 -185 559 -209 535 -252 489 c 0
 -256 485 -260 481 -264 481 c 0
EndSplineSet
EndChar

StartChar: uni0312
Encoding: 786 786 270
Width: 0
GlyphClass: 4
Flags: W
HStem: 447 176
VStem: 108 97<467 531>
LayerCount: 2
Fore
SplineSet
205 501 m 0
 205 470 159 447 121 447 c 1
 108 457 108 479 108 487 c 0
 108 541 168 603 200 621 c 1
 201 622 204 623 208 623 c 0
 220 623 226 619 226 616 c 0
 226 610 184 597 176 557 c 0
 170 528 205 526 205 501 c 0
EndSplineSet
EndChar

StartChar: uni0315
Encoding: 789 789 271
Width: 0
GlyphClass: 4
Flags: W
HStem: 454 183
VStem: 169 66<534 619>
LayerCount: 2
Fore
SplineSet
158 578 m 0
 158 615 191 637 230 637 c 1
 234 630 235 621 235 609 c 0
 235 599 234 589 232 576 c 0
 223 532 165 469 141 455 c 0
 140 454 136 454 134 454 c 0
 129 454 124 461 124 466 c 0
 124 470 169 492 169 538 c 0
 169 549 158 560 158 578 c 0
EndSplineSet
EndChar

StartChar: dotbelowcomb
Encoding: 803 803 272
Width: 0
GlyphClass: 4
Flags: W
HStem: -129 98<-285 -220>
VStem: -298 91<-116 -44>
LayerCount: 2
Fore
SplineSet
-298 -80 m 0
 -293 -53 -268 -31 -243 -31 c 0
 -218 -31 -202 -53 -207 -80 c 0
 -212 -107 -238 -129 -263 -129 c 0
 -288 -129 -303 -107 -298 -80 c 0
EndSplineSet
EndChar

StartChar: uni0326
Encoding: 806 806 273
Width: 0
GlyphClass: 4
Flags: W
HStem: -188 176
VStem: -295 97<-96 -32>
LayerCount: 2
Fore
SplineSet
-295 -66 m 0
 -295 -35 -249 -13 -211 -13 c 1
 -198 -23 -198 -45 -198 -53 c 0
 -198 -107 -258 -169 -290 -187 c 1
 -291 -188 -294 -188 -298 -188 c 0
 -310 -188 -315 -185 -315 -182 c 0
 -315 -176 -274 -162 -266 -122 c 0
 -260 -93 -295 -91 -295 -66 c 0
EndSplineSet
EndChar

StartChar: uni0327
Encoding: 807 807 274
Width: 0
GlyphClass: 4
Flags: W
HStem: -148 23<-296 -237> -60 33<-241 -224> -23 20G<-244 -220>
VStem: -316 129
LayerCount: 2
Fore
SplineSet
-241 -26 m 1
 -218 -26 l 2
 -195 -26 -182 -49 -187 -74 c 0
 -196 -120 -240 -148 -287 -148 c 0
 -298 -148 -311 -144 -316 -140 c 1
 -316 -135 -317 -132 -316 -126 c 0
 -315 -119 -307 -112 -301 -112 c 0
 -290 -112 -285 -125 -270 -125 c 0
 -245 -125 -227 -110 -224 -93 c 0
 -219 -70 -234 -60 -246 -60 c 0
 -256 -60 -261 -62 -271 -66 c 0
 -273 -66 -281 -58 -278 -54 c 0
 -267 -39 -249 -18 -239 -4 c 1
 -220 -4 l 1
 -241 -26 l 1
EndSplineSet
EndChar

StartChar: uni0328
Encoding: 808 808 275
Width: 0
GlyphClass: 4
Flags: W
HStem: -213 58<-221 -137>
LayerCount: 2
Fore
SplineSet
-71 41 m 3
 -55 41 -34 36 -47 24 c 0
 -72 3 -180 -51 -192 -113 c 0
 -195 -128 -193 -155 -162 -155 c 3
 -116 -155 -87 -118 -81 -118 c 3
 -80 -118 -77 -123 -79 -131 c 0
 -80 -136 -83 -143 -87 -147 c 0
 -112 -175 -155 -213 -196 -213 c 0
 -247 -213 -250 -164 -245 -138 c 0
 -232 -74 -97 41 -71 41 c 3
EndSplineSet
EndChar

StartChar: gravecomb.cap
Encoding: 65550 -1 284
Width: 216
GlyphClass: 4
Flags: W
HStem: 678 105
VStem: 160 177
LayerCount: 2
Fore
SplineSet
331 678 m 0
 316 678 160 738 160 762 c 0
 160 773 179 783 207 783 c 0
 214 783 230 780 233 778 c 0
 257 762 337 695 337 688 c 0
 337 685 332 678 331 678 c 0
EndSplineSet
EndChar

StartChar: acutecomb.cap
Encoding: 65551 -1 285
Width: 219
GlyphClass: 4
Flags: W
HStem: 678 105
VStem: 146 177
LayerCount: 2
Fore
SplineSet
152 678 m 0
 151 678 146 685 146 688 c 0
 146 695 226 762 250 778 c 0
 253 780 269 783 276 783 c 0
 304 783 323 773 323 762 c 0
 323 738 167 678 152 678 c 0
EndSplineSet
EndChar

StartChar: uni0302.cap
Encoding: 65552 -1 286
Width: 288
GlyphClass: 4
Flags: W
HStem: 694 122
VStem: 169 229
LayerCount: 2
Fore
SplineSet
312 816 m 0
 316 816 319 814 321 810 c 0
 346 769 364 744 397 704 c 1
 396 698 389 694 383 694 c 1
 347 718 296 752 296 752 c 25
 296 752 226 717 179 694 c 1
 173 694 168 698 169 704 c 1
 224 745 251 768 298 810 c 0
 303 814 308 816 312 816 c 0
EndSplineSet
EndChar

StartChar: uni030A.cap
Encoding: 65553 -1 287
Width: 375
GlyphClass: 4
Flags: W
HStem: 490 33<234 304> 632 33<248 320>
VStem: 196 160
LayerCount: 2
Fore
SplineSet
226 578 m 0
 220 548 239 523 266 523 c 0
 293 523 320 548 326 578 c 0
 332 608 315 632 288 632 c 0
 261 632 232 608 226 578 c 0
196 578 m 0
 206 626 251 665 295 665 c 0
 339 665 366 626 356 578 c 0
 346 530 305 490 261 490 c 0
 217 490 186 530 196 578 c 0
EndSplineSet
EndChar

StartChar: tildecomb.cap
Encoding: 65554 -1 288
Width: 277
GlyphClass: 4
Flags: W
HStem: 708 41<329 431> 745 41<202 304>
VStem: 169 294
LayerCount: 2
Fore
SplineSet
264 786 m 0x60
 287 786 302 784 323 772 c 0
 344 760 364 749 394 749 c 0xa0
 427 749 451 779 457 786 c 1x60
 460 785 463 783 463 776 c 0
 463 762 454 749 445 740 c 0
 421 717 397 708 369 708 c 0xa0
 346 708 331 710 310 722 c 0
 289 734 269 745 239 745 c 0x60
 206 745 182 715 176 708 c 1xa0
 173 709 169 711 169 718 c 0
 169 732 179 745 188 754 c 0
 212 777 236 786 264 786 c 0x60
EndSplineSet
EndChar

StartChar: uni0304.cap
Encoding: 65555 -1 289
Width: 343
GlyphClass: 4
Flags: W
HStem: 544 38<166 406>
VStem: 164 243<544 582>
LayerCount: 2
Fore
SplineSet
397 544 m 1
 167 544 l 1
 167 544 164 547 164 553 c 0
 164 560 171 582 176 582 c 2
 403 582 l 2
 405 582 407 579 407 575 c 0
 407 570 405 553 397 544 c 1
EndSplineSet
EndChar

StartChar: uni0306.cap
Encoding: 65556 -1 290
Width: 225
GlyphClass: 4
Flags: W
HStem: 513 47<165 273>
VStem: 130 22<585 616> 310 19<601 617>
LayerCount: 2
Fore
SplineSet
220 560 m 0
 258 560 294 580 310 616 c 0
 310 618 312 618 314 618 c 0
 320 618 329 611 328 607 c 0
 328 606 326 603 326 601 c 0
 309 556 260 513 211 513 c 0
 162 513 129 553 130 602 c 0
 130 604 130 606 130 607 c 0
 131 611 142 618 148 618 c 0
 150 618 152 618 152 616 c 0
 154 580 182 560 220 560 c 0
EndSplineSet
EndChar

StartChar: uni0327.cap
Encoding: 65557 -1 291
Width: 392
GlyphClass: 4
Flags: W
HStem: -170 27<122 191> -65 39<187 206> -20 20G<183 211>
VStem: 98 152
LayerCount: 2
Fore
SplineSet
187 -26 m 1
 214 -26 l 2
 242 -26 256 -53 250 -83 c 0
 239 -137 188 -170 132 -170 c 0
 119 -170 104 -165 98 -160 c 1
 98 -154 97 -151 98 -144 c 0
 100 -136 109 -128 116 -128 c 0
 129 -128 135 -143 153 -143 c 0
 183 -143 202 -124 206 -104 c 0
 211 -77 195 -65 181 -65 c 0
 169 -65 163 -68 151 -73 c 0
 149 -73 140 -64 143 -59 c 0
 157 -41 177 -17 189 0 c 1
 211 0 l 1
 187 -26 l 1
EndSplineSet
EndChar

StartChar: uni0323.cap
Encoding: 65559 -1 293
Width: 232
GlyphClass: 4
Flags: W
HStem: -133 98<80 145>
VStem: 67 91<-120 -48>
LayerCount: 2
Fore
SplineSet
67 -84 m 0
 72 -57 97 -35 122 -35 c 0
 147 -35 163 -57 158 -84 c 0
 153 -111 128 -133 103 -133 c 0
 78 -133 62 -111 67 -84 c 0
EndSplineSet
EndChar

StartChar: uni0305.cap
Encoding: 65560 -1 294
Width: 513
GlyphClass: 4
Flags: W
HStem: 722 62<136 666>
LayerCount: 2
Fore
SplineSet
127 731 m 0
 127 733 140 783 150 783 c 2
 679 783 l 2
 681 783 684 782 682 774 c 0
 679 756 668 733 666 729 c 0
 663 723 658 722 658 722 c 1
 131 722 l 1
 131 722 125 721 127 731 c 0
EndSplineSet
EndChar

StartChar: hookabovecomb.cap
Encoding: 65561 -1 295
Width: 160
GlyphClass: 4
Flags: W
HStem: 470 61<140 172> 582 35<135 205>
VStem: 137 35<475 511> 207 46<535 579>
LayerCount: 2
Fore
SplineSet
166 582 m 0
 145 582 127 571 122 564 c 1
 119 565 115 569 115 575 c 0
 115 592 155 617 187 617 c 0
 228 617 253 592 253 570 c 0
 253 535 213 520 191 512 c 0
 180 508 172 504 172 497 c 0
 172 490 176 482 178 479 c 1
 173 474 163 470 157 470 c 1
 151 472 137 480 137 499 c 0
 137 513 157 523 174 530 c 0
 192 537 207 547 207 558 c 0
 207 577 185 582 166 582 c 0
EndSplineSet
EndChar

StartChar: uni030B.cap
Encoding: 65562 -1 296
Width: 350
GlyphClass: 4
Flags: W
HStem: 678 105<293 305>
VStem: 146 318
LayerCount: 2
Fore
SplineSet
294 678 m 0
 293 678 288 685 288 688 c 0
 288 695 368 762 392 778 c 0
 395 780 411 783 418 783 c 0
 446 783 465 773 465 762 c 0
 465 738 309 678 294 678 c 0
152 678 m 0
 151 678 146 685 146 688 c 0
 146 695 226 762 250 778 c 0
 253 780 269 783 276 783 c 0
 304 783 323 773 323 762 c 0
 323 738 167 678 152 678 c 0
EndSplineSet
EndChar

StartChar: uni0308.cap
Encoding: 65563 -1 297
Width: 304
GlyphClass: 4
Flags: W
HStem: 695 98<182 247 346 411>
VStem: 169 91<709 780> 333 91<708 780>
LayerCount: 2
Fore
SplineSet
333 744 m 0
 338 771 363 793 388 793 c 0
 413 793 429 771 424 744 c 0
 419 717 394 695 369 695 c 0
 344 695 328 717 333 744 c 0
169 744 m 0
 174 771 199 793 224 793 c 0
 249 793 265 771 260 744 c 0
 255 717 229 695 204 695 c 0
 179 695 164 717 169 744 c 0
EndSplineSet
EndChar

StartChar: uni0308.narrow
Encoding: 65564 -1 298
Width: 262
VWidth: 0
GlyphClass: 4
Flags: W
HStem: 466 98<141 204 271 334>
VStem: 131 86<477 554> 261 86<477 554>
LayerCount: 2
Fore
SplineSet
311 563 m 27
 332 563 347 545 347 524 c 27
 347 494 324 466 294 466 c 27
 273 466 261 488 261 509 c 27
 261 538 282 563 311 563 c 27
181 563 m 27
 202 563 217 545 217 524 c 27
 217 494 194 466 164 466 c 27
 143 466 131 488 131 509 c 27
 131 538 152 563 181 563 c 27
EndSplineSet
EndChar

StartChar: uni030C.cap
Encoding: 65565 -1 299
Width: 234
GlyphClass: 4
Flags: W
HStem: 694 122
VStem: 169 229
LayerCount: 2
Fore
SplineSet
255 694 m 0
 250 694 247 697 245 701 c 0
 220 745 201 766 169 807 c 1
 170 813 178 816 184 816 c 1
 220 792 271 759 271 759 c 25
 271 759 344 794 388 816 c 1
 394 816 398 813 397 807 c 1
 344 766 317 745 269 701 c 0
 264 697 260 694 255 694 c 0
EndSplineSet
EndChar

StartChar: Aogonek
Encoding: 260 260 302
Width: 572
Flags: W
HStem: -225 58<282 355> -3 28<-51 2 77 131 492 530> 250 32<188 359> 628 20G<373 378>
VStem: 247 53<-187 -110>
LayerCount: 2
Fore
SplineSet
476 59 m 0
 481 36 524 25 531 25 c 1
 534 18 530 0 528 -3 c 1
 492 -1 516 0 481 0 c 0
 375 0 299 -102 299 -136 c 0
 299 -151 306 -167 330 -167 c 0
 376 -167 405 -130 411 -130 c 0
 419 -130 408 -156 405 -159 c 0
 380 -187 337 -225 296 -225 c 0
 267 -225 247 -200 247 -174 c 0
 247 -120 308 -55 352 -11 c 0
 373 10 388 15 388 52 c 0
 388 64 387 95 386 104 c 2
 364 250 l 1
 170 250 l 1
 137 190 109 139 100 122 c 0
 82 88 72 64 72 49 c 0
 72 28 125 25 132 25 c 1
 134 22 131 3 128 -3 c 1
 92 -1 82 2 42 2 c 0
 0 2 -12 -1 -54 -3 c 1
 -56 0 -52 18 -48 25 c 1
 -37 25 -5 31 7 44 c 0
 31 69 48 101 68 136 c 2
 337 619 l 2
 346 635 368 647 376 647 c 0
 379 647 380 646 381 645 c 1
 465 123 l 2
 467 112 472 79 476 59 c 0
188 282 m 1
 359 282 l 1
 321 522 l 1
 188 282 l 1
EndSplineSet
EndChar

StartChar: aogonek
Encoding: 261 261 303
Width: 438
Flags: W
HStem: -225 58<189 263> -5 57<79 157> 386 39<217 315>
VStem: 19 72<64 217> 154 53<-189 -111> 237 73<21 161>
LayerCount: 2
Fore
SplineSet
253 386 m 0
 178 386 91 259 91 147 c 0
 91 86 107 52 141 52 c 0
 190 52 258 174 277 268 c 2
 298 371 l 1
 289 381 266 386 253 386 c 0
398 86 m 1
 392 75 363 45 337 24 c 0
 301 -5 207 -86 207 -136 c 0
 207 -151 213 -167 237 -167 c 0
 283 -167 312 -130 318 -130 c 0
 326 -130 315 -156 312 -159 c 0
 287 -187 245 -225 204 -225 c 0
 175 -225 154 -202 154 -176 c 0
 154 -126 214 -50 260 -4 c 1
 245 2 237 22 237 45 c 0
 237 53 240 76 244 97 c 0
 247 115 248 120 249 127 c 1
 229 92 162 -5 105 -5 c 0
 52 -5 19 42 19 110 c 0
 19 280 179 425 298 425 c 0
 332 425 355 419 374 412 c 1
 314 104 l 2
 313 100 311 77 311 72 c 0
 311 63 310 48 320 48 c 0
 341 48 386 101 389 104 c 1
 392 104 398 92 398 86 c 1
EndSplineSet
Substitution2: "'smcp' Lowercase to Small Capitals in Latin lookup 3-1" aogonek.sc
EndChar

StartChar: Eogonek
Encoding: 280 280 319
Width: 541
Flags: W
HStem: -225 58<226 300> -3 32<-2 68 155 308> 309 32<210 361> 615 26<117 174 264 457>
VStem: 191 53<-189 -108> 374 28<225 265> 493 28<511 577>
LayerCount: 2
Fore
SplineSet
412 -4 m 1
 319 -4 244 -87 244 -136 c 0
 244 -151 250 -167 274 -167 c 0
 320 -167 349 -130 355 -130 c 0
 363 -130 352 -156 349 -159 c 0
 324 -187 282 -225 241 -225 c 0
 212 -225 191 -202 191 -176 c 0
 191 -124 253 -29 309 -3 c 1
 248 -2 178 0 103 0 c 0
 60 0 30 -3 -5 -3 c 1
 -9 2 -5 20 -0 25 c 1
 11 25 61 30 66 41 c 0
 74 57 79 84 85 113 c 2
 166 530 l 2
 172 559 176 587 174 603 c 0
 173 614 126 618 115 618 c 1
 112 623 115 641 121 646 c 1
 158 644 192 642 228 642 c 0
 313 642 422 648 521 648 c 1
 518 599 521 560 521 516 c 1
 518 513 511 511 504 511 c 0
 497 511 493 513 493 518 c 0
 488 596 455 615 407 615 c 2
 329 615 l 2
 318 615 270 614 265 604 c 0
 257 588 250 560 245 534 c 2
 209 347 l 2
 208 342 227 341 247 341 c 2
 295 341 l 2
 382 341 380 347 408 411 c 0
 410 416 417 418 424 418 c 0
 431 418 436 416 438 413 c 1
 402 229 l 1
 400 227 394 225 387 225 c 0
 380 225 375 227 374 232 c 0
 371 288 368 295 361 301 c 0
 352 308 301 309 267 309 c 0
 242 309 201 309 199 300 c 2
 161 106 l 2
 158 91 149 44 154 39 c 0
 164 29 179 29 217 29 c 2
 260 29 l 2
 310 29 350 39 381 60 c 0
 407 78 433 106 457 158 c 0
 459 162 465 164 472 164 c 0
 481 164 491 161 493 158 c 1
 466 105 427 39 412 -4 c 1
EndSplineSet
EndChar

StartChar: eogonek
Encoding: 281 281 320
Width: 354
Flags: W
HStem: -225 58<54 127> -6 58<121 138> 188 24<103 144> 385 40<192 292>
VStem: 20 52<-166 -121> 22 76<75 212 213 236> 260 72<306 380>
LayerCount: 2
Fore
SplineSet
103 213 m 1xf2
 141 213 260 274 260 346 c 0
 260 372 238 385 219 385 c 0
 152 385 108 263 103 213 c 1xf2
20 -176 m 0xfa
 19 -128 112 -29 138 -6 c 1
 135 -6 133 -6 130 -6 c 0
 61 -6 22 45 22 136 c 0xf6
 22 281 156 425 268 425 c 0
 318 425 332 393 332 364 c 0
 332 270 162 188 101 188 c 1
 100 185 99 162 99 157 c 0
 99 97 117 52 166 52 c 0
 210 52 264 116 267 119 c 1
 270 119 278 106 278 100 c 1
 273 91 259 74 238 53 c 0
 184 0 71 -97 71 -136 c 0
 71 -151 78 -167 102 -167 c 0
 148 -167 177 -130 183 -130 c 0
 191 -130 180 -156 177 -159 c 0
 152 -187 109 -225 68 -225 c 0
 39 -225 20 -202 20 -176 c 0xfa
EndSplineSet
Substitution2: "'smcp' Lowercase to Small Capitals in Latin lookup 3-1" eogonek.sc
EndChar

StartChar: Iogonek
Encoding: 302 302 339
Width: 305
Flags: W
HStem: -225 58<21 94> -3 28<-5 64 155 209> 618 28<116 173 264 332>
VStem: -14 52<-189 -104>
LayerCount: 2
Fore
SplineSet
213 25 m 1
 215 21 209 1 207 -3 c 1
 191 -3 176 -6 161 -10 c 0
 91 -31 38 -95 38 -136 c 0
 38 -151 44 -167 68 -167 c 0
 114 -167 143 -130 149 -130 c 0
 157 -130 147 -156 144 -159 c 0
 119 -187 76 -225 35 -225 c 0
 6 -225 -14 -202 -14 -176 c 0
 -14 -115 49 -24 105 2 c 1
 70 2 32 -1 -6 -3 c 1
 -10 2 -6 20 -1 25 c 1
 10 25 60 30 65 41 c 0
 73 57 78 84 84 113 c 2
 165 530 l 2
 171 559 176 587 174 603 c 0
 173 614 125 618 114 618 c 1
 111 623 114 641 120 646 c 1
 157 644 192 642 227 642 c 0
 262 642 296 644 334 646 c 1
 338 641 333 623 328 618 c 1
 317 618 268 614 263 603 c 0
 255 587 250 559 244 530 c 2
 163 113 l 2
 157 84 151 57 153 41 c 0
 154 30 202 25 213 25 c 1
EndSplineSet
EndChar

StartChar: iogonek
Encoding: 303 303 340
Width: 256
Flags: W
HStem: -225 58<39 112> 371 54<95 158> 533 98<124 187>
VStem: 4 53<-189 -106> 112 73<295 374> 113 86<545 621>
LayerCount: 2
Fore
SplineSet
164 631 m 0xf4
 185 631 199 613 199 592 c 0
 199 562 176 533 146 533 c 0
 125 533 113 554 113 575 c 0
 113 604 135 631 164 631 c 0xf4
213 86 m 1
 208 77 186 54 165 35 c 0
 113 -12 57 -86 57 -136 c 0
 57 -151 63 -167 87 -167 c 0
 133 -167 162 -130 168 -130 c 0
 176 -130 165 -156 162 -159 c 0
 137 -187 95 -225 54 -225 c 0
 25 -225 4 -202 4 -176 c 0
 4 -127 60 -42 91 -6 c 1
 89 -6 87 -6 85 -6 c 0
 64 -6 52 16 52 45 c 0
 52 53 55 76 59 97 c 2
 108 315 l 2
 109 321 112 342 112 347 c 0
 112 356 113 371 103 371 c 0
 82 371 37 317 34 314 c 1
 31 314 24 327 24 333 c 1
 35 352 101 425 147 425 c 0
 168 425 186 403 186 374 c 0xf8
 186 366 183 343 179 322 c 2
 129 104 l 2
 127 94 125 77 125 72 c 0
 125 63 125 48 135 48 c 0
 156 48 200 101 203 104 c 1
 206 104 213 92 213 86 c 1
EndSplineSet
Substitution2: "'smcp' Lowercase to Small Capitals in Latin lookup 3-1" iogonek.sc
EndChar

StartChar: Uogonek
Encoding: 370 370 388
Width: 666
Flags: W
HStem: -225 58<247 320> -4 57<226 368> 618 28<104 161 251 319 521 576 649 720>
VStem: 212 53<-184 -110>
LayerCount: 2
Fore
SplineSet
264 -136 m 0
 264 -151 271 -167 295 -167 c 0
 341 -167 370 -130 376 -130 c 0
 384 -130 373 -156 370 -159 c 0
 345 -187 302 -225 261 -225 c 0
 232 -225 212 -197 212 -171 c 0
 212 -121 279 -40 332 0 c 1
 314 -3 296 -4 277 -4 c 0
 206 -4 150 23 119 72 c 0
 92 115 82 174 96 245 c 2
 152 530 l 2
 158 559 164 587 162 603 c 0
 161 614 113 618 102 618 c 1
 99 623 102 641 108 646 c 1
 145 644 179 642 214 642 c 0
 249 642 283 644 321 646 c 1
 325 641 320 623 315 618 c 1
 304 618 255 614 250 603 c 0
 242 587 237 559 231 530 c 2
 184 289 l 2
 169 214 172 158 189 119 c 0
 209 74 248 53 307 53 c 0
 401 53 490 100 525 268 c 1
 577 532 l 2
 584 567 587 584 581 600 c 0
 577 610 534 619 519 619 c 1
 516 626 520 641 523 647 c 1
 559 645 583 643 623 643 c 0
 665 643 680 645 722 647 c 1
 724 642 724 630 717 619 c 1
 706 619 651 612 642 600 c 0
 631 585 628 570 621 533 c 2
 569 270 l 2
 547 158 500 85 438 42 c 0
 357 -15 264 -89 264 -136 c 0
EndSplineSet
EndChar

StartChar: uogonek
Encoding: 371 371 389
Width: 478
Flags: W
HStem: -225 58<229 303> -6 72<87 161> 371 54<91 153>
VStem: 58 75<46 202> 107 73<252 397> 194 53<-189 -111>
LayerCount: 2
Fore
SplineSet
194 -176 m 0xf4
 194 -126 254 -50 300 -4 c 1
 285 2 277 22 277 45 c 0
 278 53 281 76 285 97 c 0
 291 130 296 149 303 182 c 1
 278 127 170 -6 106 -6 c 0
 68 -6 58 27 58 64 c 0xf4
 58 91 65 137 71 165 c 2
 104 315 l 2
 105 321 107 342 107 347 c 0
 107 356 108 371 98 371 c 0
 77 371 32 317 29 314 c 1
 26 314 20 327 20 333 c 1
 31 352 97 425 143 425 c 0
 164 425 181 403 181 374 c 0xec
 181 366 178 343 174 322 c 2
 140 161 l 2
 138 152 133 119 133 108 c 0
 133 86 134 66 151 66 c 0
 186 66 303 190 326 312 c 0
 334 354 339 377 348 419 c 1
 358 422 368 423 378 423 c 0
 388 423 404 422 416 419 c 1
 355 104 l 2
 353 94 352 77 351 72 c 0
 351 63 350 48 360 48 c 0
 381 48 426 101 429 104 c 1
 432 104 438 92 438 86 c 1
 432 75 403 45 377 24 c 0
 341 -5 247 -86 247 -136 c 0
 247 -151 253 -167 277 -167 c 0
 323 -167 352 -130 358 -130 c 0
 366 -130 356 -156 353 -159 c 0
 328 -187 285 -225 244 -225 c 0
 215 -225 194 -202 194 -176 c 0xf4
EndSplineSet
Substitution2: "'smcp' Lowercase to Small Capitals in Latin lookup 3-1" uogonek.sc
EndChar

StartChar: Hbar
Encoding: 294 294 402
Width: 669
Flags: W
HStem: -3 28<-3 66 155 213 361 430 520 577> 309 39<210 488> 461 33<104 652> 618 28<118 175 265 334 482 539 630 698>
LayerCount: 2
Fore
SplineSet
113 494 m 1
 137 494 640 494 652 494 c 0
 655 494 656 490 655 486 c 0
 654 481 650 469 645 461 c 1
 621 461 116 461 104 461 c 0
 101 461 102 468 103 472 c 0
 104 477 106 486 113 494 c 1
EndSplineSet
Refer: 39 72 N 1 0 0 1 1 0 2
EndChar

StartChar: hbar
Encoding: 295 295 403
Width: 458
Flags: W
HStem: -6 54<282 345> 353 72<280 348> 519 33<78 311> 616 21<76 132> 649 20<198 211>
VStem: 136 79<535 651> 260 73<21 167> 308 75<217 379>
LayerCount: 2
Fore
SplineSet
87 552 m 1xfc
 111 552 299 552 311 552 c 0
 314 552 314 548 313 544 c 0
 312 539 308 527 303 519 c 1
 279 519 90 519 78 519 c 0
 75 519 75 525 76 529 c 0
 77 534 80 544 87 552 c 1xfc
EndSplineSet
Refer: 71 104 N 1 0 0 1 0 0 2
Substitution2: "'smcp' Lowercase to Small Capitals in Latin lookup 3-1" hbar.sc
EndChar

StartChar: Lslash
Encoding: 321 321 404
Width: 516
Flags: W
HStem: 0 29<-2 67 154 347> 618 28<117 175 264 332>
LayerCount: 2
Fore
SplineSet
63 202 m 2
 428 437 l 1
 432 432 441 409 437 406 c 2
 73 174 l 1
 69 180 59 199 63 202 c 2
EndSplineSet
Refer: 43 76 N 1 0 0 1 -1 0 2
EndChar

StartChar: lslash
Encoding: 322 322 405
Width: 239
Flags: W
HStem: -6 54<59 121> 616 21<80 135> 649 20<202 215>
VStem: 36 73<21 172> 140 79<532 651>
LayerCount: 2
Fore
SplineSet
41 281 m 2
 234 413 l 1
 237 408 247 390 242 387 c 2
 48 254 l 1
 44 260 36 278 41 281 c 2
EndSplineSet
Refer: 75 108 N 1 0 0 1 0 0 2
Substitution2: "'smcp' Lowercase to Small Capitals in Latin lookup 3-1" lslash.sc
EndChar

StartChar: Tbar
Encoding: 358 358 406
Width: 574
Flags: W
HStem: -3 28<132 200 290 348> 301 39<140 463> 605 34<155 316 395 548>
VStem: 573 31<483 573>
LayerCount: 2
Fore
SplineSet
149 340 m 1
 175 340 449 340 462 340 c 0
 466 340 467 335 466 330 c 0
 465 324 459 310 454 301 c 1
 428 301 155 301 142 301 c 0
 138 301 138 308 139 313 c 0
 140 319 142 331 149 340 c 1
EndSplineSet
Refer: 51 84 N 1 0 0 1 1 0 2
EndChar

StartChar: tbar
Encoding: 359 359 407
Width: 278
VWidth: 0
Flags: W
HStem: -6 54<72 134> 269 39<44 276> 367 36<50 108 185 262>
VStem: 42 237 49 73<21 173>
LayerCount: 2
Fore
SplineSet
53 308 m 1xf0
 79 308 262 308 275 308 c 0
 279 308 280 303 279 298 c 0
 278 292 273 278 268 269 c 1
 242 269 58 269 45 269 c 0
 41 269 41 276 42 281 c 0
 43 287 46 299 53 308 c 1xf0
EndSplineSet
Refer: 83 116 N 1 0 0 1 1 0 2
Substitution2: "'smcp' Lowercase to Small Capitals in Latin lookup 3-1" tbar.sc
EndChar

StartChar: dcroat
Encoding: 273 273 408
Width: 435
Flags: W
HStem: -5 57<75 155 280 321> 386 39<218 284> 519 33<241 474> 616 21<281 336> 649 20<402 416>
VStem: 19 72<64 214> 237 73<21 159> 340 79<532 651>
LayerCount: 2
Fore
SplineSet
250 552 m 1
 274 552 462 552 474 552 c 0
 477 552 478 548 477 544 c 0
 476 539 471 527 466 519 c 1
 442 519 253 519 241 519 c 0
 238 519 238 525 239 529 c 0
 240 534 243 544 250 552 c 1
EndSplineSet
Refer: 67 100 N 1 0 0 1 0 0 2
Substitution2: "'smcp' Lowercase to Small Capitals in Latin lookup 3-1" dcroat.sc
EndChar

StartChar: kgreenlandic
Encoding: 312 312 411
Width: 470
Flags: W
HStem: -4 54<309 366> 371 54<92 154> 379 46<271 358>
VStem: 43 69<-4 36> 108 73<279 397> 336 76<293 378>
LayerCount: 2
Fore
SplineSet
104 315 m 2xb4
 105 321 108 342 108 347 c 0
 108 356 109 371 99 371 c 0
 78 371 33 317 30 314 c 1
 27 314 21 327 21 333 c 1
 32 352 98 425 144 425 c 0
 165 425 182 403 182 374 c 0xcc
 182 366 178 343 175 322 c 2
 174 314 l 1
 179 318 255 425 339 425 c 0
 377 425 412 396 412 358 c 0
 412 269 314 225 206 206 c 1
 292 77 319 50 359 50 c 0
 376 50 415 90 426 104 c 1
 429 104 436 91 436 86 c 1
 428 72 359 -4 316 -4 c 0
 239 -4 190 117 148 187 c 1
 112 0 l 1
 101 -3 89 -5 78 -5 c 0
 67 -5 55 -3 43 0 c 1
 104 315 l 2xb4
304 379 m 0xa4
 247 379 168 285 156 225 c 1
 221 225 336 265 336 346 c 0
 336 364 331 379 304 379 c 0xa4
EndSplineSet
Substitution2: "'smcp' Lowercase to Small Capitals in Latin lookup 3-1" kgreenlandic.sc
EndChar

StartChar: Eng
Encoding: 330 330 412
Width: 713
Flags: W
HStem: -228 19<310 332> -3 28<-9 60 137 195> 619 28<112 174 553 610 686 756>
LayerCount: 2
Fore
SplineSet
498 43 m 9
 221 556 l 1
 135 112 l 2
 128 77 125 61 131 45 c 0
 135 35 181 25 196 25 c 1
 199 18 195 3 192 -3 c 1
 156 -1 129 2 89 2 c 0
 47 2 30 -1 -12 -3 c 1
 -14 2 -13 14 -6 25 c 1
 5 25 59 33 68 45 c 0
 79 60 84 74 91 111 c 2
 173 535 l 2
 180 572 182 587 177 602 c 0
 173 614 121 621 110 621 c 1
 107 632 111 644 115 649 c 1
 156 647 179 645 209 645 c 0
 236 645 265 645 278 646 c 1
 309 568 469 313 540 162 c 1
 612 532 l 2
 619 567 622 584 616 600 c 0
 612 610 566 619 551 619 c 1
 548 626 552 641 555 647 c 1
 591 645 618 643 658 643 c 0
 700 643 716 645 758 647 c 1
 760 642 760 630 753 619 c 1
 742 619 687 612 678 600 c 0
 667 585 663 570 656 533 c 2
 575 113 l 2
 525 -145 390 -228 312 -228 c 1
 310 -225 309 -220 309 -215 c 0
 309 -213 310 -209 310 -209 c 1
 408 -179 470 -66 498 43 c 9
EndSplineSet
EndChar

StartChar: OE
Encoding: 338 338 413
Width: 865
Flags: W
HStem: -11 28<254 386> 0 29<506 701> 309 32<561 712> 615 26<615 809> 621 29<331 477>
VStem: 56 92<149 399> 726 28<225 265> 845 28<511 577>
LayerCount: 2
Fore
SplineSet
586 642 m 0x37
 671 642 773 648 872 648 c 1
 869 599 873 560 873 516 c 1
 870 513 862 511 855 511 c 0
 848 511 845 513 845 518 c 0
 840 596 807 615 759 615 c 2
 681 615 l 2
 670 615 621 614 616 604 c 0
 608 588 602 560 597 534 c 2
 561 347 l 2
 560 342 579 341 599 341 c 2
 646 341 l 2
 733 341 732 347 760 411 c 0
 762 416 768 418 775 418 c 0
 782 418 787 416 789 413 c 1
 754 229 l 1
 752 227 745 225 738 225 c 0
 731 225 727 227 726 232 c 0
 723 288 720 295 713 301 c 0
 704 308 652 309 618 309 c 0
 593 309 553 309 551 300 c 2
 513 106 l 2
 510 91 501 44 506 39 c 0
 516 29 530 29 568 29 c 2
 611 29 l 2
 661 29 701 39 732 60 c 0
 758 78 785 106 809 158 c 0
 811 162 816 164 823 164 c 0
 832 164 843 161 845 158 c 1
 818 105 779 39 764 -4 c 1
 665 -4 575 2 455 0 c 24x77
 401 -1 350 -11 317 -11 c 3
 138 -11 56 121 56 268 c 3
 56 478 209 650 403 650 c 3xaf
 474 650 524 641 586 642 c 0x37
518 544 m 2
 530 606 449 621 395 621 c 3
 248 621 147 434 147 266 c 3
 147 107 207 18 317 18 c 3xaf
 389 18 414 50 419 61 c 0
 427 77 431 84 437 113 c 2
 518 544 l 2
EndSplineSet
EndChar

StartChar: oe
Encoding: 339 339 414
Width: 599
VWidth: 0
Flags: W
HStem: -6 58<366 437> -5 31<126 197> 188 24<348 390> 385 40<437 538> 394 31<188 259>
VStem: 23 76<48 244> 283 61<138 188 213 280> 505 72<306 380>
LayerCount: 2
Fore
SplineSet
348 213 m 1x37
 392 215 505 276 505 346 c 0
 505 372 483 385 464 385 c 0
 404 385 357 283 348 213 c 1x37
231 394 m 0x6f
 149 394 100 252 100 154 c 0
 100 76 120 26 155 26 c 0
 219 26 283 133 283 267 c 0
 283 345 266 394 231 394 c 0x6f
513 425 m 0x37
 563 425 577 393 577 364 c 0
 577 270 407 188 346 188 c 1
 345 185 344 162 344 157 c 0
 344 97 362 52 411 52 c 0
 455 52 509 116 512 119 c 1
 515 119 523 106 523 100 c 1
 510 79 437 -6 375 -6 c 0xb7
 325 -6 291 21 276 70 c 1
 236 25 187 -5 137 -5 c 0
 59 -5 23 51 23 135 c 0
 23 272 133 425 245 425 c 0x6f
 304 425 339 392 353 340 c 1
 400 392 458 425 513 425 c 0x37
EndSplineSet
Substitution2: "'smcp' Lowercase to Small Capitals in Latin lookup 3-1" oe.sc
EndChar

StartChar: eng
Encoding: 331 331 415
Width: 464
Flags: W
HStem: -4 21G<68 82> 353 72<299 363> 371 54<93 155>
VStem: 109 73<244 397> 334 75<216 380>
LayerCount: 2
Fore
SplineSet
352 44 m 2xd8
 344 9 324 -65 282 -121 c 0
 241 -175 180 -215 146 -229 c 1
 142 -226 138 -217 138 -210 c 1
 203 -173 253 -87 276 21 c 2
 327 258 l 2
 329 267 334 300 334 311 c 0
 334 336 333 353 315 353 c 0xd8
 279 353 158 241 135 119 c 0
 126 72 120 47 110 0 c 1
 96 -2 89 -4 75 -4 c 0
 61 -4 55 -2 41 0 c 1
 105 315 l 2
 106 321 109 342 109 347 c 0
 109 356 110 371 100 371 c 0
 79 371 34 317 31 314 c 1
 28 314 21 327 21 333 c 1
 32 352 99 425 145 425 c 0xb8
 166 425 183 403 183 374 c 0
 183 366 180 343 175 322 c 2
 157 240 l 1
 170 264 284 425 349 425 c 0
 394 425 409 400 409 360 c 0
 409 330 403 287 396 254 c 2
 352 44 l 2xd8
EndSplineSet
Substitution2: "'smcp' Lowercase to Small Capitals in Latin lookup 3-1" eng.sc
EndChar

StartChar: uni0237
Encoding: 567 567 416
Width: 243
Flags: W
HStem: 371 54<101 164>
VStem: 118 73<245 397>
LayerCount: 2
Fore
SplineSet
114 315 m 2
 115 321 118 342 118 347 c 0
 118 356 118 371 108 371 c 0
 87 371 43 317 40 314 c 1
 37 314 30 327 30 333 c 1
 41 352 107 425 153 425 c 0
 174 425 191 403 191 374 c 0
 191 366 189 343 185 322 c 2
 131 44 l 2
 124 9 104 -65 62 -121 c 0
 21 -175 -40 -215 -74 -229 c 1
 -78 -226 -83 -217 -83 -210 c 1
 -18 -173 35 -87 56 21 c 2
 114 315 l 2
EndSplineSet
EndChar

StartChar: f.short
Encoding: 65566 -1 417
Width: 270
VWidth: 0
Flags: W
HStem: -226 38<-65 -8> 353 45<46 102 185 279> 646 32<239 285>
LayerCount: 2
Fore
SplineSet
280 678 m 0
 323 678 350 662 362 649 c 1
 366 628 355 586 327 586 c 0
 293 586 295 646 259 646 c 0
 227 646 210 565 183 403 c 0
 183 401 l 0
 183 399 184 397 186 397 c 2
 275 397 l 2
 279 397 280 391 280 386 c 27
 280 372 275 361 270 353 c 1
 178 353 l 2
 175 353 173 353 172 345 c 2
 118 53 l 2
 85 -138 24 -226 -61 -226 c 0
 -111 -226 -135 -203 -141 -186 c 1
 -142 -157 -124 -128 -101 -128 c 0
 -75 -128 -77 -188 -28 -188 c 0
 7 -188 38 -21 45 15 c 2
 104 346 l 1
 104 348 l 2
 104 351 103 353 101 353 c 2
 37 353 l 2
 36 353 35 353 35 355 c 0
 35 365 60 397 82 397 c 2
 110 397 l 2
 113 397 115 402 116 406 c 0
 140 531 176 678 280 678 c 0
EndSplineSet
EndChar

StartChar: zero.onum
Encoding: 65567 -1 418
Width: 412
VWidth: 0
Flags: W
HStem: -5 40<137 220> 398 39<177 257>
VStem: 29 77<68 275> 288 77<158 366>
LayerCount: 2
Fore
SplineSet
106 173 m 0
 106 88 132 35 175 35 c 0
 245 35 288 167 288 261 c 0
 288 344 262 398 220 398 c 0
 150 398 106 267 106 173 c 0
29 164 m 0
 29 308 136 438 236 438 c 0
 312 438 365 367 365 269 c 0
 365 125 259 -5 159 -5 c 0
 83 -5 29 66 29 164 c 0
EndSplineSet
EndChar

StartChar: one.onum
Encoding: 65568 -1 419
Width: 270
Flags: W
HStem: -3 26<-1 54 162 209>
VStem: -2 228
LayerCount: 2
Fore
SplineSet
51 367 m 24
 115 394 183 419 218 433 c 1
 220 433 226 417 226 411 c 0
 226 407 207 367 199 326 c 2
 158 111 l 2
 156 96 152 70 152 51 c 0
 152 30 201 23 208 23 c 0
 211 23 210 17 209 11 c 0
 208 6 207 0 205 -3 c 1
 169 -1 134 2 100 2 c 0
 63 2 36 -1 -2 -3 c 1
 -6 2 -1 23 4 23 c 0
 15 23 58 32 65 45 c 0
 75 63 82 85 85 101 c 2
 125 302 l 2
 126 310 130 333 130 345 c 0
 130 352 128 356 120 356 c 3
 107 356 64 341 56 337 c 1
 52 337 46 353 46 359 c 0
 46 364 47 365 51 367 c 24
EndSplineSet
EndChar

StartChar: two.onum
Encoding: 65569 -1 420
Width: 382
Flags: W
HStem: 0 65<96 275> 378 63<160 253>
VStem: 261 73<283 370>
LayerCount: 2
Fore
SplineSet
96 76 m 0
 93 73 92 65 97 65 c 2
 224 65 l 2
 265 65 278 86 301 125 c 0
 303 129 308 130 314 130 c 0
 318 130 323 128 325 125 c 1
 306 75 295 51 277 -1 c 1
 153 0 l 1
 153 0 -9 0 -16 0 c 1
 -21 2 -21 10 -20 16 c 1
 101 120 261 244 261 322 c 0
 261 357 246 378 206 378 c 0
 145 378 108 343 70 307 c 1
 65 307 55 317 58 322 c 1
 80 358 146 441 241 441 c 0
 303 441 334 399 334 350 c 0
 334 237 129 101 96 76 c 0
EndSplineSet
EndChar

StartChar: three.onum
Encoding: 65570 -1 421
Width: 347
Flags: W
HStem: -186 49<-44 65> 123 35<59 104> 380 62<154 255>
VStem: 193 82<-5 112> 234 71<292 371>
LayerCount: 2
Fore
SplineSet
186 189 m 1xe8
 218 185 275 140 275 74 c 0
 275 -68 76 -186 -26 -186 c 0
 -39 -186 -50 -184 -62 -178 c 1
 -63 -174 -64 -170 -64 -166 c 0
 -64 -137 -38 -117 -23 -117 c 0
 5 -117 4 -137 34 -137 c 0
 108 -137 193 -44 193 49 c 0xf0
 193 94 168 134 127 134 c 0
 100 134 75 128 60 123 c 1
 48 125 58 152 62 158 c 1
 131 179 234 249 234 328 c 0
 234 360 214 380 184 380 c 0
 133 380 92 340 76 326 c 1
 69 326 62 340 66 347 c 1
 106 399 171 441 237 441 c 0
 273 441 306 410 306 361 c 0
 306 291 227 210 186 189 c 1xe8
EndSplineSet
EndChar

StartChar: four.onum
Encoding: 65571 -1 422
Width: 401
Flags: W
HStem: 6 59<41 189 271 336>
LayerCount: 2
Fore
SplineSet
185 -184 m 0
 162 -184 153 -179 155 -170 c 2
 189 1 l 1
 189 6 185 6 182 6 c 2
 -36 6 l 1
 -42 12 -45 26 -43 34 c 1
 90 182 193 304 309 432 c 0
 316 440 326 443 333 443 c 0
 339 443 343 439 342 434 c 2
 271 72 l 2
 270 67 273 65 278 64 c 1
 329 64 l 2
 340 64 341 53 335 22 c 0
 334 16 331 9 328 6 c 1
 264 6 l 2
 260 6 258 3 257 -2 c 2
 223 -176 l 1
 223 -176 216 -184 185 -184 c 0
201 71 m 1
 248 304 l 2
 248 307 248 312 246 312 c 8
 245 312 245 312 244 311 c 2
 38 76 l 2
 37 75 36 74 36 73 c 0
 35 69 37 64 41 64 c 2
 192 64 l 1
 195 65 199 65 201 71 c 1
EndSplineSet
EndChar

StartChar: five.onum
Encoding: 65572 -1 423
Width: 323
Flags: W
HStem: -184 28<-59 3> 357 74<110 282>
VStem: 174 80<10 138>
LayerCount: 2
Fore
SplineSet
-58 -184 m 1
 -62 -184 -62 -155 -55 -155 c 1
 11 -155 174 -72 174 67 c 0
 174 148 119 178 40 202 c 0
 34 204 32 210 34 218 c 0
 35 222 75 343 105 422 c 24
 107 427 111 432 115 432 c 0
 179 432 269 431 303 439 c 1
 305 436 306 432 306 425 c 0
 306 400 298 380 286 363 c 1
 193 356 136 358 125 357 c 0
 118 357 116 354 115 350 c 2
 86 264 l 2
 85 261 86 257 90 256 c 0
 152 244 254 184 254 100 c 0
 254 -57 62 -184 -58 -184 c 1
EndSplineSet
EndChar

StartChar: six.onum
Encoding: 65573 -1 424
Width: 414
Flags: W
HStem: -7 39<138 217> 376 32<202 258>
VStem: 28 76<69 282> 288 77<155 342>
LayerCount: 2
Fore
SplineSet
202 376 m 1
 200 376 200 391 201 394 c 1
 211 401 228 408 254 408 c 0
 300 408 365 349 365 256 c 0
 365 137 263 -7 158 -7 c 0
 76 -7 28 78 28 169 c 0
 28 399 275 565 426 633 c 1
 434 633 439 610 438 605 c 1
 337 556 104 417 104 177 c 0
 104 115 122 32 175 32 c 0
 228 32 288 127 288 255 c 0
 288 371 243 376 202 376 c 1
EndSplineSet
EndChar

StartChar: seven.onum
Encoding: 65574 -1 425
Width: 367
Flags: W
HStem: 353 72<70 325>
LayerCount: 2
Fore
SplineSet
334 425 m 2
 357 425 388 428 394 428 c 0
 400 428 398 424 397 419 c 0
 394 406 380 386 360 354 c 2
 32 -186 l 1
 29 -187 27 -187 25 -187 c 0
 13 -187 9 -178 9 -172 c 0
 9 -169 10 -161 13 -156 c 2
 325 353 l 1
 248 353 178 353 107 353 c 0
 75 353 53 306 43 286 c 1
 35 285 27 284 21 292 c 1
 34 337 42 369 53 413 c 0
 55 421 63 425 71 425 c 2
 334 425 l 2
EndSplineSet
EndChar

StartChar: eight.onum
Encoding: 65575 -1 426
Width: 396
Flags: W
HStem: -6 38<128 225> 573 38<193 279>
VStem: 28 70<59 201> 96 67<402 534> 159 96<298 334> 259 73<84 220> 306 64<415 547>
LayerCount: 2
Fore
SplineSet
332 179 m 0xcc
 332 54 245 -6 156 -6 c 0
 79 -6 28 51 28 128 c 0
 28 208 109 280 158 305 c 0
 160 306 159 307 159 308 c 0
 159 309 159 310 159 311 c 0xec
 127 340 96 398 96 447 c 0
 96 548 169 611 254 611 c 3
 314 611 370 565 370 494 c 0xd2
 370 410 306 356 258 324 c 0
 256 323 255 322 255 321 c 0
 255 320 255 319 256 318 c 0
 294 280 332 234 332 179 c 0xcc
239 349 m 0
 278 384 306 426 306 482 c 0
 306 525 279 573 236 573 c 0
 198 573 163 538 163 467 c 0xd2
 163 423 200 376 226 347 c 0
 228 345 229 345 231 345 c 0
 234 345 236 347 239 349 c 0
176 32 m 0
 228 32 259 78 259 145 c 0
 259 216 199 270 190 278 c 0
 188 280 187 282 184 282 c 0
 183 282 181 282 180 281 c 0
 118 242 99 169 99 124 c 0xe4
 99 67 134 32 176 32 c 0
EndSplineSet
EndChar

StartChar: nine.onum
Encoding: 65576 -1 427
Width: 393
Flags: W
HStem: 22 32<132 188> 398 39<173 252>
VStem: 25 77<89 276> 285 76<149 362>
LayerCount: 2
Fore
SplineSet
188 55 m 1
 190 55 190 40 189 37 c 1
 179 30 162 22 136 22 c 0
 90 22 25 82 25 175 c 0
 25 294 127 438 232 438 c 0
 314 438 361 353 361 262 c 0
 361 32 115 -134 -36 -202 c 1
 -44 -202 -49 -180 -48 -175 c 1
 53 -126 285 14 285 254 c 0
 285 316 268 398 215 398 c 0
 162 398 102 304 102 176 c 0
 102 60 147 55 188 55 c 1
EndSplineSet
EndChar

StartChar: exclam.sc
Encoding: 65577 -1 432
Width: 225
Flags: W
HStem: -9 99<38 103> 407 20G<135 160>
VStem: 25 91<4 77> 100 77<317 419>
LayerCount: 2
Fore
SplineSet
147 427 m 0xd0
 171 427 181 408 177 388 c 0
 174 370 146 301 103 139 c 0
 100 126 97 124 79 118 c 0
 73 115 71 124 72 132 c 0
 93 324 94 356 100 388 c 0
 104 408 122 427 147 427 c 0xd0
25 41 m 0xe0
 30 68 55 90 80 90 c 0
 105 90 121 68 116 41 c 0
 111 14 86 -9 61 -9 c 0
 36 -9 20 14 25 41 c 0xe0
EndSplineSet
EndChar

StartChar: parenleft.sc
Encoding: 65578 -1 433
Width: 240
Flags: W
HStem: -96 20<126 131>
LayerCount: 2
Fore
SplineSet
94 201 m 0
 68 67 91 -37 134 -76 c 0
 135 -77 134 -77 134 -79 c 0
 133 -85 126 -97 124 -96 c 0
 83 -83 10 32 42 200 c 0
 75 369 194 486 240 499 c 0
 242 500 244 488 243 482 c 0
 243 480 243 480 242 479 c 0
 183 440 120 336 94 201 c 0
EndSplineSet
EndChar

StartChar: parenright.sc
Encoding: 65579 -1 434
Width: 242
Flags: W
HStem: 479 20<88 93>
LayerCount: 2
Fore
SplineSet
125 201 m 0
 151 336 128 440 85 479 c 0
 84 480 85 480 85 482 c 0
 86 488 93 500 95 499 c 0
 136 486 210 369 177 200 c 0
 145 32 26 -83 -20 -96 c 0
 -22 -97 -25 -85 -24 -79 c 0
 -24 -77 -23 -77 -22 -76 c 0
 37 -37 99 67 125 201 c 0
EndSplineSet
EndChar

StartChar: period.sc
Encoding: 65580 -1 435
Width: 209
Flags: W
HStem: -9 99<33 96>
VStem: 19 94<7 75>
LayerCount: 2
Fore
SplineSet
19 28 m 0
 19 63 48 90 76 90 c 0
 97 90 112 74 112 53 c 0
 112 19 81 -9 53 -9 c 0
 32 -9 19 7 19 28 c 0
EndSplineSet
EndChar

StartChar: slash.sc
Encoding: 65581 -1 436
Width: 325
Flags: HW
LayerCount: 2
Fore
SplineSet
327 501 m 1
 26 -8 l 2
 24 -13 12 -23 -9 -23 c 0
 -18 -23 -19 -19 -19 -19 c 1
 281 491 l 2
 288 501 295 505 314 505 c 0
 323 505 324 502 327 501 c 1
EndSplineSet
EndChar

StartChar: less.sc
Encoding: 65584 -1 439
Width: 379
VWidth: 0
Flags: W
VStem: 16 321
LayerCount: 2
Fore
SplineSet
287 74 m 0
 286 67 269 30 263 30 c 0
 262 30 261 31 259 32 c 2
 34 170 l 2
 16 181 14 192 16 204 c 0
 18 215 28 229 49 239 c 2
 325 375 l 2
 327 376 329 377 330 377 c 0
 333 377 339 372 338 336 c 0
 338 330 333 327 333 327 c 1
 82 204 l 1
 285 80 l 1
 285 80 288 79 287 74 c 0
EndSplineSet
EndChar

StartChar: equal.sc
Encoding: 65585 -1 440
Width: 433
Flags: W
HStem: 142 49<53 346> 261 49<75 369>
VStem: 49 325
LayerCount: 2
Fore
SplineSet
352 187 m 0
 350 179 347 166 339 146 c 0
 337 141 334 142 334 142 c 1
 49 142 l 1
 49 142 44 141 46 150 c 0
 47 154 51 166 60 187 c 0
 62 192 64 190 64 190 c 1
 349 190 l 2
 352 190 353 193 352 187 c 0
70 270 m 1
 70 270 80 310 87 310 c 2
 374 310 l 2
 375 310 376 310 375 306 c 0
 373 298 371 286 363 266 c 0
 361 261 358 261 358 261 c 1
 73 261 l 1
 73 261 68 261 70 270 c 1
EndSplineSet
EndChar

StartChar: greater.sc
Encoding: 65586 -1 441
Width: 379
VWidth: 0
Flags: W
VStem: 22 320
LayerCount: 2
Fore
SplineSet
22 74 m 0
 23 79 26 80 26 80 c 1
 277 204 l 1
 74 327 l 1
 74 327 71 330 73 336 c 0
 87 372 93 377 96 377 c 0
 97 377 98 376 100 375 c 2
 323 239 l 2
 340 229 344 215 342 204 c 0
 340 192 333 181 312 170 c 2
 33 32 l 2
 31 31 29 30 28 30 c 0
 22 30 21 67 22 74 c 0
EndSplineSet
EndChar

StartChar: question.sc
Encoding: 65587 -1 442
Width: 282
VWidth: 0
Flags: W
HStem: -9 99<57 120> 389 42<142 202>
VStem: 42 94<7 75> 48 51<149 213> 205 44<323 386>
LayerCount: 2
Fore
SplineSet
42 28 m 0xe8
 42 63 72 90 100 90 c 0
 121 90 136 74 136 53 c 0
 136 19 104 -9 76 -9 c 0
 55 -9 42 7 42 28 c 0xe8
128 133 m 1
 128 129 124 123 120 121 c 1
 103 121 48 152 48 192 c 3
 48 233 68 248 82 257 c 0
 114 278 170 312 170 312 c 2
 185 322 205 335 205 355 c 3
 205 372 192 389 169 389 c 0
 137 389 147 347 109 347 c 0
 81 347 79 382 82 398 c 1
 91 414 121 431 146 431 c 0
 208 431 249 390 249 340 c 0
 249 276 199 260 127 218 c 0
 108 207 99 196 99 176 c 3xd8
 99 155 120 139 128 133 c 1
EndSplineSet
EndChar

StartChar: at.sc
Encoding: 65588 -1 443
Width: 574
Flags: W
HStem: -43 33<163 291> 60 34<365 434> 66 48<184 258> 309 37<290 377> 438 35<244 411>
LayerCount: 2
Fore
SplineSet
490 213 m 0xd8
 514 338 455 438 333 438 c 0
 205 438 103 343 79 218 c 0
 53 80 114 -10 248 -10 c 0
 267 -10 302 -3 312 3 c 1
 313 -2 302 -19 299 -21 c 0
 286 -32 265 -43 234 -43 c 0
 86 -43 9 75 35 209 c 0
 67 373 184 473 344 473 c 0
 481 473 555 351 531 224 c 0
 506 95 428 60 374 60 c 0xd8
 326 60 310 111 316 142 c 0
 316 144 313 142 312 141 c 0
 296 120 243 66 209 66 c 0xb8
 159 66 140 116 149 162 c 0
 167 252 273 346 365 346 c 0
 390 346 406 343 424 338 c 1
 418 321 413 304 413 304 c 1
 370 158 l 2
 368 151 366 145 365 140 c 0
 357 101 375 94 390 94 c 0
 452 94 483 179 490 213 c 0xd8
356 293 m 0
 358 301 357 309 326 309 c 0
 294 309 225 256 208 170 c 0
 199 127 218 114 234 114 c 0xb8
 270 114 324 183 328 199 c 1
 353 286 l 1
 353 286 355 289 356 293 c 0
EndSplineSet
EndChar

StartChar: a.sc
Encoding: 65589 -1 444
Width: 427
Flags: W
HStem: -3 28<-36 12 65 104 200 250 328 371> 163 37<142 236>
LayerCount: 2
Fore
SplineSet
369 -3 m 1
 347 -1 312 1 287 1 c 0
 261 1 223 -1 197 -3 c 1
 194 1 199 21 203 25 c 1
 210 25 244 28 250 33 c 0
 252 35 253 38 254 42 c 0
 258 61 239 160 239 160 c 1
 239 160 238 162 236 162 c 0
 221 164 196 163 181 163 c 0
 158 163 149 163 123 160 c 0
 122 160 121 159 121 159 c 1
 121 159 96 113 81 84 c 16
 70 63 66 51 64 43 c 0
 61 28 102 25 106 25 c 1
 108 22 105 2 102 -3 c 1
 80 -1 62 1 37 1 c 0
 11 1 -12 -1 -38 -3 c 1
 -41 0 -37 19 -33 25 c 1
 -26 25 5 29 13 38 c 0
 28 56 38 74 51 97 c 2
 51 97 167 306 222 409 c 0
 228 420 259 441 264 441 c 0
 266 441 266 439 268 438 c 1
 268 438 318 61 321 48 c 0
 324 32 370 25 374 25 c 1
 376 19 370 0 369 -3 c 1
143 202 m 0
 158 201 174 200 188 200 c 0
 206 200 216 201 234 203 c 0
 235 203 236 205 236 205 c 1
 217 343 l 1
 142 204 l 1
 142 204 142 202 143 202 c 0
EndSplineSet
EndChar

StartChar: b.sc
Encoding: 65590 -1 445
Width: 436
Flags: W
HStem: -3 30<4 51 128 232> 216 34<164 258> 407 30<85 122 182 272>
LayerCount: 2
Fore
SplineSet
255 438 m 0
 314 438 379 415 364 340 c 0
 354 289 297 256 270 247 c 0
 270 246 269 245 269 244 c 1
 309 243 382 199 369 133 c 0
 361 95 326 51 288 30 c 0
 250 6 204 -2 154 -3 c 0
 133 -3 25 -3 0 -3 c 1
 -2 3 3 21 6 25 c 1
 13 25 48 28 51 35 c 0
 56 46 60 63 64 83 c 2
 117 354 l 2
 121 374 123 390 123 401 c 0
 123 408 89 412 82 412 c 1
 81 418 84 436 87 440 c 1
 112 438 141 436 165 436 c 0
 189 436 218 438 255 438 c 0
164 250 m 1
 218 250 l 2
 256 250 283 286 290 321 c 0
 301 377 274 407 224 407 c 0
 217 407 201 407 197 401 c 0
 193 393 188 373 184 354 c 2
 164 250 l 1
157 216 m 1
 130 81 l 2
 128 72 123 43 127 39 c 0
 134 29 150 27 171 27 c 0
 214 27 265 41 280 117 c 0
 289 164 282 216 193 216 c 2
 157 216 l 1
EndSplineSet
EndChar

StartChar: c.sc
Encoding: 65591 -1 446
Width: 465
Flags: W
HStem: -5 32<172 298> 412 32<235 360>
VStem: 38 81<95 284> 393 26<318 374>
LayerCount: 2
Fore
SplineSet
297 444 m 0
 337 444 379 440 422 426 c 1
 422 426 420 333 419 326 c 1
 418 319 411 318 405 318 c 0
 401 318 393 319 393 321 c 1
 393 341 390 412 304 412 c 0
 219 412 119 346 119 172 c 0
 119 100 139 27 238 27 c 0
 312 27 358 94 372 130 c 1
 383 130 396 125 396 125 c 1
 393 112 368 42 356 32 c 1
 318 7 280 -5 224 -5 c 0
 104 -5 38 92 38 186 c 0
 38 340 178 444 297 444 c 0
EndSplineSet
EndChar

StartChar: d.sc
Encoding: 65592 -1 447
Width: 495
Flags: W
HStem: -3 30<3 52 127 240> 407 29<81 123 198 300>
LayerCount: 2
Fore
SplineSet
185 353 m 2
 132 83 l 0
 130 74 125 40 127 36 c 0
 130 29 150 27 171 27 c 0
 252 27 334 83 358 208 c 0
 386 354 322 407 239 407 c 0
 232 407 201 407 198 400 c 0
 193 389 189 372 185 353 c 2
257 437 m 0
 396 437 460 344 437 221 c 0
 415 108 343 -3 164 -3 c 0
 136 -3 24 -3 0 -3 c 1
 -1 0 1 17 5 25 c 1
 12 25 49 28 52 35 c 0
 57 46 61 63 65 83 c 2
 116 354 l 2
 120 374 123 390 123 401 c 0
 123 408 87 408 80 408 c 1
 76 414 79 431 85 438 c 1
 122 436 156 437 180 437 c 0
 204 437 229 437 257 437 c 0
EndSplineSet
EndChar

